<svg xmlns="http://www.w3.org/2000/svg" viewBox="0 0 352.08 367.94"><defs><style>.cls-1{fill:#ba2356;}.cls-2{fill:#29c1e3;}.cls-3{fill:#ee436e;}.cls-4{fill:#dd3768;}.cls-5{fill:#fff;}.cls-6{fill:#461529;}.cls-7{fill:#680a2c;}.cls-8{fill:#f1f1f2;}</style></defs><title>Asset 2</title><g id="Layer_2" data-name="Layer 2"><g id="Layer_1-2" data-name="Layer 1"><path class="cls-1" d="M250.2,251.7s58.9.81,47.78-64.23c-7.78-45.52,30.07-39.25,30.07-39.25s39.44,8.24,17.28,67c-18.16,48.13-63.82,55-75.6,55Z"/><path class="cls-2" d="M139,25.78S105.76,6.39,42.88,10.27,75,60.67,75,60.67,23,47.2,23.52,66.79s42,27.85,42,27.85S21.06,84.7,23.79,107.58s28.56,21.21,28.56,21.21-39-2.11-32.42,19.37,59.18,32.39,59.18,32.39Z"/><path class="cls-1" d="M91.2,325.77S48,354.53,76.58,364.39s49.82-27.77,43.2-47.82S91.2,325.77,91.2,325.77Z"/><path class="cls-1" d="M148.09,289.65s-20.51,74.34,7.55,77.76c47.83,5.84,22.16-38.19,16-58.24S148.09,289.65,148.09,289.65Z"/><path class="cls-1" d="M213.29,289.65s-15.48,77.3,25.28,74.68c22.24-1.43,28.31-25.91,5.81-31.66C225.43,327.83,213.29,289.65,213.29,289.65Z"/><path class="cls-3" d="M30.6,321.39C19.18,215.76,28.44,132.48,132,0c0,0,217.32,35,142.42,321.39Z"/><path class="cls-1" d="M66.34,241.45S35.46,225,5.68,282c-26.43,50.61,47.76,62.1,50.2,26.45C59.63,253.6,84.09,251.3,66.34,241.45Z"/><circle class="cls-4" cx="193.95" cy="169.35" r="69.9"/><circle class="cls-5" cx="191.77" cy="162.3" r="65.58" transform="translate(-58.6 183.14) rotate(-45)"/><circle class="cls-6" cx="210.28" cy="139.38" r="30.46" transform="translate(-0.71 1.07) rotate(-0.29)"/><path class="cls-5" d="M220.6,109.86a13.26,13.26,0,1,1-18.45-3.39A13.26,13.26,0,0,1,220.6,109.86Z"/><path class="cls-7" d="M124.05,300.4l110.43.73s1.07-51-73.42-43.63C117.23,261.87,124.05,300.4,124.05,300.4Z"/><path class="cls-4" d="M118.26,119.16s25-43.19,73.83-41.91C192.09,77.25,139.18,64.35,118.26,119.16Z"/><path class="cls-8" d="M155.66,258.22s-9.55,24.18,1.87,25,16.52-.18,17.95-4.61-3-21.75-3-21.75S163.29,256.35,155.66,258.22Z"/><path class="cls-8" d="M200.21,259.92s8.83,22.2-2.58,23.05-16.53-.17-18-4.61,2.82-21.2,2.82-21.2A91.16,91.16,0,0,1,200.21,259.92Z"/></g></g></svg>