<svg xmlns="http://www.w3.org/2000/svg" viewBox="0 0 352.95 371.23"><defs><style>.cls-1{fill:#f89f29;}.cls-2{fill:#fcb626;}.cls-3{fill:#eaa122;}.cls-4{fill:#fff;}.cls-5{fill:#422e13;}.cls-6{fill:#e08726;}.cls-7{fill:#451124;}.cls-8{fill:#f1f1f2;}</style></defs><title>Asset 1</title><g id="Layer_2" data-name="Layer 2"><g id="Layer_1-2" data-name="Layer 1"><path class="cls-1" d="M101.45,292.38s-11.15,21-4.55,59.89c0,0-14.39-18.94-26.67-3.07,0,0-9.53,18.43,10.59,21.5s35.76-8.19,35.76-8.19-9.66-36.18,5.83-65Z"/><path class="cls-1" d="M172.88,282.67s22.62,7.28,45,39.79c0,0-2.87-23.61,17-20.78,0,0,19.67,6.59,7.37,22.81s-31.36,19-31.36,19-18.28-32.68-49.47-42.58Z"/><path class="cls-1" d="M253,186.37s11.79,39.26,42.32,14.13c22-18.13,14.46-40.09,17.74-50.27s26-18.73,36.2-3.62,1.65,72.09-53.55,84S226,220.87,226,220.87Z"/><path class="cls-1" d="M73.74,236.76S37.63,217.33,33.82,256.7c-2.75,28.38,18.12,38.56,23,48.09s-5.15,31.64-23,28.15-52.14-49.81-21.54-97.27,56.15-42.35,56.15-42.35Z"/><path class="cls-2" d="M76.18,293.51s-90.59-45-61.14-154.78C38,53,120.1,24.53,223.48,0V25l36.7-7.46V49.84l26,.76L264.08,93.72s46.33,160-72.61,204.36C138.2,317.94,98.41,306.21,76.18,293.51Z"/><circle class="cls-3" cx="143.17" cy="181.52" r="65.22"/><circle class="cls-4" cx="145.23" cy="174.95" r="61.19" transform="translate(-51.09 289.66) rotate(-80.6)"/><circle class="cls-5" cx="171.59" cy="167.15" r="28.42" transform="translate(-21.09 309.47) rotate(-80.7)"/><circle class="cls-4" cx="182.78" cy="149.94" r="12.38" transform="translate(-52.49 173.16) rotate(-45)"/><path class="cls-6" d="M81.13,116.2S121,80.44,170.4,97.94C170.4,97.94,120.68,67.2,81.13,116.2Z"/><path class="cls-1" d="M327.54,162.41c-4.13,1.78-7.32-1.83-10.73-4.17s-11.23-4.79-14.61-7c-8-5.35-5.5-12.36-1.86-15.07,4.55-3.38,15-3.24,21.65,6l5.21,7.35C331.52,155,331.31,160.78,327.54,162.41Z"/><path class="cls-7" d="M129.16,264.78l41.53-10.51S161.41,286.25,129.16,264.78Z"/><polygon class="cls-8" points="138.24 262.48 144.57 267.93 145.56 261.97 149.17 263.23 150.77 260.95 153.56 262.31 155.08 259.92 157.96 261.4 159.93 259.14 162.39 263.54 163.83 256 138.24 262.48"/><path class="cls-3" d="M144.6,276s12.15,4.38,21.35-4.82C166,271.13,159.16,282.85,144.6,276Z"/><circle class="cls-3" cx="246.67" cy="117.15" r="10.51"/><circle class="cls-3" cx="224.49" cy="91.91" r="8.05"/><circle class="cls-3" cx="221.72" cy="134.85" r="8.48"/><path class="cls-3" d="M250.75,156.48a15.94,15.94,0,0,0,22.06,14.74,258.81,258.81,0,0,0-.72-29.75,15.92,15.92,0,0,0-21.34,15Z"/><path class="cls-4" d="M166.64,180.63A5.69,5.69,0,1,1,161,175,5.68,5.68,0,0,1,166.64,180.63Z"/></g></g></svg>