<svg xmlns="http://www.w3.org/2000/svg" viewBox="0 0 153.85 189.46"><defs><style>.cls-1{fill:#bca068;}.cls-2,.cls-6{fill:#fff;}.cls-3{fill:#443f44;}.cls-4{fill:#c2cd43;}.cls-5{fill:#7ba81a;}.cls-6{opacity:0.75;}.cls-7{fill:#adeaea;}.cls-8{fill:#c1f4f3;}.cls-9{fill:#f6f2f7;}.cls-10{fill:#d6e783;}.cls-10,.cls-12{opacity:0.9;}.cls-11,.cls-12{fill:#9bc65c;}.cls-13{opacity:0.5;}</style></defs><title>Asset 2</title><g id="Layer_2" data-name="Layer 2"><g id="Objects"><ellipse class="cls-1" cx="61.4" cy="179.92" rx="61.4" ry="9.54"/><polygon class="cls-2" points="13.5 28.69 29.14 180.16 94.44 180.16 110.08 28.69 13.5 28.69"/><path class="cls-3" d="M153.85,6.52,109.67.18c-5.17-.74-10,.6-13,7.68L39.61,161l6.28,2.08,56.37-151c2.08-6.22,4.92-6.45,9.75-5.76l41,5.88Z"/><path class="cls-4" d="M37.64,40S11.38,52.48,14.74,15.54C14.74,15.54,49.85,17.37,37.64,40Z"/><path class="cls-5" d="M37.17,40.17,14.74,15.54C11.64,49.58,33.68,41.63,37.17,40.17Z"/><path class="cls-4" d="M47.56,43.46S27.5,32.74,52.31,17.71C52.31,17.71,67.45,40.67,47.56,43.46Z"/><path class="cls-5" d="M47.21,43.26l5.1-25.55C29.44,31.56,44.68,41.75,47.21,43.26Z"/><path class="cls-4" d="M47.85,56.32S29.94,59.23,38.4,37.7C38.4,37.7,59.11,44.93,47.85,56.32Z"/><path class="cls-5" d="M47.53,56.36,38.4,37.7C30.6,57.54,45.19,56.63,47.53,56.36Z"/><path class="cls-4" d="M49.29,69.75S34.44,80.17,32.68,57.1C32.68,57.1,54.46,54.58,49.29,69.75Z"/><path class="cls-5" d="M49,69.92,32.68,57.1C34.3,78.36,47,71.18,49,69.92Z"/><path class="cls-4" d="M55.16,56.14s-12.6-13.07,9.93-18.38C65.09,37.76,70.94,58.9,55.16,56.14Z"/><path class="cls-5" d="M54.94,55.9,65.09,37.76C44.33,42.66,53.39,54.13,54.94,55.9Z"/><path class="cls-4" d="M35.74,53.53S22.86,64.86,18.82,43.36C18.82,43.36,39,38.76,35.74,53.53Z"/><path class="cls-5" d="M35.5,53.73,18.82,43.36C22.54,63.17,33.76,55.11,35.5,53.73Z"/><polygon class="cls-6" points="13.5 28.69 29.14 180.16 94.44 180.16 110.08 28.69 13.5 28.69"/><rect class="cls-7" x="42.48" y="61.1" width="32.82" height="32.1" rx="3.7" ry="3.7" transform="translate(-25.55 125) rotate(-82.18)"/><path class="cls-8" d="M93.24,103a3.71,3.71,0,0,1-4.18,3.17L64.6,102.76a3.69,3.69,0,0,1-3.16-4.17l3.45-25.18a3.71,3.71,0,0,1,4.18-3.17L93.53,73.6a3.71,3.71,0,0,1,3.17,4.17Z"/><path class="cls-9" d="M68.27,96.75a3.7,3.7,0,0,1-1.41,5L45.32,113.88a3.7,3.7,0,0,1-5-1.42L27.84,90.3a3.7,3.7,0,0,1,1.42-5L50.79,73.17a3.7,3.7,0,0,1,5,1.42Z"/><path class="cls-10" d="M32.19,162c1.45,10.78,11.68,12,11.68,12h37s10-2.07,11.54-11.11c.47-2.72,8.86-85.73,8.86-85.73-4.14-.31-4.93,6.69-16.56,1.82-4.84-2-9.2,7.06-18.37,3.06-7.67-3.35-11.14,6.15-16.13,2.79s-8.36-3-13.36,0c-3.43,2.07-9.26-4.5-13.6-4.89C23.27,79.93,31.66,158.13,32.19,162Z"/><path class="cls-11" d="M100.42,77.2c-2.16,21.3-7.61,74.94-8,77.12-1.59,9-11.54,11.11-11.54,11.11h-37s-10.23-1.18-11.68-12c-.42-3.09-5.77-52.85-8-73.37a6.42,6.42,0,0,0-.94-.17s8.39,78.2,8.92,82.1c1.45,10.78,11.68,12,11.68,12h37s10-2.07,11.54-11.11c.47-2.72,8.86-85.73,8.86-85.73A3.55,3.55,0,0,0,100.42,77.2Z"/><path class="cls-12" d="M84.73,79c-4.84-2-9.2,7.06-18.37,3.06a7.8,7.8,0,0,0-7,.2V174H80.89s10-2.07,11.54-11.11c.47-2.72,8.86-85.73,8.86-85.73C97.15,76.84,96.36,83.84,84.73,79Z"/><g class="cls-13"><path class="cls-4" d="M58.53,128.24s-26.26,12.52-22.9-24.43C35.63,103.81,70.74,105.64,58.53,128.24Z"/><path class="cls-5" d="M58.06,128.45,35.63,103.81C32.53,137.86,54.57,129.9,58.06,128.45Z"/></g><g class="cls-13"><path class="cls-4" d="M70.93,141.32s-17.69-7.65,2.21-22.07C73.14,119.25,87.52,137.56,70.93,141.32Z"/><path class="cls-5" d="M70.62,141.17l2.52-21.92C54.8,132.54,68.37,140.07,70.62,141.17Z"/></g><g class="cls-13"><path class="cls-4" d="M80,111.18s-12-12.48,9.48-17.57C89.44,93.61,95.05,113.81,80,111.18Z"/><path class="cls-5" d="M79.76,111l9.68-17.34C69.61,98.3,78.27,109.26,79.76,111Z"/></g><g class="cls-13"><path class="cls-4" d="M65.26,152.9s-13.11,11.36-17-10.41C48.22,142.49,68.69,138,65.26,152.9Z"/><path class="cls-5" d="M65,153.09l-16.8-10.6C51.84,162.55,63.25,154.48,65,153.09Z"/></g><path class="cls-11" d="M41.23,94.3a2.95,2.95,0,1,1-2.95-3A2.95,2.95,0,0,1,41.23,94.3Z"/><path class="cls-11" d="M88.92,119.25a3,3,0,1,1-3-3A2.95,2.95,0,0,1,88.92,119.25Z"/><path class="cls-11" d="M73.14,157.34a3,3,0,1,1-3-3A3,3,0,0,1,73.14,157.34Z"/><path class="cls-11" d="M44.18,135.82a2.95,2.95,0,1,1-3-2.95A2.95,2.95,0,0,1,44.18,135.82Z"/><path class="cls-11" d="M54.27,100.3a1.78,1.78,0,1,1-1.78-1.77A1.78,1.78,0,0,1,54.27,100.3Z"/><path class="cls-11" d="M72,91.35a1.78,1.78,0,1,1-1.77-1.77A1.77,1.77,0,0,1,72,91.35Z"/><path class="cls-11" d="M84.79,148.86A1.77,1.77,0,1,1,83,147.08,1.77,1.77,0,0,1,84.79,148.86Z"/><path class="cls-11" d="M43,150.63a1.77,1.77,0,1,1-1.77-1.77A1.77,1.77,0,0,1,43,150.63Z"/></g></g></svg>