<svg xmlns="http://www.w3.org/2000/svg" viewBox="0 0 185.9 250.23"><defs><style>.cls-1{fill:#bca068;}.cls-2{fill:#966046;}.cls-3{fill:#ffd74d;}.cls-4{fill:#ffc42c;}.cls-5{fill:#c2cd43;}.cls-10,.cls-6{fill:#fff;}.cls-7{fill:#7ba81a;}.cls-8{fill:#443f44;}.cls-9{opacity:0.7;}.cls-10{opacity:0.75;}.cls-11{fill:#adeaea;}.cls-12{fill:#c1f4f3;}.cls-13{fill:#f6f2f7;}.cls-14{fill:#eebd64;}.cls-14,.cls-15{opacity:0.9;}.cls-15,.cls-16{fill:#cc9640;}.cls-16,.cls-18{opacity:0.5;}.cls-17{fill:#f9dbaa;}</style></defs><title>Asset 6</title><g id="Layer_2" data-name="Layer 2"><g id="Objects"><ellipse class="cls-1" cx="94.11" cy="240.69" rx="67.02" ry="9.54"/><path class="cls-2" d="M17.86,4.42a34.85,34.85,0,0,1,47.4,13.44c6.36,11.4,6.61,21.86.24,32.25L39.39,38.37l-.45,1.7,14.8,24c-.63.41-1.27.81-1.93,1.17A34.83,34.83,0,0,1,17.86,4.42Z"/><path class="cls-3" d="M18.86,6.2A32.79,32.79,0,0,1,64.23,49.39L40.79,39l-1.38,1.87L52.54,62.45c-.56.35-1.13.7-1.72,1a32.8,32.8,0,1,1-32-57.28Z"/><path class="cls-4" d="M7.63,21.11h0A30.23,30.23,0,0,1,19.1,8.75L30.35,28.91a7.21,7.21,0,0,0-1.77,1.89Z"/><path class="cls-4" d="M32.23,65.21h0L35,42.28a7.31,7.31,0,0,0,2.54-.5L48.78,61.93A30.32,30.32,0,0,1,32.23,65.21Z"/><path class="cls-4" d="M13.37,56.47A30.44,30.44,0,0,1,4.94,40.78l.21,1,22.66-4.47a8.26,8.26,0,0,0,.52,1.19,8.12,8.12,0,0,0,.74,1.07Z"/><path class="cls-4" d="M37.44,4.47,34.69,27.39a7.56,7.56,0,0,0-2.54.51L20.9,7.74A30.39,30.39,0,0,1,37.44,4.47Z"/><path class="cls-4" d="M6.77,23l21,9.7a7.2,7.2,0,0,0-.31,2.57L4.75,39.72v0A30.62,30.62,0,0,1,7.15,22.1C7,22.39,6.89,22.69,6.77,23Z"/><path class="cls-4" d="M30.59,40.94A7.3,7.3,0,0,0,32.94,42L30.19,65l.95.14a30.62,30.62,0,0,1-16.26-7.21Z"/><path class="cls-4" d="M42,37a7.47,7.47,0,0,0,.31-2.58L64.93,30a27.68,27.68,0,0,1-2,16.78C63,46.44,42,37,42,37Z"/><path class="cls-5" d="M39.49,4.72l-1-.13Z"/><path class="cls-4" d="M54.8,11.8,39.09,28.73a7.4,7.4,0,0,0-2.35-1.09L39.49,4.72A30.58,30.58,0,0,1,54.81,11.8Z"/><path class="cls-4" d="M41.87,32.4a7,7,0,0,0-.53-1.19,6.72,6.72,0,0,0-.73-1.07L56.31,13.2l-.72-.69a30.58,30.58,0,0,1,8.93,15.42Z"/><path class="cls-6" d="M147.84,111.88V42.47H42.8V240.69h105V197.6a43.16,43.16,0,0,0,0-85.72Zm0,73.5V124.1a31.06,31.06,0,0,1,0,61.28Z"/><path class="cls-5" d="M71.47,54.56S39.68,58.53,56,21.08C56,21.08,92.07,35.18,71.47,54.56Z"/><path class="cls-7" d="M70.9,54.61,56,21.08C41,55.59,66.76,54.93,70.9,54.61Z"/><path class="cls-5" d="M80.62,61.66S63.37,43.49,94.52,36.39C94.52,36.39,102.38,65.64,80.62,61.66Z"/><path class="cls-7" d="M80.33,61.33,94.52,36.39C65.82,42.94,78.2,58.86,80.33,61.33Z"/><path class="cls-5" d="M76.46,75.2S56.73,72,73.05,52.45C73.05,52.45,92.18,67.2,76.46,75.2Z"/><path class="cls-7" d="M76.11,75.13,73.05,52.45C58,70.49,73.57,74.6,76.11,75.13Z"/><path class="cls-5" d="M73.31,89.73s-19.14,5.74-13-19C60.33,70.75,84,75.68,73.31,89.73Z"/><path class="cls-7" d="M73,89.82,60.33,70.75C54.66,93.53,70.45,90.45,73,89.82Z"/><path class="cls-5" d="M84.16,77.54s-8.62-18,16.76-15.76C100.92,61.78,99.7,85.9,84.16,77.54Z"/><path class="cls-7" d="M84,77.22l16.9-15.44C77.53,59.7,83,74.83,84,77.22Z"/><path class="cls-5" d="M64.77,68.08s-17.39,7.37-14.15-16.5C50.62,51.58,73.34,53.78,64.77,68.08Z"/><path class="cls-7" d="M64.46,68.2,50.62,51.58C47.64,73.58,62.16,69.05,64.46,68.2Z"/><path class="cls-8" d="M182.33,19.92l-43.79-8.63c-5.12-1-10,.08-13.42,7L73.25,209l6.06,1.19L130.52,22.85c2.4-6.1,5.25-6.19,10-5.24l40.65,8Z"/><g class="cls-9"><path class="cls-2" d="M122.46,170.89l2.09-1.48c-7.81-19.59-29.41-27.78-48.25-18.29l-.71.38.58,2.45C94.1,145.63,114.22,153.05,122.46,170.89Z"/><path class="cls-4" d="M78.42,152.36l-.63.3L88.49,191l34.08-21.9A33.38,33.38,0,0,0,78.42,152.36Z"/><path class="cls-3" d="M92.29,150.58a18.78,18.78,0,0,0-8.21.79l4.57,39.15.76-1.11Z"/><path class="cls-3" d="M109.07,155.42a13,13,0,0,0-7.34-3.53L90.58,182.6l-.41,2.52Z"/><path class="cls-3" d="M121.05,170c-.13-2.26-1.72-5.1-3.79-7L88.49,191Z"/></g><path class="cls-10" d="M147.84,111.88V42.47H42.8V240.69h105V197.6a43.16,43.16,0,0,0,0-85.72Zm0,73.5V124.1a31.06,31.06,0,0,1,0,61.28Z"/><path class="cls-11" d="M91.29,97.91a3.46,3.46,0,0,1-3.91,3l-22.9-3.14a3.47,3.47,0,0,1-3-3.91l3.24-23.58a3.46,3.46,0,0,1,3.91-3l22.9,3.14a3.47,3.47,0,0,1,3,3.91Z"/><path class="cls-12" d="M113.74,106.91a3.47,3.47,0,0,1-3.9,3l-22.91-3.15a3.47,3.47,0,0,1-3-3.91L87.2,79.25a3.47,3.47,0,0,1,3.91-3L114,79.43a3.47,3.47,0,0,1,3,3.9Z"/><path class="cls-13" d="M86.8,102.43a3.45,3.45,0,0,1-1.33,4.72L65.31,118.47a3.47,3.47,0,0,1-4.72-1.33L48.94,96.39a3.46,3.46,0,0,1,1.33-4.72L70.43,80.35a3.47,3.47,0,0,1,4.72,1.33Z"/><path class="cls-13" d="M128,120.54a3.47,3.47,0,0,1-4.74,1.26l-20-11.6a3.47,3.47,0,0,1-1.26-4.74l11.93-20.59a3.47,3.47,0,0,1,4.74-1.26l20,11.59a3.49,3.49,0,0,1,1.26,4.75Z"/><path class="cls-11" d="M109.87,113.29a3.47,3.47,0,0,1-2.86,4L84.2,121.05a3.47,3.47,0,0,1-4-2.86L76.33,94.71a3.48,3.48,0,0,1,2.86-4L102,87a3.47,3.47,0,0,1,4,2.86Z"/><rect class="cls-11" x="60.26" y="129.56" width="30.74" height="30.06" rx="3.47" ry="3.47" transform="translate(-86.64 161.71) rotate(-68.41)"/><rect class="cls-12" x="92.3" y="160.7" width="30.06" height="30.74" rx="3.47" ry="3.47" transform="translate(-32.31 24.34) rotate(-11.26)"/><path class="cls-14" d="M49.48,99.92c0,.17,0,.35,0,.53V221a12.78,12.78,0,0,0,12.78,12.79h65.91A12.79,12.79,0,0,0,140.93,221V100.45c0-.18,0-.36,0-.53Z"/><path class="cls-15" d="M128.14,218.87H62.23a12.78,12.78,0,0,1-12.78-12.78V221a12.78,12.78,0,0,0,12.78,12.79h65.91A12.79,12.79,0,0,0,140.93,221V206.09A12.79,12.79,0,0,1,128.14,218.87Z"/><path class="cls-16" d="M92.84,99.92v133.9h35.3A12.79,12.79,0,0,0,140.93,221V100.45c0-.18,0-.36,0-.53Z"/><path class="cls-17" d="M78,224.11a2.93,2.93,0,1,0-1.46-3.88A2.92,2.92,0,0,0,78,224.11Z"/><path class="cls-17" d="M105.61,117.11a2.93,2.93,0,1,0,1.45,3.89A2.94,2.94,0,0,0,105.61,117.11Z"/><path class="cls-17" d="M129.28,161.51a2.93,2.93,0,1,0,1.45,3.88A2.94,2.94,0,0,0,129.28,161.51Z"/><path class="cls-17" d="M105.61,167.51a2.93,2.93,0,1,0,1.45,3.88A2.94,2.94,0,0,0,105.61,167.51Z"/><path class="cls-17" d="M61.36,115a2.93,2.93,0,1,0-1.46-3.88A2.93,2.93,0,0,0,61.36,115Z"/><path class="cls-17" d="M127.8,118.06a2.93,2.93,0,1,0-3.88,1.46A2.93,2.93,0,0,0,127.8,118.06Z"/><path class="cls-17" d="M69.66,191.73a2.93,2.93,0,1,0,1.45,3.89A2.94,2.94,0,0,0,69.66,191.73Z"/><path class="cls-17" d="M69.66,146.32a2.93,2.93,0,1,0,1.45,3.88A2.94,2.94,0,0,0,69.66,146.32Z"/><path class="cls-17" d="M126.34,203.38a2.94,2.94,0,1,0,1.46,3.89A2.94,2.94,0,0,0,126.34,203.38Z"/><g class="cls-18"><path class="cls-5" d="M82.65,147.75s-26.25,12.52-22.9-24.42C59.75,123.33,94.87,125.16,82.65,147.75Z"/><path class="cls-7" d="M82.18,148,59.75,123.33C56.66,157.37,78.7,149.42,82.18,148Z"/></g><g class="cls-18"><path class="cls-5" d="M124.08,160s-17.68-7.64,2.21-22.07C126.29,138,140.68,156.27,124.08,160Z"/><path class="cls-7" d="M123.78,159.88,126.29,138C108,151.24,121.53,158.78,123.78,159.88Z"/></g><g class="cls-18"><path class="cls-5" d="M104.09,130.69s-12-12.47,9.48-17.56C113.57,113.13,119.17,133.33,104.09,130.69Z"/><path class="cls-7" d="M103.88,130.47l9.69-17.34C93.73,117.82,102.4,128.77,103.88,130.47Z"/></g><g class="cls-18"><path class="cls-5" d="M119,199.66S107,187.19,128.49,182.1C128.49,182.1,134.09,202.3,119,199.66Z"/><path class="cls-7" d="M118.8,199.44l9.69-17.34C108.65,186.79,117.32,197.74,118.8,199.44Z"/></g><g class="cls-18"><path class="cls-5" d="M105.75,205.68s-12.8,11.7-17.3-10C88.45,195.73,108.8,190.68,105.75,205.68Z"/><path class="cls-7" d="M105.52,205.88,88.45,195.73C92.6,215.68,103.79,207.32,105.52,205.88Z"/></g><g class="cls-18"><path class="cls-5" d="M78.68,199.76s-.2,17.34-19.09,5.84C59.59,205.6,69.79,187.29,78.68,199.76Z"/><path class="cls-7" d="M78.66,200.07,59.59,205.6C77,216.2,78.53,202.31,78.66,200.07Z"/></g><g class="cls-18"><path class="cls-5" d="M80.67,180.11s-13.11,11.36-17-10.41C63.64,169.7,84.1,165.19,80.67,180.11Z"/><path class="cls-7" d="M80.43,180.3,63.64,169.7C67.25,189.76,78.66,181.69,80.43,180.3Z"/></g></g></g></svg>