<svg xmlns="http://www.w3.org/2000/svg" viewBox="0 0 137.02 120.85"><defs><style>.cls-1{fill:#5a5b52;}.cls-2{fill:#fcdc56;}.cls-3{fill:#eac311;}.cls-4{fill:#fff;}</style></defs><title>Asset 5</title><g id="Layer_2" data-name="Layer 2"><g id="Layer_1-2" data-name="Layer 1"><polygon class="cls-1" points="86.32 99.35 84.08 95.52 78.23 94.78 47.24 32.69 50.19 27.16 48.29 23.25 44.3 30.73 78.02 98.3 86.32 99.35"/><polygon class="cls-2" points="75.92 98.04 78.02 98.3 44.3 30.73 43.29 32.64 75.92 98.04"/><polygon class="cls-1" points="24.33 8.4 21.81 12.21 20.13 10.4 22.28 7.36 24.33 8.4"/><polygon class="cls-1" points="18.97 17.35 5.55 21.7 3.03 25.89 21.66 19.85 18.97 17.35"/><polygon points="24.72 22.69 21.66 19.85 3.03 25.89 0 30.93 24.72 22.69"/><path class="cls-3" d="M87.73,100,42,8.32c-1.24-2.47-11.93-9-20.33,11.53l3.06,2.84C33,5.58,40,10.58,41.33,13.21l45.75,91.68c6.73,13.48,21.11,20,34.6,13.28a25.67,25.67,0,0,0,11.94-12,70.32,70.32,0,0,1-11.28,7.13C108.85,120,94.46,113.49,87.73,100Z"/><path class="cls-2" d="M135.48,84l-11.3-27.21c-1.54-3.08-2.89-17,7.23-15.92L101,24.41c-15.16,14-9.73,32.25,9.62,68.56,1.53,3.07,2.33,5.78.78,6.49s-3.41-1.22-5.4-4L50.69,9.4C43-4,28.69-4.54,19,17.35l2.69,2.5C30.27-.27,40.75,5.85,42,8.32L87.73,100c6.73,13.49,21.12,20,34.61,13.29a70.32,70.32,0,0,0,11.28-7.13C136.29,100.41,138.69,92.26,135.48,84Z"/><polygon class="cls-1" points="8.34 18.92 11.73 29.09 13.22 28.59 9.83 18.43 8.34 18.92"/><polygon class="cls-1" points="14.06 17.03 17.45 27.2 18.95 26.7 15.56 16.55 14.06 17.03"/><polygon points="9.83 18.43 13.22 28.59 17.45 27.2 14.06 17.03 9.83 18.43"/><path class="cls-4" d="M111.58,81.73c-5.8-8.84-18.79-36.18-9.33-46.06L104.67,37C98.06,43.92,106.67,67.14,111.58,81.73Z"/><path class="cls-3" d="M106.21,47.45c-11.13-3.29-19.66-9.64-22.4-15.92,1.06,6.7,9.83,14,21.83,17.56,11.77,3.47,22.91,2.22,27.59-2.57C127.43,50.07,117.09,50.67,106.21,47.45Z"/><path class="cls-4" d="M135.27,43.19a7.4,7.4,0,0,0,.26-1.92c-.27.19-.53.4-.83.58-4.52,5-15.77,6.46-27.77,2.91C94.5,41.1,85.57,33.38,85,26.51c-.06-.13-.1-.24-.16-.38A7.81,7.81,0,0,0,84,28a8,8,0,0,0-.17,3.51c2.74,6.28,11.27,12.63,22.4,15.92,10.88,3.22,21.22,2.62,27-.93A7.85,7.85,0,0,0,135.27,43.19Z"/><path class="cls-2" d="M85,26c0,4.13,3.26,8.62,8.49,12.38a5.65,5.65,0,0,1-.61-4.26c1.37-4.59,9.55-6.21,18.3-3.63s14.72,8.4,13.36,13a5.67,5.67,0,0,1-2.81,3.25c6.43-.32,11.55-2.33,13.83-5.77-.07-7-9.18-15-21.93-18.8S88.85,20.13,85,26Z"/><path class="cls-4" d="M112.87,26.4c10.09,3,17.92,8.58,21,14.28-.56-6.36-8.86-13.5-20.37-16.91-11.87-3.51-23-1.85-26.63,3.58C92.35,23.89,102.36,23.29,112.87,26.4Z"/><path class="cls-3" d="M111.16,30.45c-8.75-2.58-16.93-1-18.3,3.63a5.65,5.65,0,0,0,.61,4.26,45.13,45.13,0,0,0,13.46,6.42,45.44,45.44,0,0,0,14.78,1.93,5.67,5.67,0,0,0,2.81-3.25C125.88,38.85,119.89,33,111.16,30.45Z"/><path class="cls-1" d="M63.57,25.7a4.58,4.58,0,1,1-7.71,4.88,4.58,4.58,0,1,1,7.71-4.88Z"/><path class="cls-2" d="M65,24.8a3,3,0,0,1-.93,4.1l-1.18.75a3,3,0,1,1-3.19-5l1.19-.76A3,3,0,0,1,65,24.8Z"/><path class="cls-1" d="M72.45,39.74a4.58,4.58,0,1,1-7.7,4.88,4.58,4.58,0,1,1,7.7-4.88Z"/><path class="cls-2" d="M73.89,38.83a3,3,0,0,1-.92,4.1l-1.19.76a3,3,0,0,1-3.18-5l1.19-.75A3,3,0,0,1,73.89,38.83Z"/><path class="cls-1" d="M81.34,53.78a4.58,4.58,0,1,1-7.7,4.88,4.58,4.58,0,1,1,7.7-4.88Z"/><path class="cls-2" d="M82.78,52.87a3,3,0,0,1-.93,4.1l-1.18.76a3,3,0,1,1-3.18-5l1.18-.75A3,3,0,0,1,82.78,52.87Z"/><path class="cls-1" d="M90.23,67.81A4.58,4.58,0,1,1,83.69,66,4.82,4.82,0,0,1,90.23,67.81Z"/><path class="cls-2" d="M91.66,66.9a3,3,0,0,1-.92,4.1l-1.18.76a3,3,0,0,1-3.19-5L87.56,66A3,3,0,0,1,91.66,66.9Z"/><path class="cls-1" d="M99.11,81.85a4.58,4.58,0,1,1-6.53-1.79A4.81,4.81,0,0,1,99.11,81.85Z"/><path class="cls-2" d="M100.55,80.94a3,3,0,0,1-.92,4.1l-1.19.76a3,3,0,0,1-3.18-5L96.45,80A3,3,0,0,1,100.55,80.94Z"/></g></g></svg>