<svg xmlns="http://www.w3.org/2000/svg" viewBox="0 0 138.44 132.88"><defs><style>.cls-1{fill:#5a5b52;}.cls-2{fill:#f5f5f5;}.cls-3{fill:#ff5430;}.cls-4{fill:#c60000;}</style></defs><title>Asset 4</title><g id="Layer_2" data-name="Layer 2"><g id="Layer_1-2" data-name="Layer 1"><polygon class="cls-1" points="12.5 81.97 12.5 110.57 16.68 113.74 16.68 81.97 12.5 81.97"/><polygon points="20.86 81.97 16.68 81.97 16.68 113.74 20.86 110.57 20.86 81.97"/><polygon class="cls-1" points="42.65 101.12 42.65 129.71 46.83 132.88 46.83 101.12 42.65 101.12"/><polygon points="51.01 101.12 46.83 101.12 46.83 132.88 51.01 129.71 51.01 101.12"/><polygon class="cls-1" points="106.67 81.97 106.67 110.57 110.85 113.74 110.85 81.97 106.67 81.97"/><polygon points="115.03 81.97 110.85 81.97 110.85 113.74 115.03 110.57 115.03 81.97"/><path d="M22,49.46v7.75a6.2,6.2,0,0,1-6.2,6.2H6.2A6.2,6.2,0,0,0,0,69.6V80.71H54.63V49.46Z"/><polygon class="cls-1" points="0 72.19 29.18 92.59 29.18 101.12 0 80.71 0 72.19"/><polygon class="cls-2" points="50.68 92.59 29.18 92.59 0 72.19 21.5 72.19 50.68 92.59"/><polygon points="8.53 72.19 4.45 72.19 33.64 92.59 37.72 92.59 8.53 72.19"/><polygon points="21.54 73.64 13.24 73.63 15.1 74.93 23.39 74.93 21.54 73.64"/><polygon points="30.2 85.49 38.49 85.49 36.23 83.91 27.94 83.91 30.2 85.49"/><polygon points="25.17 81.97 33.46 81.97 31.2 80.39 22.91 80.39 25.17 81.97"/><polygon points="20.14 78.45 28.43 78.45 26.17 76.87 17.88 76.87 20.14 78.45"/><polygon class="cls-1" points="50.07 85.2 21.5 65.09 21.5 72.19 47.07 90.2 50.07 85.2"/><polygon class="cls-1" points="55.12 72.54 25.28 51.78 25.34 65.08 54.63 84.7 55.12 72.54"/><polygon points="129.77 57.98 138.44 57.98 106.67 49.46 21.95 49.46 25.28 51.78 106.67 51.78 129.77 57.98"/><polygon class="cls-3" points="25.28 51.78 51.14 69.86 83.81 69.86 106.67 57.98 106.67 51.78 25.28 51.78"/><polygon class="cls-4" points="106.67 51.78 106.67 57.98 129.77 57.98 106.67 51.78"/><polygon points="54.63 84.7 49.33 84.7 21.5 65.09 25.34 65.08 54.63 84.7"/><path class="cls-4" d="M106,20,116.36,0H78.46L40.38,48.31l-1.12,1.15H85.83c34.56-1.13,46.22-8.22,46.22-16.27C132.05,27.57,125.52,22.89,106,20Z"/><path class="cls-1" d="M81.07,24.05,91.13,75.46a1.54,1.54,0,0,0,1.78,1.22L82.26,22.25A1.53,1.53,0,0,0,81.07,24.05Z"/><path d="M94.17,74.87,84.11,23.46a1.56,1.56,0,0,0-1.82-1.23S92.91,76.68,92.91,76.68A1.55,1.55,0,0,0,94.17,74.87Z"/><polygon points="138.44 57.98 106.67 57.98 106.67 89.23 138.44 80.93 138.44 57.98"/><polygon class="cls-1" points="83.81 69.86 83.81 101.12 106.67 89.23 106.67 57.98 83.81 69.86"/><path class="cls-1" d="M38,86.13h9.56a6.19,6.19,0,0,0,6.2-6.19V72.19h30V69.86H51.14v7.75a6.21,6.21,0,0,1-6.2,6.2H35.38a6.21,6.21,0,0,0-6.2,6.2v11.11h2.65V92.33A6.2,6.2,0,0,1,38,86.13Z"/><path d="M83.81,72.19h-30v7.75a6.19,6.19,0,0,1-6.2,6.19H38a6.2,6.2,0,0,0-6.19,6.2v8.79h52Z"/><polygon points="60.02 69.86 51.14 69.86 25.28 51.78 34.16 51.78 60.02 69.86"/><polygon class="cls-1" points="59.14 54.27 42.23 42.39 37.71 54.27 54.63 66.16 59.14 54.27"/></g></g></svg>