<svg xmlns="http://www.w3.org/2000/svg" viewBox="0 0 132.93 131.67"><defs><style>.cls-1{fill:#5a5b52;}.cls-2{fill:#ff5430;}.cls-3{fill:#c60000;}.cls-4{fill:#fff;}.cls-5{fill:#b7b1a9;}</style></defs><title>Asset 1</title><g id="Layer_2" data-name="Layer 2"><g id="Layer_1-2" data-name="Layer 1"><rect class="cls-1" x="103.78" y="17.08" width="2.17" height="5.68" transform="translate(16.64 80) rotate(-45.01)"/><path d="M104.94,15.82l-2.49-2.49a3.67,3.67,0,0,0-4.17,4.18L100.77,20Z"/><rect class="cls-1" x="110.66" y="10.2" width="2.17" height="5.68" transform="translate(23.52 82.85) rotate(-45.01)"/><path d="M111.82,9l-2.49-2.5a3.67,3.67,0,0,0-4.18,4.18l2.49,2.49Z"/><rect class="cls-1" x="111.72" y="25.02" width="2.17" height="5.68" transform="translate(13.35 87.94) rotate(-45.01)"/><path d="M116.9,27.78l2.49,2.49a3.67,3.67,0,0,1-4.17,4.18l-2.5-2.5Z"/><rect class="cls-1" x="118.59" y="18.14" width="2.17" height="5.68" transform="translate(20.17 90.71) rotate(-44.96)"/><path d="M123.78,20.9l2.49,2.49a3.66,3.66,0,0,1-4.18,4.18l-2.49-2.49Z"/><path class="cls-2" d="M42.26,54.8s-.77,1-.74,1c5.64,4.91,1.73,15.18-6.88,20.49-7.51,4.64-14,2.77-16.82-2.92l-1.23.34c.52,3.05-4.24,6-5.68,7.22-13.27,10.78-12.44,29.2-.09,41.18L81.76,51.17C76,45.41,60,35.69,47.86,50.76,46.69,52.23,45.46,55.09,42.26,54.8Z"/><path class="cls-1" d="M40.21,81.3a2,2,0,0,0-1.63-2.15c-1.13-.37-4.17-.37-7.61,4-2.37,3-4.7,3.67-5.51,3.37a1,1,0,0,1-.62-1.14,2.78,2.78,0,0,1,1.27-1.66,1.43,1.43,0,0,0,1.12.18,1.32,1.32,0,0,0,1-1.55,1.3,1.3,0,0,0-1.63-.87,1.39,1.39,0,0,0-1,1,3,3,0,0,0-1.53,2.17,2.32,2.32,0,0,0,1.5,2.53,3.31,3.31,0,0,0,2,.05A10,10,0,0,0,32.09,84c3.38-3.61,5.8-4.15,6.77-4a.7.7,0,0,1,.65,1,3.66,3.66,0,0,1-.74,1,1.58,1.58,0,0,0-.65,0,1.25,1.25,0,1,0,1.63.88,1,1,0,0,0-.06-.18A2.91,2.91,0,0,0,40.21,81.3Z"/><path class="cls-3" d="M78.13,90.67s-1,.77-1,.74C72.22,85.77,62,89.68,56.64,98.28c-4.64,7.51-2.77,14,2.91,16.83l-.33,1.22c-3-.51-6,4.24-7.22,5.69-10.78,13.26-29.2,12.43-41.18.09L81.76,51.17c5.76,5.76,15.47,21.74.4,33.89C80.7,86.24,77.84,87.47,78.13,90.67Z"/><path d="M51.4,92.64a2,2,0,0,1,2.2,1.56c.41,1.12.5,4.16-3.76,7.74-2.92,2.45-3.52,4.8-3.2,5.6a1,1,0,0,0,1.16.58,2.76,2.76,0,0,0,1.63-1.31,1.41,1.41,0,0,1-.22-1.11,1.25,1.25,0,1,1,2.44.53,1.37,1.37,0,0,1-.93,1,2.93,2.93,0,0,1-2.13,1.6A2.31,2.31,0,0,1,46,107.45a3.25,3.25,0,0,1-.11-2,9.9,9.9,0,0,1,3-4.65c3.51-3.49,4-5.92,3.84-6.89a.71.71,0,0,0-1-.62,3.87,3.87,0,0,0-1,.77,1.43,1.43,0,0,1,0,.65,1.25,1.25,0,1,1-.92-1.61l.18.06A2.82,2.82,0,0,1,51.4,92.64Z"/><polygon class="cls-1" points="9.18 121.82 8.71 121.36 7.08 122.98 8.51 124.41 10.14 122.78 9.18 121.82"/><rect x="9.46" y="121.13" width="1.39" height="1.37" transform="translate(-83.16 42.85) rotate(-45)"/><polygon points="11.57 124.21 11.11 123.75 10.14 122.78 8.51 124.41 9.94 125.84 11.57 124.21"/><polygon points="11.11 123.75 12.09 122.77 11.12 121.8 10.14 122.78 11.11 123.75"/><rect x="35.2" y="98.61" width="1.17" height="7.1" transform="translate(-61.77 55.26) rotate(-45.02)"/><rect class="cls-1" x="30.18" y="93.59" width="1.17" height="7.1" transform="translate(-59.69 50.22) rotate(-45.01)"/><path class="cls-1" d="M23.88,99.93l-2.67,4.47-1.92,4.81L8.67,119.83c.68.78,1.39,1.54,2.15,2.28l21.49-21.5-5-5Zm6.64,1a.59.59,0,0,1-.83,0,.57.57,0,0,1,0-.82.59.59,0,0,1,.83,0A.57.57,0,0,1,30.52,100.9Zm-2.34-2.33a.59.59,0,0,1-.83,0,.6.6,0,0,1,0-.83.59.59,0,0,1,.83.83Z"/><path d="M13.1,124.25l10.62-10.62,4.81-1.91L33,109.05l4.33-3.42-5-5-21.49,21.5C11.55,122.87,12.32,123.58,13.1,124.25ZM32,102.41a.59.59,0,1,1,0,.83A.59.59,0,0,1,32,102.41Zm2.34,2.33a.58.58,0,0,1,.82,0,.58.58,0,1,1-.82.83A.59.59,0,0,1,34.36,104.74Z"/><path d="M10.62,94.88a12.82,12.82,0,0,0-8.81-3.73c-.24.61-.46,1.23-.66,1.85a11.38,11.38,0,0,1,6.19,3.2A12.14,12.14,0,0,1,7,113.37a13,13,0,0,1-2.63,2c.35.57.71,1.14,1.11,1.7a14.4,14.4,0,0,0,4.76-3.16C15.58,108.56,15.77,100,10.62,94.88Z"/><path class="cls-1" d="M35.7,87.65A1,1,0,0,0,34.34,89l4.79,4.79,1.35-1.36Z"/><path d="M45.27,98.59a1,1,0,0,0,0-1.36l-4.79-4.79L39.13,93.8l4.79,4.79A1,1,0,0,0,45.27,98.59Z"/><polygon class="cls-2" points="121.74 11.19 119.31 8.75 102.82 24.33 105.71 27.21 121.74 11.19"/><polygon class="cls-1" points="120.02 9.47 47.19 77.4 51.35 81.57 121.74 11.19 120.02 9.47"/><polygon class="cls-3" points="121.74 11.19 124.17 13.62 108.6 30.11 105.71 27.21 121.74 11.19"/><polygon points="123.47 12.9 55.53 85.74 51.36 81.57 121.75 11.18 123.47 12.9"/><path class="cls-4" d="M120.11,10.28,28,97.58c-.21.2-.3.45-.2.55s.34,0,.56-.17l91.93-87.51.36-.34-.19-.19C120.3,10.09,120.15,10.23,120.11,10.28Z"/><path class="cls-4" d="M120.92,11.11,30.34,99.92c-.2.2-.29.45-.19.55s.35,0,.56-.18l90.43-89,.37-.38-.21-.2Z"/><path class="cls-5" d="M122.47,12.67,35,104.59c-.19.21-.27.46-.16.56s.34,0,.54-.2l87.29-92.1.36-.39-.19-.18Z"/><path class="cls-5" d="M121.68,11.82l-89,90.44c-.2.2-.28.45-.18.55s.35,0,.55-.19L121.88,12l.35-.37-.2-.2Z"/><rect x="129.47" y="12.8" width="1.7" height="1.58" transform="translate(28.6 96.18) rotate(-45.03)"/><polygon class="cls-3" points="129.24 11.32 126.85 13.71 127.97 14.83 129.16 13.63 130.36 12.43 129.24 11.32"/><rect x="118.49" y="1.82" width="1.69" height="1.58" transform="translate(33.16 85.2) rotate(-45.04)"/><polygon class="cls-3" points="120.5 2.57 119.3 3.77 118.1 4.96 119.21 6.08 121.61 3.69 120.5 2.57"/><polygon points="121.61 3.69 119.21 6.08 117.92 7.37 120.04 9.48 123.72 5.8 121.61 3.69"/><polygon points="127.13 9.21 123.44 12.89 125.56 15 126.85 13.71 129.24 11.32 127.13 9.21"/><polygon class="cls-3" points="120.04 9.48 121.74 11.19 123.44 12.89 127.13 9.21 125.43 7.5 123.72 5.8 120.04 9.48"/><rect class="cls-1" x="130.67" y="11.6" width="1.69" height="1.58" transform="translate(29.74 96.6) rotate(-44.99)"/><polygon class="cls-2" points="130.36 12.43 131.56 11.23 132.76 10.04 131.64 8.92 129.24 11.32 130.36 12.43"/><rect class="cls-1" x="119.69" y="0.62" width="1.69" height="1.58" transform="translate(34.42 85.76) rotate(-45.07)"/><polygon class="cls-2" points="121.61 3.69 124.01 1.29 122.89 0.17 121.69 1.37 120.5 2.57 121.61 3.69"/><polygon class="cls-1" points="123.72 5.8 127.41 2.11 125.3 0 124.01 1.29 121.61 3.69 123.72 5.8"/><polygon class="cls-1" points="129.24 11.32 131.64 8.92 132.93 7.63 130.82 5.52 127.13 9.21 129.24 11.32"/><polygon class="cls-2" points="123.72 5.8 125.43 7.5 127.13 9.21 130.82 5.52 129.11 3.82 127.41 2.11 123.72 5.8"/><path class="cls-1" d="M6.74,95.64A11.45,11.45,0,0,0,1.15,93a27.23,27.23,0,0,0,3.18,22.4,13,13,0,0,0,2.63-2,12.87,12.87,0,0,0,1.44-1.72,8.6,8.6,0,0,1-.64-.58C3.79,107.1,3.53,100.7,6.74,95.64Z"/><path class="cls-5" d="M7.34,96.2a8,8,0,0,0-.6-.56c-3.21,5.06-2.95,11.46,1,15.43a8.6,8.6,0,0,0,.64.58A12,12,0,0,0,7.34,96.2Z"/><polygon class="cls-5" points="20.14 109.94 9.41 120.66 9.85 121.14 20.6 110.39 30.42 98.72 29.31 97.61 20.14 109.94"/><polygon class="cls-5" points="9.63 122.28 8.01 123.91 7.55 123.44 9.18 121.82 9.63 122.28"/><rect class="cls-4" x="30.24" y="96.42" width="1.17" height="1.56" transform="translate(-59.73 50.32) rotate(-45.03)"/></g></g></svg>