<svg xmlns="http://www.w3.org/2000/svg" viewBox="0 0 131.8 131.8"><defs><style>.cls-1{fill:#5a5b52;}.cls-2{fill:#ffe217;}.cls-3{fill:#eac311;}.cls-4{fill:#b48205;}.cls-5{fill:#fff;}.cls-6{fill:#b7b1a9;}</style></defs><title>Asset 10</title><g id="Layer_2" data-name="Layer 2"><g id="Layer_1-2" data-name="Layer 1"><path class="cls-1" d="M43.74,74.08a9.89,9.89,0,0,0,0,14l14-14A9.89,9.89,0,0,0,43.74,74.08Z"/><path class="cls-2" d="M38.63,63.14C33,74.05,16.62,68,6.7,79.35c-13.2,15.14-1.09,31.12,6.76,39L41.27,90.53A13.39,13.39,0,0,1,60.2,71.6L77.13,54.67C69.11,46.64,53.19,35,38.63,63.14Z"/><path class="cls-1" d="M43.74,74.08a9.89,9.89,0,0,0,0,14l14-14A9.89,9.89,0,0,0,43.74,74.08Z"/><path class="cls-3" d="M41.27,71.6a13.38,13.38,0,0,0,0,18.93l2.47-2.48a9.88,9.88,0,0,1,14-14L60.2,71.6A13.4,13.4,0,0,0,41.27,71.6Z"/><path class="cls-1" d="M57.72,88.05a9.89,9.89,0,0,1-14,0l14-14A9.87,9.87,0,0,1,57.72,88.05Z"/><path class="cls-3" d="M68.66,93.16c-10.91,5.64-4.83,22-16.21,31.94-15.14,13.2-31.12,1.09-39-6.76L41.27,90.53A13.39,13.39,0,0,0,60.2,71.6L77.13,54.67C85.15,62.69,96.8,78.61,68.66,93.16Z"/><path d="M57.72,88.05a9.89,9.89,0,0,1-14,0l14-14A9.87,9.87,0,0,1,57.72,88.05Z"/><path class="cls-4" d="M60.2,90.53a13.4,13.4,0,0,1-18.93,0l2.47-2.48a9.88,9.88,0,1,0,14-14L60.2,71.6A13.4,13.4,0,0,1,60.2,90.53Z"/><path d="M26.65,105.79A10.59,10.59,0,0,0,34,109.16l4.75,4.75,1.64-4.5L38,107,31.4,100.4l-3.07,3.08-2,2Z"/><path class="cls-1" d="M26,105.14a10.55,10.55,0,0,1-3.37-7.35L17.89,93l4.5-1.64,2.38,2.38,6.63,6.62-3.07,3.08-2,2Z"/><path class="cls-3" d="M7.32,79.89c.3-.34.61-.67.92-1,4.6-4.6,10.4-5.82,16-7,4.94-1,9.6-2,12.86-5.28a12.29,12.29,0,0,0,2.26-3.12A47.74,47.74,0,0,1,47.49,51.8c8.62-8.62,18.13-7.49,29.06,3.45l1.16-1.17C66.16,42.53,55.6,41.36,46.33,50.63A49.17,49.17,0,0,0,37.9,62.76a10.66,10.66,0,0,1-2,2.72c-2.91,2.91-7.34,3.84-12,4.82C18.33,71.47,12,72.8,7.08,77.74c-.34.34-.68.7-1,1.07-13.48,15.46-1.52,31.76,6.8,40.11l1.17-1.17C6.12,109.82-5.28,94.35,7.32,79.89Z"/><path class="cls-4" d="M53,125.72c.37-.33.73-.66,1.07-1,4.94-5,6.27-11.26,7.43-16.83,1-4.68,1.92-9.11,4.83-12a10.54,10.54,0,0,1,2.71-2,49,49,0,0,0,12.13-8.43c5.5-5.49,7.32-11.54,5.42-18-1.27-4.34-4.17-8.72-8.87-13.42l-1.16,1.17C81,59.74,83.81,63.9,85,68c1.72,5.81,0,11.31-5,16.34a47.21,47.21,0,0,1-11.72,8.13,12.56,12.56,0,0,0-3.13,2.27c-3.25,3.26-4.23,7.92-5.27,12.86-1.17,5.6-2.39,11.4-7,16-.31.31-.65.62-1,.92-14.46,12.6-29.93,1.19-37.86-6.73l-1.17,1.17C21.22,127.24,37.53,139.2,53,125.72Z"/><path class="cls-5" d="M25.18,95.69a.55.55,0,0,0-.78.78l5.47,5.46.77-.78Z"/><path class="cls-6" d="M36.1,107.39a.53.53,0,0,0,0-.77l-5.46-5.47-.77.78,5.46,5.46A.53.53,0,0,0,36.1,107.39Z"/><path class="cls-6" d="M32.92,106.49a.59.59,0,0,1,0,.82.58.58,0,1,1-.82-.82A.59.59,0,0,1,32.92,106.49Z"/><path class="cls-6" d="M31.4,105a.59.59,0,0,1,0,.82.59.59,0,0,1-.83,0,.59.59,0,0,1,0-.82A.59.59,0,0,1,31.4,105Z"/><path class="cls-6" d="M29.87,103.45a.57.57,0,0,1,0,.82.58.58,0,0,1-.82-.82A.57.57,0,0,1,29.87,103.45Z"/><path class="cls-5" d="M28.35,101.93a.57.57,0,0,1,0,.82.59.59,0,0,1-.82,0,.58.58,0,0,1,.82-.82Z"/><path class="cls-5" d="M26.83,100.4a.59.59,0,0,1,0,.82.58.58,0,0,1-.82-.82A.59.59,0,0,1,26.83,100.4Z"/><path class="cls-5" d="M25.3,98.88a.58.58,0,0,1-.82.82.59.59,0,0,1,0-.82A.57.57,0,0,1,25.3,98.88Z"/><path d="M55.73,70.64,25.36,99.24c-.23.21-.49.29-.6.18s0-.37.22-.58l30.38-28.6c.22-.21.48-.29.59-.18S56,70.43,55.73,70.64Z"/><path d="M56.85,71.77l-30,29c-.22.22-.49.3-.59.19s0-.37.21-.58l30-29c.22-.21.48-.3.59-.19S57.07,71.55,56.85,71.77Z"/><path d="M58,72.91,28.4,102.27c-.22.21-.48.3-.59.2s0-.37.2-.59L57.62,72.52c.22-.21.48-.3.59-.2S58.23,72.7,58,72.91Z"/><path class="cls-1" d="M32.38,107c-.11-.1,0-.37.18-.59L61.15,76.07c.22-.23.48-.32.59-.22s0,.37-.18.59L33,106.82C32.75,107,32.49,107.14,32.38,107Z"/><path class="cls-1" d="M30.86,105.51c-.11-.11,0-.37.19-.59L60.06,75c.21-.22.47-.31.58-.2s0,.36-.19.59l-29,29.94C31.23,105.52,31,105.62,30.86,105.51Z"/><path class="cls-1" d="M29.34,104c-.12-.11,0-.37.19-.59L58.85,73.76c.22-.22.48-.31.59-.2s0,.36-.19.58L29.92,103.79C29.7,104,29.44,104.1,29.34,104Z"/><polygon class="cls-6" points="128.64 15.07 129.5 14.21 126.24 10.95 125.38 11.81 128.64 15.07"/><rect class="cls-6" x="121.53" y="14.39" width="1.22" height="4.61" transform="translate(23.91 91.18) rotate(-44.95)"/><rect class="cls-6" x="117.85" y="19.69" width="1.22" height="4.61" transform="translate(19.13 90.18) rotate(-44.99)"/><polygon class="cls-1" points="108.6 17.62 54.04 68.92 58.45 73.35 111.39 20.4 108.6 17.62"/><polygon points="114.18 23.2 62.87 77.76 58.45 73.35 111.39 20.4 114.18 23.2"/><path class="cls-1" d="M112.18,9.31l-1.06-1.06a1.69,1.69,0,0,1,.23-2.35,1.68,1.68,0,0,1,2.35-.22l1.06,1.06Z"/><path class="cls-1" d="M106.89,13l-1.06-1.06a1.68,1.68,0,0,1,.22-2.35,1.69,1.69,0,0,1,2.35-.23l1.06,1.06Z"/><path class="cls-1" d="M115.87,4s-.48-.47-1.06-1.06A1.68,1.68,0,0,1,115,.61a1.69,1.69,0,0,1,2.35-.23l1.06,1.06Z"/><polygon class="cls-5" points="111.01 15.4 111.87 14.54 108.61 11.28 107.74 12.14 111.01 15.4"/><rect class="cls-5" x="114.49" y="7.35" width="1.22" height="4.61" transform="translate(26.88 84.21) rotate(-45)"/><rect class="cls-5" x="118.18" y="2.05" width="1.22" height="4.61" transform="translate(31.73 85.3) rotate(-45.02)"/><path class="cls-1" d="M120.9.12l-2.77,2.77c.27,1.4-.7,4.39-3,6.74s-5.34,3.32-6.75,3l-2.77,2.77,3.62,7.17,9.44-9.44,9.44-9.45Z"/><path class="cls-5" d="M112.78,15a.95.95,0,1,1-1.34,1.34.93.93,0,0,1,0-1.34A1,1,0,0,1,112.78,15Z"/><path class="cls-5" d="M117.27,10.48a.95.95,0,1,1-1.34,0A.95.95,0,0,1,117.27,10.48Z"/><path class="cls-5" d="M121.76,6a.95.95,0,1,1-1.34,0A.95.95,0,0,1,121.76,6Z"/><path d="M122.49,19.61l1.06,1.07a1.69,1.69,0,0,0,2.35-.23,1.68,1.68,0,0,0,.22-2.35L125.06,17Z"/><path d="M118.8,24.91,119.86,26a1.86,1.86,0,0,0,2.58-2.57l-1.07-1.06Z"/><path d="M127.78,15.93,128.85,17a1.68,1.68,0,0,0,2.34-.23,1.68,1.68,0,0,0,.23-2.34l-1.06-1.06Z"/><path d="M131.68,10.9l-2.77,2.77c-1.4-.27-4.39.69-6.74,3s-3.32,5.34-3.06,6.75l-2.76,2.77-7.17-3.62,9.44-9.44,9.44-9.45Z"/><path class="cls-6" d="M116.83,19a.95.95,0,1,0,0,1.34A.95.95,0,0,0,116.83,19Z"/><path class="cls-6" d="M121.32,14.53a.95.95,0,1,0,0,1.34A.95.95,0,0,0,121.32,14.53Z"/><path class="cls-6" d="M125.81,10a.95.95,0,1,0,0,1.34A.95.95,0,0,0,125.81,10Z"/><polygon class="cls-5" points="106.32 19.76 105.36 20.66 108.25 23.55 109.18 22.62 106.32 19.76"/><polygon class="cls-6" points="112.03 25.48 109.18 22.62 108.25 23.55 111.13 26.43 112.03 25.48"/><polygon class="cls-5" points="104.76 27.04 101.77 24.04 101.07 24.7 104.08 27.72 104.76 27.04"/><polygon class="cls-6" points="104.08 27.72 107.09 30.73 107.75 30.03 104.76 27.04 104.08 27.72"/><polygon class="cls-5" points="100.68 31.11 97.57 28 96.87 28.66 100 31.79 100.68 31.11"/><polygon class="cls-6" points="100 31.79 103.14 34.93 103.8 34.23 100.68 31.11 100 31.79"/><polygon class="cls-5" points="96.61 35.19 93.37 31.95 92.67 32.61 95.93 35.87 96.61 35.19"/><polygon class="cls-6" points="95.93 35.87 99.2 39.13 99.85 38.43 96.61 35.19 95.93 35.87"/><polygon class="cls-5" points="92.53 39.27 89.16 35.9 88.46 36.56 91.85 39.94 92.53 39.27"/><polygon class="cls-6" points="91.85 39.94 95.24 43.34 95.9 42.63 92.53 39.27 91.85 39.94"/><polygon class="cls-5" points="88.45 43.34 84.96 39.85 84.26 40.51 87.78 44.02 88.45 43.34"/><polygon class="cls-6" points="87.78 44.02 91.29 47.54 91.95 46.84 88.45 43.34 87.78 44.02"/><polygon class="cls-5" points="84.38 47.42 80.76 43.8 80.06 44.46 83.7 48.1 84.38 47.42"/><polygon class="cls-6" points="83.7 48.1 87.34 51.74 88 51.04 84.38 47.42 83.7 48.1"/><polygon class="cls-5" points="80.3 51.49 76.56 47.75 75.86 48.41 79.62 52.17 80.3 51.49"/><polygon class="cls-6" points="79.62 52.17 83.39 55.94 84.05 55.24 80.3 51.49 79.62 52.17"/><polygon class="cls-5" points="75.89 55.91 72.01 52.03 71.31 52.69 75.21 56.59 75.89 55.91"/><polygon class="cls-6" points="75.21 56.59 79.11 60.49 79.77 59.79 75.89 55.91 75.21 56.59"/><polygon class="cls-5" points="71.11 60.68 67.09 56.66 66.39 57.31 70.44 61.36 71.11 60.68"/><polygon class="cls-6" points="70.44 61.36 74.48 65.41 75.14 64.71 71.11 60.68 70.44 61.36"/><polygon class="cls-5" points="67.39 64.4 63.25 60.26 62.55 60.92 66.72 65.08 67.39 64.4"/><polygon class="cls-6" points="66.72 65.08 70.88 69.25 71.54 68.55 67.39 64.4 66.72 65.08"/><polygon class="cls-5" points="64.34 67.46 60.1 63.22 59.4 63.88 63.66 68.14 64.34 67.46"/><polygon class="cls-6" points="63.66 68.14 67.92 72.4 68.57 71.7 64.34 67.46 63.66 68.14"/><polygon class="cls-5" points="61.52 70.28 57.2 65.95 56.5 66.61 60.84 70.95 61.52 70.28"/><polygon class="cls-6" points="60.84 70.95 65.19 75.3 65.84 74.6 61.52 70.28 60.84 70.95"/></g></g></svg>