<svg xmlns="http://www.w3.org/2000/svg" viewBox="0 0 199.5 199.5"><defs><style>.cls-1{fill:#ffe217;}.cls-2{fill:#eac311;}.cls-3{fill:#5a5b52;}.cls-4{fill:#ff5430;}.cls-5{fill:#c60000;}.cls-6{fill:#fff;}.cls-7{fill:#b7b1a9;}</style></defs><title>Asset 4</title><g id="Layer_2" data-name="Layer 2"><g id="Layer_1-2" data-name="Layer 1"><rect class="cls-1" width="199.5" height="199.5"/><polygon class="cls-2" points="199.5 74.84 161.9 37.23 41.3 157.82 82.97 199.5 199.5 199.5 199.5 74.84"/><rect class="cls-3" x="137.07" y="51" width="2.17" height="5.68" transform="translate(2.4 113.47) rotate(-45.01)"/><path d="M138.23,49.74l-2.49-2.49a3.59,3.59,0,0,0-3.14,1,3.64,3.64,0,0,0-1,3.15l2.49,2.49Z"/><rect class="cls-3" x="143.94" y="44.12" width="2.17" height="5.68" transform="translate(9.28 116.32) rotate(-45.01)"/><path d="M145.11,42.86l-2.49-2.49a3.66,3.66,0,0,0-4.18,4.18L140.93,47Z"/><rect class="cls-3" x="145" y="58.94" width="2.17" height="5.68" transform="translate(-0.89 121.41) rotate(-45.01)"/><path d="M150.19,61.7l2.49,2.49a3.66,3.66,0,0,1-4.18,4.17L146,65.87Z"/><rect class="cls-3" x="151.88" y="52.06" width="2.17" height="5.68" transform="translate(5.94 124.15) rotate(-44.96)"/><path d="M157.07,54.82l2.49,2.49a3.67,3.67,0,0,1-4.18,4.18L152.89,59Z"/><path class="cls-4" d="M75.55,88.71s-.77,1-.74,1c5.64,4.9,1.72,15.17-6.88,20.49-7.51,4.64-14,2.77-16.82-2.92l-1.23.34c.51,3.05-4.24,6-5.68,7.22-13.27,10.77-12.44,29.2-.09,41.18l70.94-70.94c-5.77-5.76-21.75-15.48-33.9-.41C80,86.14,78.75,89,75.55,88.71Z"/><path class="cls-3" d="M73.49,115.22a2,2,0,0,0-1.62-2.15c-1.14-.37-4.17-.37-7.62,4-2.36,3-4.69,3.67-5.5,3.37a1,1,0,0,1-.62-1.14,2.78,2.78,0,0,1,1.27-1.66,1.43,1.43,0,0,0,1.12.17,1.25,1.25,0,1,0-.61-2.41,1.39,1.39,0,0,0-1,1,3,3,0,0,0-1.54,2.18,2.31,2.31,0,0,0,1.5,2.52,3.26,3.26,0,0,0,2,0,9.87,9.87,0,0,0,4.56-3.16c3.38-3.62,5.8-4.15,6.77-4.05a.72.72,0,0,1,.65,1,3.88,3.88,0,0,1-.74,1,1.43,1.43,0,0,0-.65,0,1.25,1.25,0,1,0,1.63.88.76.76,0,0,0-.06-.18A2.9,2.9,0,0,0,73.49,115.22Z"/><path class="cls-5" d="M111.42,124.59s-1,.77-1,.74c-4.91-5.65-15.18-1.73-20.49,6.87-4.64,7.51-2.78,14,2.91,16.83l-.33,1.22c-3.05-.51-6.05,4.24-7.22,5.68-10.78,13.27-29.21,12.44-41.18.1l70.94-70.94c5.76,5.76,15.47,21.74.4,33.89C114,120.16,111.13,121.39,111.42,124.59Z"/><path d="M84.69,126.56a2,2,0,0,1,2.2,1.56c.41,1.12.5,4.16-3.76,7.74-2.92,2.45-3.52,4.8-3.2,5.6a1,1,0,0,0,1.16.58,2.79,2.79,0,0,0,1.63-1.31,1.42,1.42,0,0,1-.22-1.11,1.25,1.25,0,1,1,2.44.53,1.39,1.39,0,0,1-.93,1,3,3,0,0,1-2.13,1.59,2.3,2.3,0,0,1-2.56-1.41,3.23,3.23,0,0,1-.12-2,10,10,0,0,1,3-4.65c3.51-3.49,4-5.93,3.83-6.89a.72.72,0,0,0-1-.63,4,4,0,0,0-1,.78,1.42,1.42,0,0,1,0,.65,1.25,1.25,0,1,1-.93-1.61.76.76,0,0,1,.18.06A2.89,2.89,0,0,1,84.69,126.56Z"/><polygon class="cls-3" points="42.46 155.73 42 155.27 40.37 156.9 41.8 158.33 43.43 156.7 42.46 155.73"/><rect x="42.74" y="155.04" width="1.39" height="1.37" transform="translate(-97.39 76.33) rotate(-45)"/><polygon points="44.86 158.13 44.4 157.67 43.43 156.7 41.8 158.33 43.23 159.76 44.86 158.13"/><polygon points="44.4 157.67 45.38 156.69 44.41 155.72 43.43 156.7 44.4 157.67"/><rect x="68.49" y="132.53" width="1.17" height="7.1" transform="translate(-76.01 88.74) rotate(-45.02)"/><rect class="cls-3" x="63.47" y="127.51" width="1.17" height="7.1" transform="translate(-73.92 83.7) rotate(-45.01)"/><path class="cls-3" d="M57.16,133.85l-2.67,4.46-1.91,4.82L42,153.75c.67.78,1.39,1.54,2.15,2.28l21.49-21.5-5-5Zm6.65,1A.59.59,0,1,1,63,134a.59.59,0,0,1,.83,0A.59.59,0,0,1,63.81,134.82Zm-2.34-2.33a.59.59,0,1,1,0-.83A.59.59,0,0,1,61.47,132.49Z"/><path d="M46.38,158.17,57,147.55l4.82-1.91L66.29,143l4.33-3.42-5-5L44.11,156C44.84,156.78,45.6,157.5,46.38,158.17Zm18.93-21.84a.59.59,0,0,1,.83.83.6.6,0,0,1-.83,0A.59.59,0,0,1,65.31,136.33Zm2.34,2.33a.57.57,0,0,1,.82,0,.59.59,0,0,1,0,.83.57.57,0,0,1-.82,0A.59.59,0,0,1,67.65,138.66Z"/><path d="M43.91,128.8a12.75,12.75,0,0,0-8.81-3.73c-.25.61-.46,1.22-.66,1.85a11.44,11.44,0,0,1,6.19,3.19,12.16,12.16,0,0,1-.38,17.18,13.17,13.17,0,0,1-2.63,2c.35.58.71,1.14,1.1,1.7a14.26,14.26,0,0,0,4.77-3.15C48.87,142.48,49.06,134,43.91,128.8Z"/><path class="cls-3" d="M69,121.57a1,1,0,0,0-1.35,0,.94.94,0,0,0,0,1.35l4.79,4.79,1.35-1.35Z"/><path d="M78.56,132.51a1,1,0,0,0,0-1.36l-4.79-4.79-1.35,1.35,4.79,4.79A1,1,0,0,0,78.56,132.51Z"/><polygon class="cls-4" points="155.03 45.1 152.59 42.67 136.11 58.25 139 61.13 155.03 45.1"/><polygon class="cls-3" points="153.31 43.38 80.48 111.32 84.64 115.49 155.03 45.1 153.31 43.38"/><polygon class="cls-5" points="155.03 45.1 157.46 47.54 141.89 64.02 139 61.13 155.03 45.1"/><polygon points="156.75 46.82 88.82 119.66 84.65 115.48 155.03 45.1 156.75 46.82"/><path class="cls-6" d="M153.4,44.2,61.3,131.5c-.2.2-.29.44-.19.55s.34,0,.55-.17L153.6,44.37,154,44l-.19-.18A4.41,4.41,0,0,0,153.4,44.2Z"/><path class="cls-6" d="M154.21,45,63.63,133.84c-.2.2-.29.44-.19.55s.35,0,.55-.18l90.43-89,.38-.38-.21-.21Z"/><path class="cls-7" d="M155.76,46.59,68.29,138.51c-.19.21-.27.46-.17.56s.35,0,.55-.2L156,46.77l.36-.39-.19-.19Z"/><path class="cls-7" d="M155,45.74,66,136.17c-.21.21-.29.46-.18.56s.35,0,.55-.19L155.17,46l.35-.37-.2-.21Z"/><rect x="162.76" y="46.72" width="1.7" height="1.58" transform="translate(14.36 129.67) rotate(-45.03)"/><polygon class="cls-5" points="162.53 45.23 160.13 47.63 161.25 48.75 162.45 47.55 163.65 46.35 162.53 45.23"/><rect x="151.78" y="35.74" width="1.69" height="1.58" transform="translate(18.93 118.7) rotate(-45.04)"/><polygon class="cls-5" points="153.78 36.49 152.58 37.68 151.39 38.88 152.5 40 154.9 37.6 153.78 36.49"/><polygon points="154.9 37.6 152.5 40 151.21 41.29 153.32 43.4 157.01 39.71 154.9 37.6"/><polygon points="160.42 43.12 156.73 46.81 158.84 48.92 160.13 47.63 162.53 45.23 160.42 43.12"/><polygon class="cls-5" points="153.32 43.4 155.03 45.1 156.73 46.81 160.42 43.12 158.72 41.42 157.01 39.71 153.32 43.4"/><rect class="cls-3" x="163.96" y="45.52" width="1.69" height="1.58" transform="translate(15.5 130.06) rotate(-44.99)"/><polygon class="cls-4" points="163.65 46.35 164.84 45.15 166.04 43.96 164.93 42.84 162.53 45.23 163.65 46.35"/><rect class="cls-3" x="152.98" y="34.54" width="1.69" height="1.58" transform="translate(20.18 119.29) rotate(-45.07)"/><polygon class="cls-4" points="154.9 37.6 157.29 35.21 156.18 34.09 154.98 35.29 153.78 36.49 154.9 37.6"/><polygon class="cls-3" points="157.01 39.71 160.7 36.03 158.58 33.92 157.29 35.21 154.9 37.6 157.01 39.71"/><polygon class="cls-3" points="162.53 45.23 164.93 42.84 166.22 41.55 164.1 39.44 160.42 43.12 162.53 45.23"/><polygon class="cls-4" points="157.01 39.71 158.72 41.42 160.42 43.12 164.1 39.44 162.4 37.73 160.7 36.03 157.01 39.71"/><path class="cls-3" d="M40,129.56a11.45,11.45,0,0,0-5.59-2.64,27.17,27.17,0,0,0,3.18,22.39,13.17,13.17,0,0,0,2.63-2,13.67,13.67,0,0,0,1.44-1.72c-.22-.18-.44-.38-.64-.58C37.08,141,36.81,134.62,40,129.56Z"/><path class="cls-7" d="M40.63,130.11c-.19-.19-.39-.37-.6-.55-3.22,5.06-3,11.46,1,15.43.2.2.42.4.64.58A12,12,0,0,0,40.63,130.11Z"/><polygon class="cls-7" points="53.42 143.85 42.7 154.58 43.13 155.06 53.89 144.31 63.71 132.63 62.6 131.53 53.42 143.85"/><polygon class="cls-7" points="42.92 156.2 41.3 157.82 40.83 157.36 42.46 155.73 42.92 156.2"/><rect class="cls-6" x="63.52" y="130.34" width="1.17" height="1.56" transform="translate(-73.97 83.82) rotate(-45.03)"/></g></g></svg>