<svg xmlns="http://www.w3.org/2000/svg" viewBox="0 0 126.81 127.38"><defs><style>.cls-1{fill:#eac311;}.cls-2{fill:#ffe217;}.cls-3{fill:#b48205;}.cls-4{fill:#f5f5f5;}.cls-5{fill:#fff;}</style></defs><title>Asset 3</title><g id="Layer_2" data-name="Layer 2"><g id="Layer_1-2" data-name="Layer 1"><rect class="cls-1" x="36.36" y="74.02" width="1.51" height="6.74" transform="translate(-43.82 48.82) rotate(-44.94)"/><rect class="cls-2" x="33.03" y="72.74" width="1.51" height="2.66" transform="translate(-42.51 45.67) rotate(-45.07)"/><rect class="cls-2" x="30.83" y="74.94" width="1.51" height="2.66" transform="translate(-44.65 44.6) rotate(-44.95)"/><polygon class="cls-2" points="36.76 82.51 45.47 91.22 47.35 93.1 63.66 109.4 64.72 108.34 48.42 92.03 46.54 90.16 37.83 81.44 36.76 82.51"/><polygon class="cls-2" points="38.96 80.31 47.67 89.02 49.55 90.9 65.86 107.2 66.92 106.14 50.62 89.83 48.74 87.95 40.03 79.24 38.96 80.31"/><polygon class="cls-3" points="40.03 79.24 41.16 78.1 39.49 76.44 36.39 73.33 35.26 74.47 40.03 79.24"/><polygon class="cls-1" points="40.03 79.24 48.74 87.95 50.62 89.83 66.92 106.14 68.06 105 51.76 88.7 49.87 86.82 41.16 78.1 40.03 79.24"/><polygon class="cls-1" points="42.3 76.97 51.01 85.68 52.9 87.56 69.2 103.86 70.19 102.87 53.88 86.57 52 84.69 43.29 75.98 42.3 76.97"/><polygon class="cls-3" points="41.16 78.1 49.87 86.82 51.76 88.7 68.06 105 69.2 103.86 52.9 87.56 51.01 85.68 42.3 76.97 41.16 78.1"/><polygon class="cls-1" points="34.12 75.61 38.89 80.38 38.96 80.31 34.19 75.54 34.12 75.61"/><polygon class="cls-4" points="34.19 75.54 32.31 73.66 31.18 74.79 33.05 76.67 34.12 75.61 34.19 75.54"/><polygon class="cls-4" points="38.89 80.38 37.83 81.44 46.54 90.16 48.42 92.03 64.72 108.34 65.86 107.2 49.55 90.9 47.67 89.02 38.96 80.31 38.89 80.38"/><rect class="cls-1" x="34.09" y="71.66" width="1.53" height="2.66" transform="translate(-41.43 46.12) rotate(-45.07)"/><rect class="cls-1" x="36.28" y="69.48" width="1.53" height="2.66" transform="translate(-39.24 47) rotate(-45.05)"/><path class="cls-3" d="M34.46,71.51l1.88,1.88,1.1-1.1-1.88-1.88Z"/><rect class="cls-1" x="45.31" y="65.06" width="1.5" height="6.74" transform="translate(-34.9 52.64) rotate(-45.01)"/><rect class="cls-2" x="41.99" y="63.78" width="1.5" height="2.66" transform="translate(-33.53 49.35) rotate(-45.04)"/><rect class="cls-2" x="39.79" y="65.98" width="1.5" height="2.66" transform="translate(-35.72 48.35) rotate(-44.98)"/><polygon class="cls-2" points="45.72 73.55 54.43 82.27 56.31 84.14 72.61 100.45 73.67 99.38 57.37 83.08 55.49 81.2 46.78 72.49 45.72 73.55"/><polygon class="cls-2" points="47.92 71.35 56.63 80.06 58.51 81.94 74.81 98.24 75.88 97.18 59.57 80.88 57.69 79 48.98 70.29 47.92 71.35"/><polygon class="cls-3" points="48.98 70.29 50.12 69.15 48.45 67.48 45.35 64.38 44.21 65.52 48.98 70.29"/><polygon class="cls-1" points="48.98 70.29 57.69 79 59.57 80.88 75.88 97.18 77.01 96.04 60.71 79.74 58.83 77.86 50.12 69.15 48.98 70.29"/><polygon class="cls-1" points="51.26 68.01 59.97 76.72 61.85 78.61 78.15 94.91 79.14 93.92 62.84 77.61 60.96 75.73 52.24 67.02 51.26 68.01"/><polygon class="cls-3" points="50.12 69.15 58.83 77.86 60.71 79.74 77.01 96.04 78.15 94.91 61.85 78.61 59.97 76.72 51.26 68.01 50.12 69.15"/><polygon class="cls-1" points="43.07 66.66 47.84 71.42 47.92 71.35 43.15 66.58 43.07 66.66"/><polygon class="cls-4" points="43.15 66.58 41.27 64.7 40.13 65.84 42.01 67.72 43.07 66.66 43.15 66.58"/><polygon class="cls-4" points="47.84 71.42 46.78 72.49 55.49 81.2 57.37 83.08 73.67 99.38 74.81 98.24 58.51 81.94 56.63 80.06 47.92 71.35 47.84 71.42"/><rect class="cls-1" x="43.05" y="62.71" width="1.53" height="2.66" transform="translate(-32.46 49.79) rotate(-45.04)"/><rect class="cls-1" x="45.23" y="60.52" width="1.53" height="2.66" transform="translate(-30.28 50.76) rotate(-45.09)"/><path class="cls-3" d="M43.41,62.56l1.88,1.88,1.1-1.1-1.88-1.88Z"/><polygon class="cls-1" points="53.16 56.56 52.1 57.63 56.87 62.4 57.93 61.33 53.16 56.56"/><rect class="cls-2" x="50.94" y="54.83" width="1.5" height="2.66" transform="translate(-24.57 53.02) rotate(-45.02)"/><rect class="cls-2" x="48.74" y="57.03" width="1.51" height="2.66" transform="translate(-26.76 52) rotate(-44.93)"/><polygon class="cls-2" points="54.67 64.6 63.38 73.31 65.26 75.19 81.56 91.5 82.63 90.43 66.33 74.13 64.45 72.25 55.73 63.54 54.67 64.6"/><polygon class="cls-2" points="56.87 62.4 65.58 71.11 67.46 72.99 83.77 89.29 84.83 88.22 68.53 71.93 66.65 70.04 57.93 61.33 56.87 62.4"/><polygon class="cls-3" points="57.93 61.33 59.07 60.2 57.4 58.52 54.3 55.42 53.16 56.56 57.93 61.33"/><polygon class="cls-1" points="57.93 61.33 66.65 70.04 68.53 71.93 84.83 88.22 85.97 87.09 69.67 70.79 67.78 68.91 59.07 60.2 57.93 61.33"/><polygon class="cls-1" points="60.21 59.06 68.92 67.77 70.8 69.65 87.11 85.95 88.1 84.96 71.79 68.66 69.91 66.78 61.2 58.07 60.21 59.06"/><polygon class="cls-3" points="59.07 60.2 67.78 68.91 69.67 70.79 85.97 87.09 87.11 85.95 70.8 69.65 68.92 67.77 60.21 59.06 59.07 60.2"/><polygon class="cls-1" points="52.03 57.7 56.8 62.47 56.87 62.4 52.1 57.63 52.03 57.7"/><polygon class="cls-4" points="52.1 57.63 50.22 55.75 49.09 56.88 50.96 58.77 52.03 57.7 52.1 57.63"/><polygon class="cls-4" points="56.8 62.47 55.73 63.54 64.45 72.25 66.33 74.13 82.63 90.43 83.77 89.29 67.46 72.99 65.58 71.11 56.87 62.4 56.8 62.47"/><rect class="cls-1" x="52" y="53.75" width="1.53" height="2.66" transform="translate(-23.5 53.47) rotate(-45.02)"/><rect class="cls-1" x="54.18" y="51.57" width="1.53" height="2.66" transform="translate(-21.31 54.23) rotate(-44.91)"/><path class="cls-3" d="M52.37,53.6l1.88,1.88,1.1-1.1L53.47,52.5Z"/><polygon class="cls-2" points="109.65 13.9 113.21 17.46 125.33 29.58 126.81 28.1 98.71 0 97.23 1.48 109.65 13.9"/><polygon class="cls-2" points="27.84 95.7 7.04 116.51 10.6 120.07 15.99 114.68 23.54 107.13 31.4 99.26 54.13 76.53 50.57 72.97 27.84 95.7"/><path class="cls-1" d="M85.29,46l-.55-.05a14.79,14.79,0,0,0-11.43,4.3l-.84.84L50.57,73,37.66,93,76.87,53.8a9.83,9.83,0,0,1,13.9,13.9L68,90.44,45.31,113.17A9.84,9.84,0,0,1,31.4,99.26l-7.86,7.87a14.84,14.84,0,0,0,25.33,9.6L71.6,94,94.34,71.26a14.83,14.83,0,0,0-9-25.27Z"/><path class="cls-1" d="M99.65,8.15a9.29,9.29,0,0,1,.74.65c5.33,5.33,1.89,17.89-7.57,31.19,14.54-10.77,27.58-15.34,32.51-10.41L113.21,17.46l-3.56-3.56L97.23,1.48A9.14,9.14,0,0,1,99.65,8.15Z"/><path class="cls-3" d="M.55,118l8.8,8.81a1.9,1.9,0,0,0,0-2.68L3.22,118A1.88,1.88,0,0,0,.55,118Z"/><path class="cls-3" d="M3.22,115.36l8.8,8.8a1.88,1.88,0,0,0,0-2.67l-1.42-1.42L7,116.51l-1.15-1.15A1.88,1.88,0,0,0,3.22,115.36Z"/><path class="cls-3" d="M31,114a11.28,11.28,0,0,1-2.57-11.73l-3.31,3.31a13.66,13.66,0,0,0,4.14,9.76,12.05,12.05,0,0,0,16.86,0,11.56,11.56,0,0,0,1.76-2.29c-.21.24-.42.48-.65.71A11.48,11.48,0,0,1,31,114Z"/><path class="cls-2" d="M92.15,52.93a11.26,11.26,0,0,0-11.72-2.57c3.71-3.19,9.48-2.42,13.07.84,4.87,4.41,4.51,12.32,0,16.85a11,11,0,0,1-2.29,1.76c.24-.21.49-.42.72-.65A11.48,11.48,0,0,0,92.15,52.93Z"/><polygon class="cls-4" points="33.41 90.14 8.82 118.29 7.04 116.51 33.41 90.14"/><path class="cls-2" d="M8.8,127.21a1.84,1.84,0,0,0,.55-.37L.55,118a1.7,1.7,0,0,0-.38.55Z"/><path class="cls-2" d="M.55,120.7l6.13,6.14a1.86,1.86,0,0,0,1.47.53L0,119.23A1.88,1.88,0,0,0,.55,120.7Z"/><path class="cls-2" d="M3.22,118l6.13,6.13a1.85,1.85,0,0,0,1.47.54l-8.14-8.14A1.88,1.88,0,0,0,3.22,118Z"/><path class="cls-2" d="M3.22,115.36a1.7,1.7,0,0,0-.38.55l8.63,8.63a1.7,1.7,0,0,0,.55-.38Z"/><path class="cls-4" d="M0,119.23l8.15,8.14a1.68,1.68,0,0,0,.65-.16L.17,118.58A1.9,1.9,0,0,0,0,119.23Z"/><path class="cls-4" d="M2.68,116.56l8.14,8.14a1.88,1.88,0,0,0,.65-.16l-8.63-8.63A1.68,1.68,0,0,0,2.68,116.56Z"/><path class="cls-2" d="M100.39,8.8a9.29,9.29,0,0,0-.74-.65c0,3.7-1.43,8.39-4.3,13.86a52.1,52.1,0,0,1-8.66,16.64,63,63,0,0,1-7,7.85,14.81,14.81,0,0,1,5-.56l.55.05c2.53-2.17,5-4.18,7.53-6C102.28,26.69,105.72,14.13,100.39,8.8Z"/><path class="cls-5" d="M86.69,38.65A52.1,52.1,0,0,0,95.35,22c-4.29,8.13-11.83,18-22.88,29.07l.84-.84A14.61,14.61,0,0,1,79.7,46.5,63,63,0,0,0,86.69,38.65Z"/></g></g></svg>