<svg xmlns="http://www.w3.org/2000/svg" viewBox="0 0 199.5 199.5"><defs><style>.cls-1{fill:#a9deff;}.cls-2{fill:#5bc6ff;}.cls-3{fill:#5a5b52;}.cls-4{fill:#f5f5f5;}.cls-5{fill:#ff5430;}.cls-6{fill:#c60000;}</style></defs><title>Asset 1</title><g id="Layer_2" data-name="Layer 2"><g id="Layer_1-2" data-name="Layer 1"><rect class="cls-1" width="199.5" height="199.5"/><polygon class="cls-2" points="199.5 85.92 146.89 33.31 58.4 104.09 43.03 143.88 98.66 199.5 199.5 199.5 199.5 85.92"/><polygon class="cls-3" points="43.03 115.28 43.03 143.88 47.22 147.05 47.22 115.28 43.03 115.28"/><polygon points="51.4 115.28 47.22 115.28 47.22 147.05 51.4 143.88 51.4 115.28"/><polygon class="cls-3" points="73.18 134.43 73.18 163.02 77.36 166.19 77.36 134.43 73.18 134.43"/><polygon points="81.54 134.43 77.36 134.43 77.36 166.19 81.54 163.02 81.54 134.43"/><polygon class="cls-3" points="137.2 115.28 137.2 143.88 141.38 147.05 141.38 115.28 137.2 115.28"/><polygon points="145.56 115.28 141.38 115.28 141.38 147.05 145.56 143.88 145.56 115.28"/><path d="M52.48,82.77v7.75a6.2,6.2,0,0,1-6.19,6.2H36.73a6.2,6.2,0,0,0-6.2,6.19V114H85.16V82.77Z"/><polygon class="cls-3" points="30.53 105.5 59.72 125.9 59.72 134.43 30.53 114.02 30.53 105.5"/><polygon class="cls-4" points="81.22 125.9 59.72 125.9 30.53 105.5 52.03 105.5 81.22 125.9"/><polygon points="39.06 105.5 34.99 105.5 64.17 125.9 68.25 125.9 39.06 105.5"/><polygon points="52.07 106.95 43.78 106.94 45.64 108.24 53.92 108.24 52.07 106.95"/><polygon points="60.73 118.8 69.02 118.8 66.77 117.22 58.48 117.22 60.73 118.8"/><polygon points="55.7 115.28 63.99 115.28 61.73 113.7 53.44 113.7 55.7 115.28"/><polygon points="50.67 111.76 58.96 111.76 56.7 110.18 48.41 110.18 50.67 111.76"/><polygon class="cls-3" points="80.61 118.51 52.03 98.4 52.03 105.5 77.6 123.51 80.61 118.51"/><polygon class="cls-3" points="85.66 105.85 55.81 85.09 55.88 98.39 85.16 118.01 85.66 105.85"/><polygon points="160.3 91.29 168.97 91.29 137.2 82.77 52.48 82.77 55.81 85.09 137.2 85.09 160.3 91.29"/><polygon class="cls-5" points="55.81 85.09 81.67 103.17 114.34 103.17 137.2 91.29 137.2 85.09 55.81 85.09"/><polygon class="cls-6" points="137.2 85.09 137.2 91.29 160.3 91.29 137.2 85.09"/><polygon points="85.16 118.01 79.86 118.01 52.03 98.4 55.88 98.39 85.16 118.01"/><path class="cls-6" d="M136.52,53.35l10.37-20H109L70.91,81.63l-1.12,1.14h46.57c34.56-1.13,46.22-8.22,46.22-16.27C162.58,60.88,156.05,56.2,136.52,53.35Z"/><path class="cls-3" d="M111.6,57.37l10.06,51.4a1.54,1.54,0,0,0,1.79,1.22L112.79,55.56A1.55,1.55,0,0,0,111.6,57.37Z"/><path d="M124.7,108.18,114.64,56.77a1.54,1.54,0,0,0-1.81-1.22S123.45,110,123.45,110A1.54,1.54,0,0,0,124.7,108.18Z"/><polygon points="168.97 91.29 137.2 91.29 137.2 122.54 168.97 114.24 168.97 91.29"/><polygon class="cls-3" points="114.34 103.17 114.34 134.43 137.2 122.54 137.2 91.29 114.34 103.17"/><path class="cls-3" d="M68.56,119.44h9.56a6.19,6.19,0,0,0,6.19-6.19V105.5h30v-2.33H81.67v7.75a6.19,6.19,0,0,1-6.2,6.2H65.92a6.2,6.2,0,0,0-6.2,6.2v11.11h2.64v-8.79A6.2,6.2,0,0,1,68.56,119.44Z"/><path d="M114.34,105.5h-30v7.75a6.19,6.19,0,0,1-6.19,6.19H68.56a6.2,6.2,0,0,0-6.2,6.2v8.79h52Z"/><polygon points="90.55 103.17 81.67 103.17 55.81 85.09 64.69 85.09 90.55 103.17"/><polygon class="cls-3" points="89.67 87.58 72.76 75.7 68.25 87.58 85.16 99.47 89.67 87.58"/></g></g></svg>