<svg xmlns="http://www.w3.org/2000/svg" viewBox="0 0 199.5 199.5"><defs><style>.cls-1{fill:#ff5430;}.cls-2{fill:#c60000;}.cls-3{fill:#5a5b52;}.cls-4{fill:#ffe217;}.cls-5{fill:#eac311;}.cls-6{fill:#b48205;}.cls-7{fill:#fff;}.cls-8{fill:#b7b1a9;}</style></defs><title>Asset 2</title><g id="Layer_2" data-name="Layer 2"><g id="Layer_1-2" data-name="Layer 1"><rect class="cls-1" width="199.5" height="199.5"/><polygon class="cls-2" points="199.5 74.92 162.04 37.46 46.74 152.77 93.47 199.5 199.5 199.5 199.5 74.92"/><path class="cls-3" d="M77.6,107.93a9.87,9.87,0,0,0,0,14l14-14A9.89,9.89,0,0,0,77.6,107.93Z"/><path class="cls-4" d="M72.49,97c-5.64,10.9-22,4.82-31.93,16.2-13.2,15.15-1.1,31.12,6.76,39l27.8-27.81a13.38,13.38,0,0,1,18.93-18.92L111,88.52C103,80.5,87,68.85,72.49,97Z"/><path class="cls-3" d="M77.6,107.93a9.87,9.87,0,0,0,0,14l14-14A9.89,9.89,0,0,0,77.6,107.93Z"/><path class="cls-5" d="M75.12,105.46a13.39,13.39,0,0,0,0,18.92l2.48-2.48a9.88,9.88,0,0,1,14-14l2.47-2.47A13.38,13.38,0,0,0,75.12,105.46Z"/><path class="cls-3" d="M91.58,121.9a9.87,9.87,0,0,1-14,0l14-14A9.89,9.89,0,0,1,91.58,121.9Z"/><path class="cls-5" d="M102.51,127C91.6,132.66,97.68,149,86.3,159c-15.14,13.2-31.11,1.09-39-6.76l27.8-27.81a13.38,13.38,0,1,0,18.93-18.92L111,88.52C119,96.54,130.65,112.46,102.51,127Z"/><path d="M91.58,121.9a9.87,9.87,0,0,1-14,0l14-14A9.89,9.89,0,0,1,91.58,121.9Z"/><path class="cls-6" d="M94.05,124.38a13.38,13.38,0,0,1-18.93,0l2.48-2.48a9.88,9.88,0,1,0,14-14l2.47-2.47A13.39,13.39,0,0,1,94.05,124.38Z"/><path d="M60.51,139.64A10.57,10.57,0,0,0,67.87,143l4.75,4.74,1.63-4.5-2.38-2.38-6.62-6.62-3.07,3.07-2,2Z"/><path class="cls-3" d="M59.86,139a10.53,10.53,0,0,1-3.37-7.35l-4.75-4.75,4.5-1.64,2.38,2.38,6.63,6.63-3.07,3.07-2,2C60.08,139.2,60,139.11,59.86,139Z"/><path class="cls-5" d="M41.18,113.75a12.38,12.38,0,0,1,.92-1c4.6-4.6,10.39-5.82,16-7,4.94-1,9.6-2,12.86-5.27a12.56,12.56,0,0,0,2.27-3.13,47.21,47.21,0,0,1,8.13-11.72C90,77,99.47,78.16,110.4,89.1l1.17-1.16C100,76.38,89.45,75.22,80.18,84.49a48.71,48.71,0,0,0-8.42,12.13,10.63,10.63,0,0,1-2,2.71c-2.91,2.92-7.34,3.84-12,4.83-5.57,1.16-11.88,2.49-16.83,7.43-.34.35-.67.7-1,1.07-13.48,15.47-1.52,31.77,6.81,40.11l1.16-1.17C40,143.67,28.58,128.2,41.18,113.75Z"/><path class="cls-6" d="M86.84,159.57c.37-.32.73-.66,1.07-1,5-4.95,6.27-11.25,7.44-16.82,1-4.69,1.91-9.12,4.82-12a10.83,10.83,0,0,1,2.72-2A49.17,49.17,0,0,0,115,119.32c5.49-5.49,7.31-11.54,5.42-18-1.28-4.34-4.18-8.72-8.87-13.41L110.4,89.1c4.5,4.49,7.26,8.65,8.46,12.72,1.71,5.81,0,11.3-5,16.34a48,48,0,0,1-11.73,8.13A12.78,12.78,0,0,0,99,128.55c-3.25,3.26-4.23,7.92-5.26,12.86-1.18,5.6-2.4,11.4-7,16-.32.31-.65.62-1,.92-14.46,12.6-29.93,1.19-37.86-6.73l-1.16,1.17C55.08,161.1,71.38,173.05,86.84,159.57Z"/><path class="cls-7" d="M59,129.54a.55.55,0,0,0-.77,0,.54.54,0,0,0,0,.78l5.46,5.46.78-.77Z"/><path class="cls-8" d="M70,141.25a.56.56,0,0,0,0-.78L64.5,135l-.78.77,5.46,5.47A.56.56,0,0,0,70,141.25Z"/><path class="cls-8" d="M66.77,140.35a.57.57,0,0,1,0,.82.58.58,0,0,1-.82-.82A.57.57,0,0,1,66.77,140.35Z"/><path class="cls-8" d="M65.25,138.82a.59.59,0,0,1,0,.82.58.58,0,0,1-.82-.82A.59.59,0,0,1,65.25,138.82Z"/><path class="cls-8" d="M63.72,137.3a.57.57,0,0,1,0,.82.56.56,0,0,1-.81,0,.57.57,0,0,1,0-.82A.56.56,0,0,1,63.72,137.3Z"/><path class="cls-7" d="M62.2,135.78a.57.57,0,0,1,0,.82.58.58,0,0,1-.82-.82A.57.57,0,0,1,62.2,135.78Z"/><path class="cls-7" d="M60.68,134.26a.56.56,0,0,1,0,.81.57.57,0,0,1-.82,0,.56.56,0,0,1,0-.81A.57.57,0,0,1,60.68,134.26Z"/><path class="cls-7" d="M59.16,132.73a.59.59,0,0,1,0,.82.58.58,0,1,1,0-.82Z"/><path d="M89.58,104.49l-30.37,28.6c-.22.21-.49.29-.59.18s0-.37.21-.58l30.38-28.6c.22-.21.49-.29.59-.18S89.81,104.28,89.58,104.49Z"/><path d="M90.7,105.62l-30,29c-.22.21-.48.29-.59.19s0-.38.21-.59l30-29c.22-.21.49-.29.59-.19S90.92,105.4,90.7,105.62Z"/><path d="M91.86,106.76,62.25,136.12c-.22.22-.48.31-.59.2s0-.37.2-.59l29.62-29.36c.21-.21.48-.3.58-.19S92.08,106.55,91.86,106.76Z"/><path class="cls-3" d="M66.23,140.89c-.11-.11,0-.37.18-.6L95,109.92c.21-.22.47-.32.58-.22s0,.37-.18.6l-28.6,30.37C66.6,140.89,66.34,141,66.23,140.89Z"/><path class="cls-3" d="M64.71,139.36c-.11-.1,0-.37.19-.59l29-29.94c.21-.23.48-.32.58-.21s0,.37-.19.59l-29,29.94C65.08,139.38,64.82,139.47,64.71,139.36Z"/><path class="cls-3" d="M63.19,137.84c-.11-.11,0-.37.19-.59l29.33-29.64c.22-.22.48-.31.58-.2s0,.37-.19.59L63.77,137.64C63.56,137.86,63.29,138,63.19,137.84Z"/><polygon class="cls-8" points="162.49 48.93 163.36 48.06 160.09 44.8 159.23 45.67 162.49 48.93"/><rect class="cls-8" x="155.39" y="48.24" width="1.22" height="4.61" transform="translate(9.89 124.99) rotate(-44.95)"/><rect class="cls-8" x="151.7" y="53.54" width="1.22" height="4.61" transform="translate(5.11 124.02) rotate(-44.99)"/><polygon class="cls-3" points="142.46 51.47 87.89 102.78 92.3 107.2 145.25 54.26 142.46 51.47"/><polygon points="148.03 57.05 96.72 111.61 92.3 107.2 145.25 54.26 148.03 57.05"/><path class="cls-3" d="M146,43.16,145,42.1a1.85,1.85,0,0,1,2.57-2.57l1.06,1.06Z"/><path class="cls-3" d="M140.74,46.85s-.47-.48-1.06-1.06a1.69,1.69,0,0,1,.23-2.35,1.67,1.67,0,0,1,2.34-.22l1.06,1.05Z"/><path class="cls-3" d="M149.72,37.87l-1.06-1.06a1.86,1.86,0,0,1,2.58-2.58l1.06,1.06Z"/><polygon class="cls-7" points="144.86 49.26 145.72 48.39 142.46 45.13 141.6 45.99 144.86 49.26"/><rect class="cls-7" x="148.34" y="41.2" width="1.22" height="4.61" transform="translate(12.86 118.06) rotate(-45)"/><rect class="cls-7" x="152.03" y="35.9" width="1.22" height="4.61" transform="translate(17.71 119.16) rotate(-45.02)"/><path class="cls-3" d="M154.75,34,152,36.74c.27,1.4-.69,4.39-3,6.74s-5.34,3.32-6.74,3.06l-2.77,2.77L143,56.47,152.48,47l9.44-9.44Z"/><path class="cls-7" d="M146.63,48.82a1,1,0,1,1-1.34,0A1,1,0,0,1,146.63,48.82Z"/><path class="cls-7" d="M151.12,44.33a.95.95,0,1,1-1.34,0A.95.95,0,0,1,151.12,44.33Z"/><path class="cls-7" d="M155.61,39.84a.95.95,0,1,1-1.34,0A.95.95,0,0,1,155.61,39.84Z"/><path d="M156.34,53.47l1.06,1.06A1.86,1.86,0,0,0,160,52l-1.07-1.06Z"/><path d="M152.65,58.76l1.06,1.06a1.85,1.85,0,0,0,2.58-2.57l-1.06-1.06Z"/><path d="M161.64,49.78l1.06,1.06a1.67,1.67,0,0,0,2.34-.22,1.69,1.69,0,0,0,.23-2.35l-1.06-1.06Z"/><path d="M165.53,44.75l-2.77,2.77c-1.4-.27-4.38.7-6.74,3s-3.32,5.34-3.05,6.75l-2.77,2.77L143,56.47,152.48,47l9.44-9.44Z"/><path class="cls-8" d="M150.68,52.88a.94.94,0,1,0-1.34,1.33.94.94,0,1,0,1.34-1.33Z"/><path class="cls-8" d="M155.17,48.38a.95.95,0,1,0,0,1.34A.95.95,0,0,0,155.17,48.38Z"/><path class="cls-8" d="M159.66,43.89a.95.95,0,1,0,0,1.34A.95.95,0,0,0,159.66,43.89Z"/><polygon class="cls-7" points="140.18 53.62 139.22 54.52 142.1 57.4 143.03 56.47 140.18 53.62"/><polygon class="cls-8" points="145.89 59.33 143.03 56.47 142.1 57.4 144.99 60.29 145.89 59.33"/><polygon class="cls-7" points="138.61 60.89 135.62 57.9 134.92 58.56 137.94 61.57 138.61 60.89"/><polygon class="cls-8" points="137.94 61.57 140.95 64.58 141.61 63.88 138.61 60.89 137.94 61.57"/><polygon class="cls-7" points="134.54 64.97 131.42 61.85 130.72 62.51 133.86 65.65 134.54 64.97"/><polygon class="cls-8" points="133.86 65.65 137 68.79 137.65 68.08 134.54 64.97 133.86 65.65"/><polygon class="cls-7" points="130.46 69.04 127.22 65.8 126.52 66.46 129.78 69.72 130.46 69.04"/><polygon class="cls-8" points="129.78 69.72 133.05 72.98 133.71 72.28 130.46 69.04 129.78 69.72"/><polygon class="cls-7" points="126.38 73.12 123.01 69.75 122.31 70.41 125.7 73.8 126.38 73.12"/><polygon class="cls-8" points="125.7 73.8 129.09 77.19 129.75 76.49 126.38 73.12 125.7 73.8"/><polygon class="cls-7" points="122.31 77.2 118.81 73.7 118.11 74.36 121.63 77.87 122.31 77.2"/><polygon class="cls-8" points="121.63 77.87 125.14 81.39 125.8 80.69 122.31 77.2 121.63 77.87"/><polygon class="cls-7" points="118.23 81.27 114.61 77.65 113.91 78.31 117.56 81.95 118.23 81.27"/><polygon class="cls-8" points="117.56 81.95 121.19 85.59 121.85 84.89 118.23 81.27 117.56 81.95"/><polygon class="cls-7" points="114.15 85.35 110.41 81.6 109.71 82.26 113.47 86.03 114.15 85.35"/><polygon class="cls-8" points="113.47 86.03 117.24 89.79 117.9 89.09 114.15 85.35 113.47 86.03"/><polygon class="cls-7" points="109.74 89.76 105.86 85.88 105.16 86.54 109.06 90.44 109.74 89.76"/><polygon class="cls-8" points="109.06 90.44 112.96 94.35 113.62 93.64 109.74 89.76 109.06 90.44"/><polygon class="cls-7" points="104.97 94.54 100.94 90.51 100.24 91.17 104.29 95.21 104.97 94.54"/><polygon class="cls-8" points="104.29 95.21 108.33 99.26 109 98.56 104.97 94.54 104.29 95.21"/><polygon class="cls-7" points="101.25 98.26 97.1 94.11 96.4 94.77 100.57 98.94 101.25 98.26"/><polygon class="cls-8" points="100.57 98.94 104.73 103.1 105.39 102.4 101.25 98.26 100.57 98.94"/><polygon class="cls-7" points="98.19 101.31 93.95 97.08 93.25 97.74 97.51 101.99 98.19 101.31"/><polygon class="cls-8" points="97.51 101.99 101.77 106.25 102.43 105.55 98.19 101.31 97.51 101.99"/><polygon class="cls-7" points="95.37 104.13 91.05 99.81 90.35 100.46 94.7 104.81 95.37 104.13"/><polygon class="cls-8" points="94.7 104.81 99.04 109.15 99.7 108.45 95.37 104.13 94.7 104.81"/></g></g></svg>