<svg xmlns="http://www.w3.org/2000/svg" viewBox="0 0 135.14 133.02"><defs><style>.cls-1,.cls-6{fill:#fff;}.cls-2{fill:#ff5430;}.cls-3{fill:#b7b1a9;}.cls-4{fill:#c60000;}.cls-5{fill:#5a5b52;}.cls-6{opacity:0.5;}</style></defs><title>Asset 6</title><g id="Layer_2" data-name="Layer 2"><g id="Layer_1-2" data-name="Layer 1"><rect class="cls-1" x="56.58" y="50.32" width="1.64" height="50.94"/><rect class="cls-1" x="94.43" y="50.32" width="1.64" height="50.93" transform="translate(-0.09 0.11) rotate(-0.07)"/><rect class="cls-1" x="75.51" y="51.27" width="1.64" height="59.01"/><path class="cls-2" d="M76.32,52.53V28.9c-13.06,0-23.65-2.77-23.65-6.18v20.5C52.67,46.64,61.25,52.53,76.32,52.53Z"/><path class="cls-3" d="M52.67,43.22v4.13c0,3.42,8.58,9.31,23.65,9.31V52.53C61.25,52.53,52.67,46.64,52.67,43.22Z"/><path class="cls-3" d="M54.72,21.1l0,0Z"/><path class="cls-3" d="M69.06,24.48l-.28,0Z"/><path class="cls-3" d="M56.44,21.94l-.06,0Z"/><path class="cls-3" d="M61.14,23.33l-.06,0Z"/><path class="cls-3" d="M65.72,24.12l-.25,0Z"/><path class="cls-3" d="M67.34,24.31h0Z"/><path class="cls-3" d="M59.83,23h0Z"/><path class="cls-3" d="M62.64,23.63l-.19,0Z"/><path class="cls-3" d="M58.6,22.68l-.08,0Z"/><path class="cls-3" d="M72.61,24.7h0Z"/><path class="cls-3" d="M74.62,24.76h0Z"/><path class="cls-3" d="M70.91,24.61l-.29,0Z"/><path class="cls-3" d="M70.62,24.59l-1.56-.11Z"/><path class="cls-3" d="M76.33,24.78l-1.71,0Z"/><path class="cls-3" d="M74.24,24.75l-1.63-.05Z"/><path class="cls-3" d="M65.47,24.08c-1-.13-1.93-.28-2.83-.45C63.54,23.8,64.48,24,65.47,24.08Z"/><path class="cls-3" d="M67.21,24.3l-1.49-.18Z"/><path class="cls-3" d="M68.78,24.45l-1.44-.14Z"/><path class="cls-3" d="M72.38,24.69l-1.47-.08Z"/><path class="cls-3" d="M54.69,21.08a6.85,6.85,0,0,1-.66-.43A6.85,6.85,0,0,0,54.69,21.08Z"/><path class="cls-3" d="M62.45,23.6l-1.31-.27Z"/><path class="cls-3" d="M56.38,21.91a12.88,12.88,0,0,1-1.66-.81A12.88,12.88,0,0,0,56.38,21.91Z"/><path class="cls-3" d="M59.77,23l-1.17-.33Z"/><path class="cls-3" d="M61.08,23.31,59.83,23Z"/><path class="cls-3" d="M58.52,22.65c-.76-.23-1.45-.46-2.08-.71C57.07,22.19,57.76,22.43,58.52,22.65Z"/><path class="cls-3" d="M76.32,28.9V24.78l-1.71,0h-.38l-1.63-.05h-.23l-1.47-.08-.29,0-1.56-.11-.28,0-1.44-.14h-.13l-1.49-.18-.25,0c-1-.13-1.93-.28-2.83-.45l-.19,0-1.31-.27L59.83,23l-1.23-.34c-.84-.25-1.53-.49-2.16-.74a13.88,13.88,0,0,1-1.72-.84,7.55,7.55,0,0,1-.69-.45,4.84,4.84,0,0,1-.77-.7l-.18-.23L53,19.6a1.19,1.19,0,0,1-.09-.15,1,1,0,0,1-.07-.15l-.06-.13a1.21,1.21,0,0,1-.05-.18l0-.11a1.53,1.53,0,0,1,0-.3v4.14C52.67,26.13,63.26,28.9,76.32,28.9Z"/><path class="cls-4" d="M76.32,28.9V52.53c14.77,0,23.65-5.89,23.65-9.31V22.72C100,26.13,89.38,28.9,76.32,28.9Z"/><path class="cls-5" d="M100,47.35V43.22c0,3.42-8.88,9.31-23.65,9.31v4.13C91.09,56.66,100,50.77,100,47.35Z"/><path class="cls-3" d="M97.93,21.1l0,0Z"/><path class="cls-3" d="M91.51,23.33l.06,0Z"/><path class="cls-3" d="M99.39,20a.18.18,0,0,1,0-.07A.18.18,0,0,0,99.39,20Z"/><path class="cls-3" d="M81.73,24.61l.3,0Z"/><path class="cls-3" d="M83.59,24.48l.28,0Z"/><path class="cls-3" d="M92.81,23h0Z"/><path class="cls-3" d="M85.31,24.31h0Z"/><path class="cls-3" d="M96.21,21.94l.06,0Z"/><path class="cls-3" d="M99.57,19.72l.08-.12Z"/><path class="cls-3" d="M94.05,22.68l.08,0Z"/><path class="cls-3" d="M90,23.63l.18,0Z"/><path class="cls-3" d="M78,24.76h0Z"/><path class="cls-3" d="M100,18.58c0,.1,0,.2,0,.3C100,18.78,100,18.68,100,18.58Z"/><path class="cls-3" d="M86.92,24.12l.26,0Z"/><path class="cls-3" d="M99.87,19.17a1.21,1.21,0,0,0,0-.18A1.21,1.21,0,0,1,99.87,19.17Z"/><path class="cls-3" d="M99.74,19.45l.07-.15Z"/><path class="cls-3" d="M80,24.7h0Z"/><path class="cls-3" d="M85.44,24.3l1.48-.18Z"/><path class="cls-3" d="M80.27,24.69l1.46-.08Z"/><path class="cls-3" d="M78.41,24.75,80,24.7Z"/><path class="cls-3" d="M83.87,24.45l1.44-.14Z"/><path class="cls-3" d="M76.33,24.78l1.7,0Z"/><path class="cls-3" d="M82,24.59l1.56-.11Z"/><path class="cls-3" d="M90.19,23.6l1.32-.27Z"/><path class="cls-3" d="M99.44,19.89l.13-.17Z"/><path class="cls-3" d="M99.65,19.6l.09-.15Z"/><path class="cls-3" d="M87.18,24.08c1-.13,1.93-.28,2.83-.45C89.11,23.8,88.16,24,87.18,24.08Z"/><path class="cls-3" d="M99.92,19l0-.11Z"/><path class="cls-3" d="M99.39,20a5.8,5.8,0,0,1-.76.69A5.8,5.8,0,0,0,99.39,20Z"/><path class="cls-3" d="M99.81,19.3l.06-.13Z"/><path class="cls-3" d="M91.57,23.31c.43-.09.84-.19,1.24-.29C92.41,23.12,92,23.22,91.57,23.31Z"/><path class="cls-3" d="M92.88,23l1.17-.33Z"/><path class="cls-3" d="M98,21.08a6.85,6.85,0,0,0,.66-.43A6.85,6.85,0,0,1,98,21.08Z"/><path class="cls-3" d="M94.13,22.65c.76-.23,1.45-.46,2.08-.71C95.58,22.19,94.89,22.42,94.13,22.65Z"/><path class="cls-3" d="M96.27,21.91a13.56,13.56,0,0,0,1.66-.81A13.56,13.56,0,0,1,96.27,21.91Z"/><path class="cls-5" d="M99.92,19a1.21,1.21,0,0,1,0,.18l-.06.13-.07.15-.09.15-.08.12-.13.17a5.26,5.26,0,0,1-.81.76c-.21.15-.43.29-.67.43a13.31,13.31,0,0,1-1.69.83c-.69.28-1.38.51-2.14.74-.45.14-.85.25-1.25.36l-1.31.3-1.38.29-.18,0c-.9.17-1.84.32-2.83.45l-.26,0-1.48.18h-.13l-1.44.14-.28,0L82,24.59l-.3,0-1.46.08H80l-1.63.05H78l-1.7,0V28.9c13.06,0,23.65-2.77,23.65-6.18V18.58c0,.1,0,.2,0,.3Z"/><path d="M84.43,12.77c2.95,1,4.69,2.31,4.69,3.7a1.5,1.5,0,0,1,0,.29l0,.11a1.21,1.21,0,0,1,0,.18c0,.05,0,.09-.05.14s0,.09-.08.14a1.09,1.09,0,0,1-.08.15.83.83,0,0,0-.08.12l-.13.17-.06.07a5.35,5.35,0,0,1-.73.66,7.52,7.52,0,0,1-.69.46,12.23,12.23,0,0,1-1.7.83c-.68.28-1.38.52-2.14.75-.45.13-.84.24-1.25.34l-1.3.32c-.49.11-.93.19-1.38.28l-.18,0c-.91.16-1.85.31-2.84.44l-.25,0c-.49.07-1,.12-1.49.18h-.13L73,22.33l-.28,0-1.55.12h-.3l-1.47.08h-.23l-1.63.05H63.39l-1.64-.05h-.23l-1.46-.08h-.3l-1.56-.12-.28,0-.57,0,1.17.37c.45.14.85.25,1.25.36l1.31.3,1.37.29.19,0,.33.06c.8.14,1.63.28,2.5.39l.25,0,1.49.18h.13l1.44.14.28,0,1.56.11.29,0,1.47.08h.23l1.63.05h.38l1.71,0,1.7,0h.38L80,24.7h.23l1.46-.08.3,0,1.56-.11.28,0,1.44-.14h.13l1.48-.18.26,0c1-.13,1.93-.28,2.83-.45l.18,0,1.32-.27,1.3-.31,1.24-.34c.84-.26,1.53-.49,2.16-.74a14.62,14.62,0,0,0,1.72-.84,7.55,7.55,0,0,0,.69-.45,5.5,5.5,0,0,0,.77-.69l.18-.24.08-.12.09-.15.07-.15.06-.13a1.21,1.21,0,0,0,0-.18l0-.11c0-.1,0-.2,0-.3C100,15.91,93.5,13.63,84.43,12.77Z"/><path class="cls-5" d="M58.2,22.36l1.56.12h.3l1.46.08h.23l1.64.05h4.16l1.63-.05h.23l1.47-.08h.3l1.55-.12.28,0,1.44-.14h.13c.51-.06,1-.11,1.49-.18l.25,0c1-.13,1.93-.28,2.84-.44l.18,0c.45-.09.89-.17,1.32-.27L82,20.9l1.24-.34a21.91,21.91,0,0,0,2.15-.75A12.25,12.25,0,0,0,87.08,19c.27-.16.49-.31.69-.45a6,6,0,0,0,.76-.69l.06-.07.13-.17a.83.83,0,0,1,.08-.12,1.09,1.09,0,0,0,.08-.15s.05-.1.08-.14,0-.09.05-.14a1.21,1.21,0,0,0,0-.18l0-.11a1.5,1.5,0,0,0,0-.29c0-1.39-1.74-2.67-4.69-3.7-2.52-.24-5.26-.38-8.11-.38-13.06,0-23.65,2.78-23.65,6.19a1.53,1.53,0,0,0,0,.3l0,.11a1.21,1.21,0,0,0,.05.18l.06.13a1,1,0,0,0,.07.15,1.19,1.19,0,0,0,.09.15l.08.12.12.17a5.39,5.39,0,0,0,.79.73,7,7,0,0,0,.7.46,12.68,12.68,0,0,0,1.69.83l1,.37.57,0Z"/><path class="cls-6" d="M57.47,48.43a28.45,28.45,0,0,0,6,2.41v-23a39.5,39.5,0,0,1-6-1.45Z"/><path class="cls-1" d="M57.47,48.43v4.15a28.33,28.33,0,0,0,6,2.41V50.84A28.45,28.45,0,0,1,57.47,48.43Z"/><path class="cls-1" d="M63.44,23.75l-.8-.14Z"/><path class="cls-1" d="M63.45,27.88V23.75l-.8-.14-.18,0-1.32-.27L59.83,23l-1.23-.34c-.45-.13-.8-.25-1.14-.36v4.13A39.5,39.5,0,0,0,63.45,27.88Z"/><path class="cls-1" d="M86.47,30.89a.92.92,0,0,1-1.83,0v-4a.92.92,0,0,1,1.83,0Z"/><path class="cls-3" d="M87.73,33a2,2,0,0,1-4,0v-.83a2,2,0,0,1,4,0Z"/><path class="cls-1" d="M67.65,30.89a.9.9,0,0,1-.9.91.92.92,0,0,1-.92-.91v-4a.91.91,0,1,1,1.82,0Z"/><path class="cls-3" d="M68.92,33a2,2,0,0,1-4,0v-.83a2,2,0,1,1,4,0Z"/><path class="cls-1" d="M86.47,48.77a.92.92,0,0,0-1.83,0v4a.92.92,0,1,0,1.83,0Z"/><path class="cls-3" d="M87.73,46.64a2,2,0,0,0-4,0v.84a2,2,0,1,0,4,0Z"/><path class="cls-1" d="M67.65,48.77a.91.91,0,1,0-1.82,0v4a.92.92,0,0,0,.92.92.91.91,0,0,0,.9-.92Z"/><path class="cls-3" d="M68.91,46.64a2,2,0,1,0-4,0v.84a2,2,0,1,0,4,0Z"/><polygon class="cls-1" points="114.74 39.42 113.09 38.64 113.1 92.03 114.73 92.03 114.74 39.42"/><polygon class="cls-3" points="96.26 10.28 94.63 10.28 94.63 24.63 96.26 25.77 96.26 10.28"/><polygon class="cls-3" points="114.25 92.03 113.73 90.27 94.63 107.89 95.74 109.1 114.25 92.03"/><path d="M95.45,105.82c1.47,0,2.66,1.86,2.66,4.17H92.78C92.78,107.68,94,105.82,95.45,105.82Z"/><polygon class="cls-1" points="113.67 92.03 114.19 90.27 133.3 107.89 132.19 109.1 113.67 92.03"/><path d="M132.48,105.82c-1.48,0-2.67,1.86-2.67,4.17h5.33C135.14,107.68,134,105.82,132.48,105.82Z"/><rect class="cls-1" x="107.83" y="10.03" width="1.64" height="50.94" transform="translate(14.24 99.92) rotate(-52.4)"/><path class="cls-3" d="M113.57,8.44a3,3,0,0,1,.29,1.93c-.92,4.13-12.22,5.13-25.24,2.24C81.25,11,74.92,8.46,71,5.83c1.8,3.82,10.56,8.31,21.65,10.76,13,2.89,24.32,1.88,25.24-2.25C118.25,12.55,116.61,10.46,113.57,8.44Z"/><path class="cls-1" d="M113.86,10.37a3,3,0,0,0-.29-1.93c-3.95-2.64-10.29-5.16-17.65-6.8-13-2.88-24.33-1.87-25.25,2.25A3,3,0,0,0,71,5.83c4,2.63,10.29,5.15,17.66,6.78C101.64,15.5,112.94,14.5,113.86,10.37Z"/><path class="cls-5" d="M99.51,6.29C99.25,7.45,97.22,8,95,7.5s-3.85-1.84-3.6-3,2.29-1.69,4.53-1.2S99.76,5.13,99.51,6.29Z"/><path class="cls-1" d="M99,25.32a3.6,3.6,0,1,1-3.59-3.6A3.6,3.6,0,0,1,99,25.32Z"/><path d="M117.51,40.14a3.6,3.6,0,1,1-3.59-3.6A3.6,3.6,0,0,1,117.51,40.14Z"/><path d="M117.51,91a3.6,3.6,0,1,1-3.59-3.6A3.6,3.6,0,0,1,117.51,91Z"/><rect class="cls-1" x="25.91" y="82.93" width="1.64" height="19.81"/><polygon class="cls-1" points="9.14 84.9 9.14 102.3 2.28 111.17 3.58 112.18 10.78 102.86 10.78 84.9 9.14 84.9"/><path class="cls-5" d="M3.28,109.57c-1.81,0-3.28,2.29-3.28,5.12H6.55C6.55,111.86,5.09,109.57,3.28,109.57Z"/><polygon class="cls-3" points="44.32 84.9 44.32 102.3 51.18 111.17 49.88 112.18 42.68 102.86 42.68 84.9 44.32 84.9"/><path d="M50.18,109.57c1.81,0,3.28,2.29,3.28,5.12H46.91C46.91,111.86,48.37,109.57,50.18,109.57Z"/><path d="M26.73,100.36c1.47,0,2.67,1.87,2.67,4.17H24.06C24.06,102.23,25.26,100.36,26.73,100.36Z"/><path class="cls-5" d="M57.4,98.87c1.48,0,2.67,1.87,2.67,4.17H54.73C54.74,100.74,55.93,98.87,57.4,98.87Z"/><path d="M95.25,98.87c1.47,0,2.66,1.87,2.66,4.17H92.58C92.58,100.74,93.77,98.87,95.25,98.87Z"/><path d="M76.32,107.9c1.48,0,2.67,1.86,2.67,4.17H73.66C73.66,109.76,74.85,107.9,76.32,107.9Z"/><path class="cls-2" d="M26.73,90.38V47.57c-13.06,0-23.65-2.77-23.65-6.19V81.06C3.08,84.48,11.65,90.38,26.73,90.38Z"/><path class="cls-3" d="M3.08,81.06v4.13c0,3.42,8.57,9.31,23.65,9.31V90.38C11.65,90.38,3.08,84.48,3.08,81.06Z"/><path class="cls-3" d="M5.12,39.77l0,0Z"/><path class="cls-3" d="M19.47,43.14l-.28,0Z"/><path class="cls-3" d="M6.84,40.6l-.06,0Z"/><path class="cls-3" d="M11.54,42l-.06,0Z"/><path class="cls-3" d="M16.13,42.79l-.25,0Z"/><path class="cls-3" d="M17.74,43h0Z"/><path class="cls-3" d="M10.24,41.69l-.06,0Z"/><path class="cls-3" d="M13,42.3l-.18,0Z"/><path class="cls-3" d="M9,41.35l-.07,0Z"/><path class="cls-3" d="M23,43.37l-.23,0Z"/><path class="cls-3" d="M25,43.42h0Z"/><path class="cls-3" d="M21.32,43.28l-.3,0Z"/><path class="cls-3" d="M21,43.26c-.52,0-1-.07-1.55-.12C20,43.19,20.5,43.23,21,43.26Z"/><path class="cls-3" d="M26.73,43.44c-.57,0-1.14,0-1.7,0C25.59,43.44,26.16,43.44,26.73,43.44Z"/><path class="cls-3" d="M24.65,43.42,23,43.37Z"/><path class="cls-3" d="M15.88,42.75c-1-.13-1.94-.28-2.84-.45C13.94,42.47,14.89,42.62,15.88,42.75Z"/><path class="cls-3" d="M17.62,43l-1.49-.18Z"/><path class="cls-3" d="M19.19,43.12,17.74,43Z"/><path class="cls-3" d="M22.78,43.35l-1.46-.07Z"/><path class="cls-3" d="M5.09,39.75a6.88,6.88,0,0,1-.66-.44A6.88,6.88,0,0,0,5.09,39.75Z"/><path class="cls-3" d="M3.67,38.63a4.29,4.29,0,0,0,.76.68A4.29,4.29,0,0,1,3.67,38.63Z"/><path class="cls-3" d="M12.86,42.26,11.54,42Z"/><path class="cls-3" d="M6.78,40.57a12.88,12.88,0,0,1-1.66-.8A12.88,12.88,0,0,0,6.78,40.57Z"/><path class="cls-3" d="M10.18,41.67c-.41-.1-.8-.21-1.18-.32C9.38,41.46,9.77,41.57,10.18,41.67Z"/><path class="cls-3" d="M11.48,42c-.43-.09-.84-.19-1.24-.29C10.64,41.79,11.05,41.89,11.48,42Z"/><path class="cls-3" d="M8.93,41.33c-.76-.23-1.46-.48-2.09-.73C7.47,40.85,8.17,41.1,8.93,41.33Z"/><path class="cls-3" d="M26.73,47.57V43.44c-.57,0-1.14,0-1.7,0h-.38L23,43.37l-.23,0-1.46-.07-.3,0c-.52,0-1-.07-1.55-.12l-.28,0L17.74,43h-.12l-1.49-.18-.25,0c-1-.13-1.94-.28-2.84-.45l-.18,0L11.54,42l-1.3-.31L9,41.35c-.83-.25-1.53-.5-2.16-.75a13.93,13.93,0,0,1-1.72-.83,7.49,7.49,0,0,1-.69-.46,4.29,4.29,0,0,1-.76-.68l-.06-.07-.13-.18a1,1,0,0,1-.08-.11l-.09-.15A1,1,0,0,0,3.24,38a1.12,1.12,0,0,1-.05-.13l-.06-.19s0-.06,0-.1a1.5,1.5,0,0,1,0-.29v4.12C3.08,44.8,13.67,47.57,26.73,47.57Z"/><path class="cls-4" d="M26.73,47.57V90.38c14.76,0,23.65-5.9,23.65-9.32V41.38C50.38,44.8,39.79,47.57,26.73,47.57Z"/><path class="cls-5" d="M50.38,85.19V81.06c0,3.42-8.89,9.31-23.65,9.32V94.5C41.49,94.5,50.38,88.61,50.38,85.19Z"/><path class="cls-3" d="M48.34,39.77s0,0,0,0S48.34,39.76,48.34,39.77Z"/><path class="cls-3" d="M41.91,42,42,42Z"/><path class="cls-3" d="M49.79,38.63l.06-.07Z"/><path class="cls-3" d="M32.14,43.28l.3,0Z"/><path class="cls-3" d="M34,43.14l.28,0Z"/><path class="cls-3" d="M43.22,41.69l.06,0Z"/><path class="cls-3" d="M35.72,43h0Z"/><path class="cls-3" d="M46.62,40.6l.06,0Z"/><path class="cls-3" d="M50,38.38l.08-.11Z"/><path class="cls-3" d="M44.46,41.35l.07,0Z"/><path class="cls-3" d="M40.42,42.3l.18,0Z"/><path class="cls-3" d="M28.43,43.42h0Z"/><path class="cls-3" d="M50.38,37.26a1.5,1.5,0,0,1,0,.29A1.5,1.5,0,0,0,50.38,37.26Z"/><path class="cls-3" d="M37.33,42.79l.25,0Z"/><path class="cls-3" d="M50.27,37.84a1.05,1.05,0,0,0,0-.19A1.05,1.05,0,0,1,50.27,37.84Z"/><path class="cls-3" d="M50.15,38.12l.06-.15Z"/><path class="cls-3" d="M30.45,43.37l.23,0Z"/><path class="cls-3" d="M35.84,43l1.49-.18Z"/><path class="cls-3" d="M30.68,43.35l1.46-.07Z"/><path class="cls-3" d="M28.81,43.42l1.64-.05Z"/><path class="cls-3" d="M34.27,43.12,35.72,43Z"/><path class="cls-3" d="M26.73,43.44c.57,0,1.14,0,1.7,0C27.87,43.44,27.3,43.44,26.73,43.44Z"/><path class="cls-3" d="M32.44,43.26c.52,0,1-.07,1.55-.12C33.48,43.19,33,43.23,32.44,43.26Z"/><path class="cls-3" d="M40.6,42.26,41.91,42Z"/><path class="cls-3" d="M49.85,38.56l.13-.18Z"/><path class="cls-3" d="M50.06,38.27l.09-.15Z"/><path class="cls-3" d="M37.58,42.75c1-.13,1.94-.28,2.84-.45C39.52,42.47,38.57,42.62,37.58,42.75Z"/><path class="cls-3" d="M50.32,37.65a.29.29,0,0,0,0-.1A.29.29,0,0,1,50.32,37.65Z"/><path class="cls-3" d="M49.79,38.63a4.68,4.68,0,0,1-.76.68A4.68,4.68,0,0,0,49.79,38.63Z"/><path class="cls-3" d="M50.21,38l.06-.13Z"/><path class="cls-3" d="M42,42l1.24-.29Z"/><path class="cls-3" d="M43.28,41.67c.41-.1.8-.21,1.18-.32C44.08,41.46,43.69,41.57,43.28,41.67Z"/><path class="cls-3" d="M48.37,39.76q.36-.23.66-.45Q48.73,39.53,48.37,39.76Z"/><path class="cls-3" d="M44.53,41.33c.76-.23,1.46-.48,2.09-.73C46,40.85,45.29,41.1,44.53,41.33Z"/><path class="cls-3" d="M46.68,40.57a12.88,12.88,0,0,0,1.66-.8A12.88,12.88,0,0,1,46.68,40.57Z"/><path class="cls-5" d="M50.32,37.65a1.05,1.05,0,0,1,0,.19l-.06.13-.06.15-.09.15-.08.11-.13.18-.06.07a4.68,4.68,0,0,1-.76.68q-.3.22-.66.45a14,14,0,0,1-1.69.81c-.69.28-1.39.53-2.15.76-.45.13-.84.24-1.25.34s-.88.22-1.3.31-.93.2-1.38.28l-.18,0c-.9.17-1.85.32-2.84.45l-.25,0L35.84,43h-.12l-1.45.14-.28,0c-.51,0-1,.09-1.55.12l-.3,0-1.46.07-.23,0-1.64.05h-.38c-.56,0-1.13,0-1.7,0v4.13c13.06,0,23.65-2.77,23.65-6.19V37.26a1.5,1.5,0,0,1,0,.29A.29.29,0,0,1,50.32,37.65Z"/><path d="M34.84,31.44c2.94,1,4.68,2.31,4.68,3.69a1.45,1.45,0,0,1,0,.3.52.52,0,0,1,0,.11c0,.06,0,.12,0,.18l-.06.13-.07.15-.09.15-.08.12-.13.17-.06.07a5.23,5.23,0,0,1-.72.66,7,7,0,0,1-.7.46,13.31,13.31,0,0,1-1.69.83,21.49,21.49,0,0,1-2.14.74c-.45.15-.85.25-1.26.35l-1.3.32-1.38.28-.18,0c-.9.17-1.85.32-2.83.45l-.26,0L25,40.85h-.13L23.42,41l-.28,0-1.56.11-.29,0-1.47.08h-.23L18,41.3h-.37l-1.71,0-1.7,0h-.38l-1.63,0h-.23l-1.47-.08-.29,0L8.61,41l-.28,0-.57,0,1.17.38c.45.13.84.24,1.25.34s.87.22,1.3.31.93.2,1.38.28l.18,0,.33.06c.8.14,1.63.28,2.51.39l.25,0,1.49.18h.12l1.45.14.28,0c.51,0,1,.09,1.55.12l.3,0,1.46.07.23,0,1.64.05H25c.56,0,1.13,0,1.7,0s1.14,0,1.7,0h.38l1.64-.05.23,0,1.46-.07.3,0c.52,0,1-.07,1.55-.12l.28,0L35.72,43h.12l1.49-.18.25,0c1-.13,1.94-.28,2.84-.45l.18,0L41.91,42l1.31-.31,1.24-.34c.83-.25,1.53-.5,2.16-.75a13.93,13.93,0,0,0,1.72-.83,7.49,7.49,0,0,0,.69-.46,4.77,4.77,0,0,0,.76-.68l.06-.07.13-.18.08-.11.09-.15.06-.15.06-.13a1.05,1.05,0,0,0,0-.19.29.29,0,0,0,0-.1,1.5,1.5,0,0,0,0-.29C50.38,34.58,43.91,32.31,34.84,31.44Z"/><path class="cls-5" d="M8.61,41l1.56.11.29,0,1.47.08h.23l1.63,0h.38l1.7,0,1.71,0H18l1.64,0h.23l1.47-.08.29,0L23.14,41l.28,0,1.44-.14H25l1.48-.18.26,0c1-.13,1.93-.28,2.83-.45l.18,0,1.32-.27,1.3-.31c.47-.12.87-.22,1.24-.34.84-.25,1.53-.49,2.16-.74a14.62,14.62,0,0,0,1.72-.84,7.55,7.55,0,0,0,.69-.45,5.36,5.36,0,0,0,.76-.69l.06-.07.13-.17.08-.12.09-.15.07-.15.06-.13c0-.06,0-.12,0-.18a.52.52,0,0,0,0-.11,1.45,1.45,0,0,0,0-.3c0-1.38-1.74-2.66-4.68-3.69-2.53-.25-5.26-.38-8.11-.38-13.06,0-23.65,2.77-23.65,6.2a1.5,1.5,0,0,0,0,.29s0,.07,0,.1l.06.19a1.12,1.12,0,0,0,.05.13l.07.15.09.15a1,1,0,0,0,.08.11l.13.18.06.07a4.81,4.81,0,0,0,.73.66,7.52,7.52,0,0,0,.69.46,12.65,12.65,0,0,0,1.69.82c.35.15.66.26,1,.38l.57,0Z"/><path class="cls-1" d="M23.87,62.75a1.91,1.91,0,0,0,0,3.82h2.86V62.75Z"/><path class="cls-1" d="M23.87,69a1.91,1.91,0,0,0,0,3.81h2.86V69Z"/><path class="cls-3" d="M31.49,64.66a1.91,1.91,0,0,0-1.9-1.91H26.73v3.81h2.86A1.91,1.91,0,0,0,31.49,64.66Z"/><path class="cls-3" d="M31.49,70.91A1.9,1.9,0,0,0,29.59,69H26.73v3.81h2.86A1.9,1.9,0,0,0,31.49,70.91Z"/><path class="cls-6" d="M7.87,86.27a28.33,28.33,0,0,0,6,2.41V46.55a38.54,38.54,0,0,1-6-1.46Z"/><path class="cls-1" d="M7.87,86.27v4.15a27.81,27.81,0,0,0,6,2.41V88.68A28.33,28.33,0,0,1,7.87,86.27Z"/><path class="cls-1" d="M13.85,42.41,13,42.28Z"/><path class="cls-1" d="M13.85,46.55V42.41L13,42.28l-.18,0L11.54,42l-1.3-.31L9,41.33c-.44-.13-.79-.25-1.13-.37v4.13A38.54,38.54,0,0,0,13.85,46.55Z"/><path class="cls-1" d="M36.87,49.56a.91.91,0,0,1-1.82,0v-4a.91.91,0,1,1,1.82,0Z"/><path class="cls-3" d="M38.13,51.69a2,2,0,1,1-4,0v-.84a2,2,0,0,1,4,0Z"/><path class="cls-1" d="M18.06,49.56a.91.91,0,1,1-1.82,0v-4a.91.91,0,1,1,1.82,0Z"/><path class="cls-3" d="M19.32,51.69a2,2,0,0,1-4,0v-.84a2,2,0,0,1,4,0Z"/><path class="cls-1" d="M36.87,86.62a.91.91,0,1,0-1.82,0v4a.91.91,0,0,0,1.82,0Z"/><path class="cls-3" d="M38.13,84.48a2,2,0,1,0-4,0v.84a2,2,0,1,0,4,0Z"/><path class="cls-1" d="M18.06,86.62a.91.91,0,1,0-1.82,0v4a.91.91,0,1,0,1.82,0Z"/><path class="cls-3" d="M19.32,84.48a2,2,0,0,0-4,0v.84a2,2,0,0,0,4,0Z"/><path class="cls-3" d="M53.26,20a5.21,5.21,0,0,0,.76.7A5.21,5.21,0,0,1,53.26,20Z"/><path class="cls-2" d="M45.63,94.47,86.39,104,93,75.67,77.85,72.11C63.73,68.8,49.3,78.81,45.63,94.47Z"/><path class="cls-4" d="M64.55,128.82l15.19,3.57L86.39,104,45.63,94.47C42,110.13,50.43,125.51,64.55,128.82Z"/><path class="cls-5" d="M75.55,71.57,73.25,71C59.13,67.72,44.71,77.73,41,93.39l2.3.54C47,78.27,61.43,68.26,75.55,71.57Z"/><path d="M43.33,93.93,41,93.39c-3.67,15.66,4.8,31.05,18.92,34.36l2.3.53C48.13,125,39.66,109.59,43.33,93.93Z"/><path class="cls-1" d="M43.33,93.93l2.3.54C49.3,78.81,63.73,68.8,77.85,72.11l-2.3-.54C61.43,68.26,47,78.27,43.33,93.93Z"/><path class="cls-3" d="M45.63,94.47l-2.3-.54c-3.67,15.66,4.8,31,18.92,34.35l2.3.54C50.43,125.51,42,110.13,45.63,94.47Z"/><path class="cls-5" d="M93,75.67C78.92,72.36,64.49,82.37,60.82,98s4.8,31.05,18.92,34.36S108.29,125.69,112,110,107.16,79,93,75.67Z"/><path d="M107.36,109C111,93.28,106.25,81.18,93,75.67,107.16,79,115.63,94.37,112,110s-18.1,25.68-32.22,22.37C93,133.52,103.69,124.61,107.36,109Z"/><path class="cls-1" d="M43.42,92.61l-2-.46a1.28,1.28,0,0,0-1.52,1l4.4,1A1.29,1.29,0,0,0,43.42,92.61Z"/><path class="cls-3" d="M40.88,94.7l1.95.45a1.28,1.28,0,0,0,1.52-1l-4.4-1A1.28,1.28,0,0,0,40.88,94.7Z"/><path class="cls-1" d="M57,74.1,55,73.65a1.28,1.28,0,0,0-1.53,1l4.4,1A1.29,1.29,0,0,0,57,74.1Z"/><path class="cls-3" d="M54.43,76.2l2,.45a1.28,1.28,0,0,0,1.52-1l-4.4-1A1.3,1.3,0,0,0,54.43,76.2Z"/><path class="cls-1" d="M47.27,115.48l-2-.46a1.27,1.27,0,0,0-1.52,1l4.4,1A1.27,1.27,0,0,0,47.27,115.48Z"/><path class="cls-3" d="M44.73,117.56l1.94.46a1.29,1.29,0,0,0,1.53-1l-4.4-1A1.28,1.28,0,0,0,44.73,117.56Z"/><path class="cls-1" d="M60.9,96.56,59,96.11a1.27,1.27,0,0,0-1.52,1l4.4,1A1.3,1.3,0,0,0,60.9,96.56Z"/><path class="cls-3" d="M58.35,98.65l1.95.46a1.29,1.29,0,0,0,1.53-1l-4.4-1A1.26,1.26,0,0,0,58.35,98.65Z"/><path class="cls-1" d="M74.45,78.06l-2-.46a1.3,1.3,0,0,0-1.53,1l4.4,1A1.28,1.28,0,0,0,74.45,78.06Z"/><path class="cls-3" d="M71.9,80.15l1.95.46a1.27,1.27,0,0,0,1.52-1l-4.4-1A1.3,1.3,0,0,0,71.9,80.15Z"/><path class="cls-1" d="M64.75,119.43l-2-.45a1.29,1.29,0,0,0-1.53,1l4.4,1A1.27,1.27,0,0,0,64.75,119.43Z"/><path class="cls-3" d="M62.2,121.52l2,.46a1.28,1.28,0,0,0,1.52-1l-4.4-1A1.29,1.29,0,0,0,62.2,121.52Z"/></g></g></svg>