<svg xmlns="http://www.w3.org/2000/svg" viewBox="0 0 135.54 139.22"><defs><style>.cls-1{fill:#fff;}.cls-2{fill:#ffe217;}.cls-3{fill:#5a5b52;}.cls-4{fill:#c60000;}.cls-5{fill:#b7b1a9;}.cls-6{fill:#b48205;}</style></defs><title>Asset 9</title><g id="Layer_2" data-name="Layer 2"><g id="Layer_1-2" data-name="Layer 1"><polygon class="cls-1" points="115.92 15.44 102.37 3.67 106.06 0 117.82 13.55 115.92 15.44"/><polygon class="cls-1" points="109.28 22.09 95.72 10.33 99.4 6.65 111.17 20.2 109.28 22.09"/><polygon class="cls-2" points="120.1 26.97 131.87 40.51 135.54 36.84 122 25.08 120.1 26.97"/><polygon class="cls-2" points="113.45 33.62 125.21 47.17 128.89 43.49 115.35 31.73 113.45 33.62"/><path class="cls-3" d="M14.14,75.5a35.05,35.05,0,0,1,49.58,0l2.74-2.74A38.93,38.93,0,0,0,11.4,127.81l2.74-2.74A35.06,35.06,0,0,1,14.14,75.5Z"/><path class="cls-1" d="M14.14,75.5a35.06,35.06,0,0,0,0,49.57L63.72,75.49A35.05,35.05,0,0,0,14.14,75.5Z"/><path d="M66.46,127.82a38.94,38.94,0,0,0,0-55.07l-2.74,2.74a35.06,35.06,0,1,1-49.58,49.58l-2.74,2.74A38.94,38.94,0,0,0,66.46,127.82Z"/><path class="cls-2" d="M63.73,125.08a35.08,35.08,0,0,0,0-49.59L14.14,125.07A35.08,35.08,0,0,0,63.73,125.08Z"/><rect class="cls-4" x="97.8" y="16.81" width="34.51" height="6.09" transform="translate(19.67 87.18) rotate(-45.01)"/><rect x="102.11" y="21.11" width="34.51" height="6.1" transform="translate(17.87 91.47) rotate(-44.99)"/><path class="cls-5" d="M113.56,31.85a1.33,1.33,0,1,1,0-1.88A1.33,1.33,0,0,1,113.56,31.85Z"/><path class="cls-5" d="M120.22,25.19a1.33,1.33,0,1,1,0-1.88A1.33,1.33,0,0,1,120.22,25.19Z"/><path class="cls-1" d="M113.1,23.91a1.33,1.33,0,1,1,0-1.88A1.33,1.33,0,0,1,113.1,23.91Z"/><path class="cls-1" d="M119.75,17.26a1.33,1.33,0,1,1,0-1.89A1.33,1.33,0,0,1,119.75,17.26Z"/><path d="M59.61,110.51a4.33,4.33,0,1,1,0-6.12A4.33,4.33,0,0,1,59.61,110.51Z"/><path class="cls-3" d="M34.82,85.72a4.33,4.33,0,1,1,0-6.12A4.33,4.33,0,0,1,34.82,85.72Z"/><polygon class="cls-2" points="17.67 104.78 26.06 113.16 27.97 111.23 19.6 102.86 17.67 104.78"/><rect class="cls-6" x="29.97" y="110.58" width="2.72" height="11.85" transform="translate(-73.19 56.25) rotate(-44.99)"/><polygon class="cls-3" points="75.91 63.3 72.72 60.12 66.47 65.94 69.88 69.34 75.91 63.3"/><polygon class="cls-3" points="68.97 70.25 65.54 66.81 59.29 72.64 62.93 76.29 68.97 70.25"/><polygon class="cls-3" points="55.08 84.13 51.16 80.21 44.91 86.04 49.04 90.17 55.08 84.13"/><polygon class="cls-3" points="62.03 77.19 58.34 73.51 52.1 79.34 55.99 83.22 62.03 77.19"/><polygon class="cls-3" points="96.74 42.48 94.29 40.02 88.04 45.85 90.7 48.52 96.74 42.48"/><polygon class="cls-3" points="103.26 35.95 101.04 33.73 95.22 39.16 97.65 41.57 103.26 35.95"/><polygon class="cls-3" points="89.8 49.42 87.1 46.73 80.85 52.55 83.76 55.45 89.8 49.42"/><polygon class="cls-3" points="82.85 56.36 79.92 53.42 73.66 59.25 76.81 62.4 82.85 56.36"/><polygon points="49.04 90.17 53.18 94.31 59.01 88.05 55.08 84.13 49.04 90.17"/><polygon points="55.99 83.22 59.88 87.12 65.7 80.87 62.03 77.19 55.99 83.22"/><polygon points="76.81 62.4 79.97 65.56 85.8 59.3 82.85 56.36 76.81 62.4"/><polygon points="83.76 55.45 86.66 58.36 92.49 52.11 89.8 49.42 83.76 55.45"/><polygon points="62.93 76.29 66.57 79.93 72.4 73.67 68.97 70.25 62.93 76.29"/><polygon points="69.88 69.34 73.27 72.74 79.09 66.49 75.91 63.3 69.88 69.34"/><polygon points="103.26 35.95 97.65 41.57 100.06 43.98 105.48 38.17 103.26 35.95"/><polygon points="90.7 48.52 93.36 51.17 99.19 44.92 96.74 42.48 90.7 48.52"/><polygon class="cls-1" points="105.01 34.2 102.86 32.05 101.04 33.73 103.26 35.95 105.01 34.2"/><polygon class="cls-5" points="105.48 38.17 107.17 36.36 105.01 34.2 103.26 35.95 105.48 38.17"/><polygon class="cls-1" points="97.65 41.57 95.22 39.16 94.29 40.02 96.74 42.48 97.65 41.57"/><polygon class="cls-5" points="96.74 42.48 99.19 44.92 100.06 43.98 97.65 41.57 96.74 42.48"/><polygon class="cls-1" points="90.7 48.52 88.04 45.85 87.1 46.73 89.8 49.42 90.7 48.52"/><polygon class="cls-5" points="89.8 49.42 92.49 52.11 93.36 51.17 90.7 48.52 89.8 49.42"/><polygon class="cls-1" points="83.76 55.45 80.85 52.55 79.92 53.42 82.85 56.36 83.76 55.45"/><polygon class="cls-5" points="82.85 56.36 85.8 59.3 86.66 58.36 83.76 55.45 82.85 56.36"/><polygon class="cls-1" points="76.81 62.4 73.66 59.25 72.72 60.12 75.91 63.3 76.81 62.4"/><polygon class="cls-5" points="75.91 63.3 79.09 66.49 79.97 65.56 76.81 62.4 75.91 63.3"/><polygon class="cls-1" points="69.88 69.34 66.47 65.94 65.54 66.81 68.97 70.25 69.88 69.34"/><polygon class="cls-5" points="68.97 70.25 72.4 73.67 73.27 72.74 69.88 69.34 68.97 70.25"/><polygon class="cls-1" points="62.93 76.29 59.29 72.64 58.34 73.51 62.03 77.19 62.93 76.29"/><polygon class="cls-5" points="62.03 77.19 65.7 80.87 66.57 79.93 62.93 76.29 62.03 77.19"/><polygon class="cls-1" points="55.99 83.22 52.1 79.34 51.16 80.21 55.08 84.13 55.99 83.22"/><polygon class="cls-5" points="55.08 84.13 59.01 88.05 59.88 87.12 55.99 83.22 55.08 84.13"/><polygon class="cls-1" points="49.04 90.17 44.91 86.04 43.97 86.91 48.14 91.08 49.04 90.17"/><polygon class="cls-5" points="48.14 91.08 52.3 95.25 53.18 94.31 49.04 90.17 48.14 91.08"/><polygon class="cls-3" points="23.12 108.33 22.53 107.68 41.22 90.51 41.81 91.16 23.12 108.33"/><rect class="cls-3" x="22" y="101.49" width="25.37" height="0.89" transform="translate(-60.35 51.32) rotate(-43.17)"/><polygon points="30.8 116.01 31.46 116.61 48.63 97.92 47.98 97.32 30.8 116.01"/><polygon points="28.18 113.38 28.83 113.98 46.23 95.52 45.58 94.92 28.18 113.38"/><polygon class="cls-3" points="43.97 86.91 39.85 90.75 44.16 95.06 48.14 91.08 43.97 86.91"/><polygon points="44.16 95.06 48.47 99.36 52.3 95.25 48.14 91.08 44.16 95.06"/><path class="cls-1" d="M23.38,108.55a.77.77,0,1,1,0-1.09A.77.77,0,0,1,23.38,108.55Z"/><path class="cls-1" d="M26,111.18a.77.77,0,1,1,0-1.1A.77.77,0,0,1,26,111.18Z"/><path class="cls-5" d="M29.06,114.26a.77.77,0,1,1-1.1-1.09.78.78,0,0,1,1.1,0A.77.77,0,0,1,29.06,114.26Z"/><path class="cls-5" d="M31.74,116.91a.77.77,0,0,1-1.1,0,.76.76,0,0,1,0-1.09.77.77,0,0,1,1.1,1.09Z"/></g></g></svg>