<svg xmlns="http://www.w3.org/2000/svg" viewBox="0 0 134.01 88.28"><defs><style>.cls-1{fill:#c60000;}.cls-2{fill:#fff;}.cls-3{fill:#b7b1a9;}.cls-4{fill:#eac311;}.cls-5{fill:#5a5b52;}</style></defs><title>Asset 2</title><g id="Layer_2" data-name="Layer 2"><g id="Layer_1-2" data-name="Layer 1"><path d="M30.47,10.89q-9.6,1.32-19.16,3.22Q17.48,50.65,23.63,87.2q7.77-1.55,15.58-2.62Q34.85,47.74,30.47,10.89Z"/><path class="cls-1" d="M5.6,15.29a6.89,6.89,0,0,0-5.47,7.9q6,29.94,12.08,59.87c.72,3.51,3.75,5.76,6.78,5.1,1.55-.33,3.09-.66,4.64-1Q17.48,50.66,11.31,14.11C9.41,14.49,7.5,14.88,5.6,15.29Z"/><path class="cls-2" d="M24.5,21.19q-4.8.76-9.57,1.68c0,.23.07.46.11.69q4.77-.91,9.55-1.68Z"/><path class="cls-3" d="M24.69,22.57c0-.23-.07-.46-.1-.69q-4.78.77-9.55,1.68c0,.23.07.46.11.69Q19.91,23.34,24.69,22.57Z"/><path class="cls-2" d="M9.46,24.68a3.32,3.32,0,0,0,4,2.48Q13,24,12.44,20.77A3.54,3.54,0,0,0,9.46,24.68Z"/><path class="cls-3" d="M16.5,23.29a3.3,3.3,0,0,0-4.06-2.52Q13,24,13.51,27.16A3.56,3.56,0,0,0,16.5,23.29Z"/><path class="cls-2" d="M25.73,30.13c-3.13.5-6.24,1.05-9.35,1.65,0,.23.07.46.11.69,3.11-.6,6.21-1.14,9.33-1.65C25.79,30.59,25.75,30.36,25.73,30.13Z"/><path class="cls-3" d="M25.91,31.52l-.09-.7c-3.12.51-6.22,1.05-9.33,1.65,0,.23.07.46.11.68C19.7,32.56,22.81,32,25.91,31.52Z"/><path class="cls-2" d="M11,33.56a3.28,3.28,0,0,0,4,2.5c-.36-2.14-.71-4.26-1.07-6.39A3.48,3.48,0,0,0,11,33.56Z"/><path class="cls-3" d="M17.92,32.2a3.26,3.26,0,0,0-4-2.53c.36,2.13.71,4.25,1.07,6.39A3.53,3.53,0,0,0,17.92,32.2Z"/><path class="cls-2" d="M27,39.08q-4.56.73-9.12,1.6c0,.23.07.46.11.69,3-.58,6.07-1.11,9.1-1.6Q27,39.42,27,39.08Z"/><path class="cls-3" d="M27.14,40.46c0-.23-.06-.46-.1-.69-3,.49-6.07,1-9.1,1.6,0,.23.08.46.11.69Q22.6,41.19,27.14,40.46Z"/><path class="cls-2" d="M12.62,42.44A3.23,3.23,0,0,0,16.51,45q-.54-3.2-1.07-6.38A3.43,3.43,0,0,0,12.62,42.44Z"/><path class="cls-3" d="M19.33,41.11a3.19,3.19,0,0,0-3.89-2.54Q16,41.75,16.51,45A3.46,3.46,0,0,0,19.33,41.11Z"/><path class="cls-2" d="M28.18,48q-4.45.72-8.9,1.57c0,.23.07.46.11.69q4.44-.86,8.88-1.57Z"/><path class="cls-3" d="M28.37,49.41c0-.23-.06-.46-.1-.7q-4.44.72-8.88,1.57c0,.23.08.46.11.69C22.46,50.4,25.41,49.88,28.37,49.41Z"/><path class="cls-2" d="M14.2,51.32A3.19,3.19,0,0,0,18,53.85l-1.08-6.39A3.4,3.4,0,0,0,14.2,51.32Z"/><path class="cls-3" d="M20.75,50a3.18,3.18,0,0,0-3.82-2.56L18,53.85A3.42,3.42,0,0,0,20.75,50Z"/><path class="cls-2" d="M29.41,57q-4.35.69-8.68,1.53c0,.23.08.46.11.68q4.32-.82,8.66-1.52Z"/><path class="cls-3" d="M29.6,58.35c0-.23-.06-.46-.1-.69q-4.34.69-8.66,1.52c0,.24.08.46.12.69Q25.26,59,29.6,58.35Z"/><path class="cls-2" d="M15.78,60.2a3.15,3.15,0,0,0,3.73,2.54l-1.08-6.38A3.35,3.35,0,0,0,15.78,60.2Z"/><path class="cls-3" d="M22.17,58.93a3.13,3.13,0,0,0-3.74-2.57l1.08,6.38A3.39,3.39,0,0,0,22.17,58.93Z"/><path class="cls-2" d="M30.64,65.91q-4.25.68-8.46,1.49l.12.69q4.2-.81,8.43-1.49Z"/><path class="cls-3" d="M30.83,67.29c0-.22-.07-.46-.1-.69q-4.23.68-8.43,1.49c0,.23.07.46.11.69C25.21,68.24,28,67.75,30.83,67.29Z"/><path class="cls-2" d="M17.36,69.08A3.12,3.12,0,0,0,21,71.64l-1.08-6.39A3.32,3.32,0,0,0,17.36,69.08Z"/><path class="cls-3" d="M23.58,67.84a3.09,3.09,0,0,0-3.65-2.59L21,71.64A3.33,3.33,0,0,0,23.58,67.84Z"/><path class="cls-2" d="M31.87,74.86c-2.75.44-5.5.92-8.23,1.45,0,.23.07.46.1.68q4.11-.78,8.22-1.44C31.93,75.32,31.89,75.09,31.87,74.86Z"/><path class="cls-3" d="M32.05,76.24c0-.23-.06-.46-.09-.69q-4.11.66-8.22,1.44l.12.69C26.58,77.16,29.32,76.68,32.05,76.24Z"/><path class="cls-2" d="M19,78a3.06,3.06,0,0,0,3.56,2.57l-1.08-6.38A3.26,3.26,0,0,0,19,78Z"/><path class="cls-3" d="M25,76.76a3,3,0,0,0-3.57-2.61l1.08,6.38A3.28,3.28,0,0,0,25,76.76Z"/><path class="cls-1" d="M20.94,12.32q4.62,32.3,9.25,64.57c.72,4.89,4.93,8.22,9.41,7.61q7.51-1,15.06-1.62-2.79-40-5.59-80Q38,3.74,27,5.34A6.88,6.88,0,0,0,20.94,12.32Z"/><path class="cls-1" d="M127.94,6q-11-1.75-22.09-2.78l-5.7,80q9.55.89,19.06,2.45c3.64.61,4.66-2.52,5-5.16Q129.1,47,134,13.6A7,7,0,0,0,127.94,6Z"/><path class="cls-4" d="M51.88,83.11l2.78-.23q-2.79-40-5.59-80c-1.16.1-2.32.19-3.48.3Q48.74,43.13,51.88,83.11Z"/><path d="M54.66,82.88c.86-1.07,1.73-2.13,2.61-3.19Q55,42.63,52.73,5.56c-1.22-.91-2.43-1.81-3.66-2.71Q51.86,42.87,54.66,82.88Z"/><path class="cls-5" d="M60.35,82.49c-1-.94-2.05-1.87-3.08-2.8Q55,42.63,52.73,5.56q1.7-1.6,3.44-3.19Q58.26,42.43,60.35,82.49Z"/><path d="M60.35,82.48c.88-1,1.77-2.09,2.66-3.14q-1.62-37.1-3.23-74.2Q58,3.75,56.17,2.36,58.26,42.43,60.35,82.48Z"/><path class="cls-5" d="M66,82.21c-1-1-2-1.92-3-2.87q-1.62-37.1-3.23-74.2Q61.51,3.58,63.28,2,64.66,42.13,66,82.21Z"/><path class="cls-4" d="M100.15,83.17l2.79.27,6.39-79.88-3.48-.34Z"/><path class="cls-2" d="M48.94,1a1.15,1.15,0,0,0-1.13,1.15c.19,2.58.38,5.17.56,7.75l1.19-.1C49.35,6.9,49.15,4,48.94,1Z"/><path class="cls-2" d="M53.19,76l.57,7.77a1,1,0,0,0,1,1q-.3-4.41-.62-8.82Z"/><path class="cls-3" d="M54.79,84.7a1,1,0,0,0,.89-1.12c-.17-2.6-.35-5.19-.52-7.78l-1,.08Q54.49,80.29,54.79,84.7Z"/><path class="cls-3" d="M50.74,9.74c-.17-2.58-.35-5.17-.52-7.75a1.13,1.13,0,0,0-1.28-1c.21,2.93.41,5.87.62,8.8Z"/><path class="cls-2" d="M56.07.53a1.14,1.14,0,0,0-1.15,1.13q.22,3.87.43,7.76l1.18-.07Q56.31,4.94,56.07.53Z"/><path class="cls-2" d="M59,75.53c.14,2.59.29,5.19.43,7.78a1,1,0,0,0,1,1c-.16-3-.31-5.9-.47-8.84Z"/><path class="cls-3" d="M60.45,84.31a1,1,0,0,0,.9-1.11q-.18-3.9-.38-7.78l-1,0C60.14,78.41,60.29,81.36,60.45,84.31Z"/><path class="cls-3" d="M57.71,9.28q-.18-3.88-.38-7.76a1.13,1.13,0,0,0-1.26-1q.24,4.41.46,8.82Z"/><path d="M66,82.23l2.71-3.08L66.82,4.91C65.64,4,64.46,3,63.26,2Q64.64,42.15,66,82.23Z"/><path class="cls-5" d="M71.73,82.09c-1-1-2-2-3-2.94L66.82,4.91c1.17-1,2.36-2,3.55-3Q71,42,71.73,82.09Z"/><path class="cls-2" d="M63.19.22A1.12,1.12,0,0,0,62,1.31q.13,3.9.29,7.77L63.5,9Q63.35,4.63,63.19.22Z"/><path class="cls-2" d="M64.8,75.25l.3,7.8a1,1,0,0,0,1,1c-.11-3-.21-5.89-.31-8.85Z"/><path class="cls-3" d="M66.1,84.06A1,1,0,0,0,67,83l-.24-7.79-1,0C65.89,78.17,66,81.11,66.1,84.06Z"/><path class="cls-3" d="M64.69,9q-.14-3.88-.25-7.77a1.14,1.14,0,0,0-1.25-1q.16,4.41.31,8.82Z"/><path d="M71.73,82.06c.91-1,1.84-2,2.77-3q-.31-37.13-.62-74.26Q72.14,3.3,70.37,1.83,71,42,71.73,82.06Z"/><path class="cls-5" d="M77.43,82c-1-1-2-2-2.93-3q-.31-37.13-.62-74.26c1.19-1,2.4-2,3.61-3Z"/><path class="cls-2" d="M70.34,0a1.13,1.13,0,0,0-1.19,1.07c0,2.59.11,5.18.16,7.77l1.18,0Z"/><path class="cls-2" d="M70.63,75.06l.15,7.79a1,1,0,0,0,1,1L71.61,75Z"/><path class="cls-3" d="M71.76,83.89a1,1,0,0,0,.95-1.07q-.06-3.88-.11-7.79h-1Z"/><path class="cls-3" d="M71.68,8.82Q71.62,4.94,71.57,1a1.15,1.15,0,0,0-1.23-1l.15,8.82Z"/><path d="M77.42,82.06c.93-1,1.87-2,2.82-3l.69-74.26c-1.14-1-2.3-2-3.46-3Q77.44,41.94,77.42,82.06Z"/><path class="cls-5" d="M83.12,82.16c-1-1-1.91-2-2.88-3.06l.69-74.26Q82.75,3.39,84.59,2Z"/><path class="cls-2" d="M77.47,0a1.14,1.14,0,0,0-1.21,1.05q0,3.89,0,7.77h1.19Z"/><path class="cls-2" d="M76.44,75c0,2.6,0,5.2,0,7.8a1,1,0,0,0,1,1V75Z"/><path class="cls-3" d="M77.42,83.88a1,1,0,0,0,1-1l0-7.8h-1Z"/><path class="cls-3" d="M78.65,8.83l0-7.77A1.15,1.15,0,0,0,77.47,0V8.82Z"/><path d="M83.09,82.17c1-1,1.91-1.94,2.87-2.9Q87,42.16,88,5C86.84,4,85.7,3,84.56,2Z"/><path class="cls-5" d="M88.79,82.39c-.93-1-1.87-2.09-2.83-3.12Q87,42.16,88,5c1.23-.94,2.46-1.88,3.71-2.81Z"/><path class="cls-2" d="M84.59.13a1.13,1.13,0,0,0-1.23,1c0,2.59-.07,5.18-.12,7.77l1.19,0C84.48,6,84.54,3.07,84.59.13Z"/><path class="cls-2" d="M82.23,75.12c0,2.6-.08,5.19-.11,7.79A1,1,0,0,0,83.06,84c0-2.95.11-5.9.16-8.84Z"/><path class="cls-3" d="M83.06,84a1,1,0,0,0,1-1c.06-2.6.11-5.2.17-7.8l-1,0C83.17,78.09,83.11,81,83.06,84Z"/><path class="cls-3" d="M85.62,9q.07-3.88.16-7.77A1.16,1.16,0,0,0,84.59.13c0,2.94-.11,5.88-.16,8.82Z"/><path d="M88.78,82.4l2.92-2.84Q93.35,42.5,95,5.41q-1.67-1.59-3.36-3.16Q90.23,42.33,88.78,82.4Z"/><path class="cls-5" d="M94.48,82.74,91.7,79.56Q93.35,42.5,95,5.41c1.24-.92,2.5-1.83,3.76-2.73Q96.61,42.72,94.48,82.74Z"/><path class="cls-2" d="M91.72.43a1.11,1.11,0,0,0-1.24,1c-.09,2.59-.17,5.18-.26,7.77l1.19.05C91.51,6.3,91.62,3.36,91.72.43Z"/><path class="cls-2" d="M88,75.34c-.08,2.6-.17,5.19-.25,7.79a1,1,0,0,0,.92,1.1c.11-3,.21-5.89.32-8.84Z"/><path class="cls-3" d="M88.71,84.23a1,1,0,0,0,1-1q.17-3.9.31-7.79l-1,0C88.92,78.34,88.82,81.28,88.71,84.23Z"/><path class="cls-3" d="M92.59,9.3l.3-7.76A1.15,1.15,0,0,0,91.72.43c-.1,2.93-.21,5.87-.31,8.81Z"/><path d="M94.46,82.7c1-.93,2-1.86,3-2.78q2.31-37,4.62-74.06l-3.3-3.23Z"/><path class="cls-5" d="M100.15,83.16c-.89-1.08-1.8-2.16-2.72-3.24q2.31-37,4.62-74.06,1.89-1.34,3.8-2.65Z"/><path class="cls-2" d="M98.85.81a1.11,1.11,0,0,0-1.27,1l-.39,7.76,1.18.08Z"/><path class="cls-2" d="M93.85,75.63c-.14,2.59-.26,5.18-.4,7.78a1,1,0,0,0,.91,1.11l.48-8.83Z"/><path class="cls-3" d="M94.36,84.52a1,1,0,0,0,1-1c.15-2.59.29-5.19.44-7.78l-1-.07Z"/><path class="cls-2" d="M99.67,76.07c-.18,2.59-.36,5.19-.53,7.78A1,1,0,0,0,100,85l.63-8.82C100.32,76.13,100,76.11,99.67,76.07Z"/><path class="cls-3" d="M100,85a1,1,0,0,0,1-1c.19-2.58.39-5.17.58-7.76l-1-.1Z"/><path class="cls-3" d="M99.56,9.7c.14-2.58.29-5.17.43-7.76A1.15,1.15,0,0,0,98.85.81l-.48,8.8Z"/><path class="cls-2" d="M106,1.39a1.12,1.12,0,0,0-1.29.94q-.26,3.87-.53,7.74l1.19.11Z"/><path class="cls-3" d="M106.54,10.29q.28-3.87.58-7.74A1.17,1.17,0,0,0,106,1.39l-.63,8.79Z"/><path class="cls-4" d="M36.76,21.24q2.81-3.21,5.72-6.37l-1.72-1.24q-2.9,3.17-5.7,6.39-3.43-2.43-6.94-4.79c-.47.55-.94,1.09-1.4,1.65,2.34,1.55,4.66,3.14,6.94,4.75q-2.79,3.24-5.47,6.53c2.28,1.59,4.53,3.18,6.76,4.8q-2.7,3.23-5.29,6.5,3.33,2.38,6.57,4.83c-1.73,2.14-3.44,4.29-5.1,6.46,2.16,1.62,4.29,3.23,6.39,4.87-1.26,1.59-2.49,3.2-3.71,4.82-.41.53-.81,1.07-1.21,1.61l1.56,1.21c1.57,1.21,3.11,2.42,4.64,3.66q-2.41,3.18-4.74,6.41l1.52,1.22q2.33-3.22,4.74-6.4c2,1.66,4,3.34,6,5,.4-.52.81-1,1.22-1.56-2-1.71-4-3.39-6-5.06C42.76,65,44,63.42,45.25,61.85l1.26-1.56c-.5-.43-1-.85-1.52-1.27q-2.3-1.91-4.64-3.76,2.52-3.18,5.16-6.31c-2.09-1.71-4.21-3.38-6.36-5q2.63-3.2,5.34-6.33c-2.15-1.7-4.32-3.37-6.53-5,1.81-2.13,3.65-4.25,5.53-6.34Q40.16,23.69,36.76,21.24Zm7,39.35Q41.84,62.94,40,65.33q-2.3-1.86-4.63-3.69,1.83-2.4,3.7-4.79C40.65,58.08,42.19,59.33,43.73,60.59ZM42.64,49.25q-2,2.37-3.87,4.77C37.2,52.78,35.6,51.56,34,50.34q1.9-2.43,3.85-4.83C39.46,46.75,41.06,48,42.64,49.25ZM41.53,37.9q-2,2.39-4,4.78Q35.1,40.84,32.61,39q2-2.43,4-4.85C38.26,35.41,39.91,36.65,41.53,37.9ZM31.23,27.72c1.36-1.63,2.74-3.26,4.13-4.87q2.56,1.83,5.07,3.7c-1.39,1.59-2.78,3.19-4.14,4.8C34.62,30.13,32.94,28.92,31.23,27.72Z"/><path class="cls-4" d="M37.42,26.74A1.6,1.6,0,0,1,36,28.42a1.52,1.52,0,0,1-1.77-1.27,1.58,1.58,0,0,1,1.44-1.69A1.53,1.53,0,0,1,37.42,26.74Z"/><path class="cls-4" d="M38.61,38.1a1.57,1.57,0,0,1-1.39,1.67,1.5,1.5,0,0,1-1.72-1.28,1.56,1.56,0,0,1,1.39-1.68A1.5,1.5,0,0,1,38.61,38.1Z"/><path class="cls-4" d="M41,60.81a1.52,1.52,0,0,1-1.3,1.66,1.45,1.45,0,0,1-1.62-1.29,1.5,1.5,0,0,1,1.3-1.67A1.45,1.45,0,0,1,41,60.81Z"/><path class="cls-4" d="M39.81,49.45a1.54,1.54,0,0,1-1.35,1.67,1.47,1.47,0,0,1-1.67-1.28,1.54,1.54,0,0,1,1.35-1.68A1.48,1.48,0,0,1,39.81,49.45Z"/><path class="cls-4" d="M121.33,22.23q3.44-2.37,7-4.66c-.46-.56-.92-1.12-1.39-1.67q-3.52,2.31-7,4.7-2.81-3.27-5.71-6.48l-1.71,1.23q2.89,3.2,5.71,6.44-3.42,2.41-6.74,4.89c1.87,2.14,3.72,4.28,5.53,6.44-2.22,1.61-4.4,3.25-6.56,4.9q2.73,3.19,5.35,6.42c-2.16,1.61-4.28,3.26-6.37,4.92,1.74,2.13,3.47,4.26,5.15,6.4q-2.34,1.83-4.65,3.7L108.4,60.7l1.26,1.59q1.89,2.37,3.72,4.77-3.06,2.44-6,5l1.21,1.58q3-2.51,6-5,2.41,3.21,4.74,6.46l1.52-1.19q-2.31-3.27-4.73-6.49,2.3-1.81,4.65-3.59l1.57-1.18L121.13,61c-1.22-1.63-2.46-3.26-3.71-4.87q3.17-2.41,6.4-4.75c-1.66-2.22-3.37-4.4-5.1-6.56,2.17-1.6,4.36-3.17,6.59-4.72q-2.59-3.33-5.29-6.59,3.35-2.38,6.78-4.69C125,26.61,123.19,24.42,121.33,22.23Zm-1.78,40q-2.34,1.78-4.65,3.62c-1.22-1.61-2.45-3.21-3.71-4.8,1.54-1.23,3.09-2.46,4.65-3.67C117.1,59,118.33,60.59,119.55,62.22ZM121,50.94c-1.62,1.18-3.22,2.39-4.8,3.6-1.27-1.62-2.56-3.22-3.86-4.82q2.37-1.86,4.8-3.67C118.41,47.67,119.69,49.3,121,50.94Zm1.39-11.3c-1.66,1.18-3.31,2.38-4.93,3.59-1.32-1.62-2.65-3.24-4-4.84q2.44-1.85,4.94-3.65Q120.39,37.18,122.35,39.64Zm-7.81-12.58c1.67-1.23,3.37-2.44,5.08-3.64,1.4,1.63,2.77,3.28,4.13,4.93q-2.56,1.75-5.08,3.56C117.31,30.28,115.93,28.67,114.54,27.06Z"/><path class="cls-4" d="M120.77,27.73A1.51,1.51,0,0,1,119,29a1.61,1.61,0,0,1-1.44-1.7A1.5,1.5,0,0,1,119.33,26,1.61,1.61,0,0,1,120.77,27.73Z"/><path class="cls-4" d="M119.46,39.06a1.48,1.48,0,0,1-1.72,1.26,1.58,1.58,0,0,1-1.39-1.7,1.48,1.48,0,0,1,1.72-1.26A1.58,1.58,0,0,1,119.46,39.06Z"/><path class="cls-4" d="M116.85,61.71A1.43,1.43,0,0,1,115.22,63a1.53,1.53,0,0,1-1.29-1.68A1.42,1.42,0,0,1,115.55,60,1.55,1.55,0,0,1,116.85,61.71Z"/><path class="cls-4" d="M118.15,50.39a1.44,1.44,0,0,1-1.67,1.26A1.57,1.57,0,0,1,115.13,50a1.46,1.46,0,0,1,1.68-1.27A1.55,1.55,0,0,1,118.15,50.39Z"/></g></g></svg>