<svg xmlns="http://www.w3.org/2000/svg" viewBox="0 0 166.07 244.83"><defs><style>.cls-1{fill:#bca068;}.cls-2{fill:#966046;}.cls-3{fill:#ffc42c;}.cls-4{fill:#ffd74d;}.cls-5,.cls-7{fill:#fff;}.cls-6{fill:#443f44;}.cls-14,.cls-7{opacity:0.75;}.cls-8{fill:#adeaea;}.cls-9{fill:#c1f4f3;}.cls-10{fill:#f6f2f7;}.cls-11{fill:#fb9900;}.cls-11,.cls-12{opacity:0.9;}.cls-12{fill:#e41a00;}.cls-13{fill:#ba170f;opacity:0.5;}.cls-15{fill:#c6964f;}.cls-16{fill:#dd1212;}.cls-17{fill:#c41616;}</style></defs><title>Asset 1</title><g id="Layer_2" data-name="Layer 2"><g id="Objects"><ellipse class="cls-1" cx="101.49" cy="235.29" rx="61.4" ry="9.54"/><path class="cls-2" d="M162.73,32.59l2.88-2C154.87,3.64,125.19-7.61,99.3,5.43c-.33.17-.65.35-1,.53l.79,3.36C123.77-2.11,151.4,8.08,162.73,32.59Z"/><path class="cls-3" d="M102.22,7.13l-.87.42,14.71,52.68,46.83-30.1A45.89,45.89,0,0,0,102.22,7.13Z"/><path class="cls-4" d="M121.27,4.68c-2.83-.35-7.8-.29-11.28,1.1l6.28,53.79,1-1.52Z"/><path class="cls-4" d="M144.33,11.34a17.76,17.76,0,0,0-10.08-4.85L118.93,48.68l-.56,3.47Z"/><path class="cls-4" d="M160.79,31.31c-.18-3.12-2.37-7-5.21-9.66L116.06,60.23Z"/><path class="cls-5" d="M129.82,68.33c2.65-14.6,17.6-24.31,17.77-24.4l11-7.39H40.09l9.45,7.39c.18.09,15.13,9.8,17.78,24.4,1.32,7.3-2.88,14.85-9.38,22.45-11.11,13-16.5,35.4-8.33,53.15,4.62,10,14,19.57,39.89,20.5,1.2,11.17,1.31,42.22-9.41,57.73-3.91,5.64-8.71,10.45-14.69,11.45l-3.28.56v1.36H135v-1.36l-3.29-.56c-6-1-10.78-5.81-14.68-11.45-10.72-15.51-10.61-45.77-9.41-56.95,25.89-.92,35.26-11.24,39.88-21.28,8.17-17.75,2.78-40.17-8.33-53.15C132.69,83.18,128.49,75.63,129.82,68.33Z"/><path class="cls-6" d="M0,15.09,43.45,4.87c5.08-1.2,10-.29,13.66,6.49l49.47,103.26-6,1.42L51.88,16.13c-2.61-6-5.47-6-10.22-4.88L1.33,20.74Z"/><path class="cls-7" d="M129.82,68.33c2.65-14.6,17.6-24.31,17.77-24.4l11-7.39H40.09l9.45,7.39c.18.09,15.13,9.8,17.78,24.4,1.32,7.3-2.88,14.85-9.38,22.45-11.11,13-16.5,35.4-8.33,53.15,4.62,10,14,19.57,39.89,20.5,1.2,11.17,1.31,42.22-9.41,57.73-3.91,5.64-8.71,10.45-14.69,11.45l-3.28.56v1.36H135v-1.36l-3.29-.56c-6-1-10.78-5.81-14.68-11.45-10.72-15.51-10.61-45.77-9.41-56.95,25.89-.92,35.26-11.24,39.88-21.28,8.17-17.75,2.78-40.17-8.33-53.15C132.69,83.18,128.49,75.63,129.82,68.33Z"/><rect class="cls-8" x="84.69" y="71.11" width="19.63" height="19.19" rx="2.21" ry="2.21" transform="translate(1.7 163.36) rotate(-82.18)"/><rect class="cls-9" x="107.5" y="76.86" width="19.63" height="19.2" rx="2.21" ry="2.21" transform="translate(15.7 190.92) rotate(-82.18)"/><path class="cls-10" d="M74.75,80.68H89.52a2.21,2.21,0,0,1,2.21,2.21V98.1a2.22,2.22,0,0,1-2.22,2.22H74.75a2.21,2.21,0,0,1-2.21-2.21V82.9A2.21,2.21,0,0,1,74.75,80.68Z" transform="matrix(0.97, -0.26, 0.26, 0.97, -20.44, 24.05)"/><rect class="cls-8" x="92.65" y="80.68" width="19.2" height="19.63" rx="2.21" ry="2.21" transform="translate(-13.39 17.88) rotate(-9.38)"/><path class="cls-11" d="M104.85,159.09c50.21,0,49-44.87,30.25-67.08a47.59,47.59,0,0,1-3.46-4.64c-9.49-2.88-19.57-5.15-25.69-4.06-7.1,1.27-23.66,9.54-38.45,2.93l-.77-.31A45.31,45.31,0,0,1,62.38,92c-18.74,22.21-20,67.08,30.25,67.08h.14c.17.89,11.75,1,11.94,0Z"/><path class="cls-12" d="M130,114.86c-8.52-3.51-19.93,5.71-28.42,5.4s-12.45-2.91-19.25-1.59-12.16,5.26-23.36,0a9.56,9.56,0,0,0-8.1-.37c-2.66,20.19,7.75,40.79,41.77,40.79h.14c.17.89,11.75,1,11.94,0h.14c30,0,41.63-16,42.15-33.65C139.1,125.08,136.76,117.64,130,114.86Z"/><path class="cls-13" d="M104.85,148.34h-.14c-.19,1-11.77.89-11.94,0h-.14c-27.67,0-39.72-13.63-41.82-29.58-2.44,20,8.06,40.33,41.82,40.33h.14c.17.89,11.75,1,11.94,0h.14c30,0,41.63-16,42.15-33.65a12.31,12.31,0,0,1-1.79-.23C140.93,138.21,128.7,148.34,104.85,148.34Z"/><g class="cls-14"><path class="cls-15" d="M84.73,108.12l-2.32.26C80,127.49,93.72,143.54,113,144.23h.73l.62-2.22C96.3,140.79,83.48,126,84.73,108.12Z"/><path class="cls-3" d="M111.81,142.31l.63,0,8.3-35.37L83.85,109.5A30.48,30.48,0,0,0,111.81,142.31Z"/><path class="cls-4" d="M99.93,137.64a17.31,17.31,0,0,0,6.92,3l13.56-33.33-1.1.55Z"/><path class="cls-4" d="M88.64,126.38A11.82,11.82,0,0,0,93,132.43l22.43-19.66,1.43-1.84Z"/><path class="cls-4" d="M85.45,109.49a10.59,10.59,0,0,0-.06,7.28l35.35-9.8Z"/></g><path class="cls-13" d="M131.64,87.37c-9.49-2.88-19.57-5.15-25.69-4.06a72.34,72.34,0,0,0-7.21,2v74.47c2.94,0,5.87-.21,6-.7h.14c50.21,0,49-44.87,30.25-67.08A47.59,47.59,0,0,1,131.64,87.37Z"/><path class="cls-16" d="M129.12,36.88A9.17,9.17,0,1,1,120,27.71,9.18,9.18,0,0,1,129.12,36.88Z"/><path class="cls-17" d="M128.72,34.2a9.16,9.16,0,0,1-17.83,1.33,8.58,8.58,0,0,0-.11,1.35,9.17,9.17,0,1,0,17.94-2.68Z"/><path class="cls-6" d="M118.83,32.77S133.4,6.92,163.35,3.07l2.72,2.31S134.8,13.37,118.83,32.77Z"/></g></g></svg>