<svg xmlns="http://www.w3.org/2000/svg" viewBox="0 0 130.15 227.15"><defs><style>.cls-1{fill:#bca068;}.cls-2,.cls-4{fill:#fff;}.cls-3{fill:#443f44;}.cls-10,.cls-4{opacity:0.75;}.cls-5{fill:#adeaea;}.cls-6{fill:#c1f4f3;}.cls-7{fill:#f6f2f7;}.cls-8{fill:#fb9900;}.cls-8,.cls-9{opacity:0.9;}.cls-14,.cls-9{fill:#dd8007;}.cls-11{fill:#c6964f;}.cls-12{fill:#ffc42c;}.cls-13{fill:#ffd74d;}.cls-14,.cls-17{opacity:0.5;}.cls-15{fill:#dd1212;}.cls-16{fill:#c41616;}.cls-18{fill:#c2cd43;}.cls-19{fill:#7ba81a;}</style></defs><title>Asset 5</title><g id="Layer_2" data-name="Layer 2"><g id="Objects"><ellipse class="cls-1" cx="68.74" cy="217.6" rx="61.4" ry="9.54"/><path class="cls-2" d="M98.56,53.88h-62c-.2,6.29-4,12.74-9.6,19.22-11.11,13-16.5,35.4-8.33,53.15,4.63,10,14,20.36,39.89,21.28,1.2,11.18,1.31,41.44-9.41,56.94-3.91,5.65-8.71,10.46-14.69,11.46l-3.28.55v1.37H104v-1.37l-3.29-.55c-6-1-10.78-5.81-14.68-11.46C75.3,189,75.41,157.92,76.61,146.75c25.89-.93,35.26-10.46,39.88-20.5,8.18-17.75,2.78-40.17-8.32-53.15C102.62,66.62,98.76,60.17,98.56,53.88Z"/><path class="cls-3" d="M0,6,44.25.15c5.17-.68,10,.72,13,7.83L96.11,115.66l-6.12.81L51.52,12.2c-2-6.24-4.85-6.51-9.69-5.87L.76,11.74Z"/><path class="cls-4" d="M98.56,53.88h-62c-.2,6.29-4,12.74-9.6,19.22-11.11,13-16.5,35.4-8.33,53.15,4.63,10,14,20.36,39.89,21.28,1.2,11.18,1.31,41.44-9.41,56.94-3.91,5.65-8.71,10.46-14.69,11.46l-3.28.55v1.37H104v-1.37l-3.29-.55c-6-1-10.78-5.81-14.68-11.46C75.3,189,75.41,157.92,76.61,146.75c25.89-.93,35.26-10.46,39.88-20.5,8.18-17.75,2.78-40.17-8.32-53.15C102.62,66.62,98.76,60.17,98.56,53.88Z"/><path class="cls-5" d="M63.12,71.86a2.22,2.22,0,0,0,2.5,1.89l14.63-2a2.2,2.2,0,0,0,1.89-2.49L80.07,54.19a2.2,2.2,0,0,0-2.49-1.89L63,54.3a2.22,2.22,0,0,0-1.89,2.5Z"/><path class="cls-6" d="M41.41,59H56.18a2.21,2.21,0,0,1,2.21,2.21v15.2a2.22,2.22,0,0,1-2.22,2.22H41.41a2.21,2.21,0,0,1-2.21-2.21V61.17A2.22,2.22,0,0,1,41.41,59Z" transform="translate(-8.9 7.28) rotate(-7.82)"/><path class="cls-7" d="M72.75,77.7a2.21,2.21,0,0,0,1.57,2.71L88.6,84.19a2.2,2.2,0,0,0,2.7-1.57l3.9-14.69a2.22,2.22,0,0,0-1.58-2.71L79.35,61.44A2.21,2.21,0,0,0,76.64,63Z"/><path class="cls-5" d="M53.15,78.75A2.21,2.21,0,0,0,55,81.29L69.54,83.7a2.22,2.22,0,0,0,2.55-1.82l2.48-15a2.21,2.21,0,0,0-1.83-2.54L58.18,61.93a2.22,2.22,0,0,0-2.55,1.82Z"/><path class="cls-8" d="M61.25,141.4C11,141.4,12.27,96.54,31,74.33a46.1,46.1,0,0,0,3.46-4.65C44,66.81,54,64.53,60.16,65.63c7.1,1.26,23.66,9.53,38.45,2.93l.77-.31a44.43,44.43,0,0,0,4.35,6.08c18.73,22.21,20,67.07-30.25,67.07h-.14c-.18.89-11.75,1-11.94,0Z"/><path class="cls-9" d="M61.25,130.66h.15c.19,1,11.76.88,11.94,0h.14c27.67,0,39.71-13.63,41.82-29.58,2.43,20-8.06,40.32-41.82,40.32h-.14c-.18.89-11.75,1-11.94,0h-.15c-30,0-41.63-16-42.14-33.64a11.2,11.2,0,0,0,1.79-.24C25.17,120.53,37.41,130.66,61.25,130.66Z"/><g class="cls-10"><path class="cls-11" d="M81.38,90.44l2.32.25c2.37,19.12-11.31,35.17-30.56,35.86-.24,0-.48,0-.73,0l-.61-2.21C69.8,123.11,82.63,108.33,81.38,90.44Z"/><path class="cls-12" d="M54.3,124.62l-.64,0-8.3-35.37,36.9,2.53A30.47,30.47,0,0,1,54.3,124.62Z"/><path class="cls-13" d="M66.17,120a16.93,16.93,0,0,1-6.91,3L45.7,89.6l1.09.55Z"/><path class="cls-13" d="M77.47,108.7a11.83,11.83,0,0,1-4.32,6L50.73,95.09l-1.44-1.84Z"/><path class="cls-13" d="M80.66,91.81a10.65,10.65,0,0,1,.06,7.28l-35.36-9.8Z"/></g><path class="cls-14" d="M99.38,68.25l-.77.31c-11.24,5-23.5,1.45-31.86-1.11v74.66c3.13,0,6.49-.23,6.59-.71h.14c50.21,0,49-44.86,30.25-67.07A44.43,44.43,0,0,1,99.38,68.25Z"/><path class="cls-15" d="M42.94,51.59a9.17,9.17,0,1,0,9.17-9.17A9.17,9.17,0,0,0,42.94,51.59Z"/><path class="cls-16" d="M43.34,48.92a9.17,9.17,0,0,0,17.84,1.33,9.83,9.83,0,0,1,.1,1.34,9.17,9.17,0,0,1-18.34,0A9,9,0,0,1,43.34,48.92Z"/><path class="cls-3" d="M53.23,47.49S38.66,21.63,8.71,17.78L6,20.1S37.26,28.09,53.23,47.49Z"/><g class="cls-17"><path class="cls-18" d="M97,124.35s-26.89-5.51-3.34-31.42C93.64,92.93,119,114.28,97,124.35Z"/><path class="cls-19" d="M96.51,124.24,93.64,92.93C71.93,116.8,93.06,123.35,96.51,124.24Z"/></g><g class="cls-17"><path class="cls-18" d="M35.6,122s-20.93-10.53,4.24-26.63C39.84,95.32,56,118.57,35.6,122Z"/><path class="cls-19" d="M35.23,121.75l4.61-26.43C16.65,110.16,32.59,120.26,35.23,121.75Z"/></g><path class="cls-14" d="M44.13,83.62a3,3,0,1,1-3-3A2.95,2.95,0,0,1,44.13,83.62Z"/><path class="cls-14" d="M64,117.86a2.95,2.95,0,1,1-3-3A2.95,2.95,0,0,1,64,117.86Z"/><path class="cls-14" d="M76.32,127.61a2.95,2.95,0,1,1-2.95-3A2.95,2.95,0,0,1,76.32,127.61Z"/><path class="cls-14" d="M96.4,82.48a3,3,0,1,1-3-3A2.95,2.95,0,0,1,96.4,82.48Z"/><path class="cls-14" d="M110.53,99.55a3,3,0,1,1-3-3A2.95,2.95,0,0,1,110.53,99.55Z"/><path class="cls-14" d="M62.81,97.78A1.78,1.78,0,1,1,61,96,1.77,1.77,0,0,1,62.81,97.78Z"/><path class="cls-14" d="M89.55,88.23a1.78,1.78,0,1,1-1.78-1.77A1.78,1.78,0,0,1,89.55,88.23Z"/><path class="cls-14" d="M54.89,115.76A1.77,1.77,0,1,1,53.12,114,1.77,1.77,0,0,1,54.89,115.76Z"/><path class="cls-14" d="M33.62,109.89a1.77,1.77,0,1,1-1.77-1.77A1.77,1.77,0,0,1,33.62,109.89Z"/><path class="cls-14" d="M73.37,77.75A1.77,1.77,0,1,1,71.6,76,1.78,1.78,0,0,1,73.37,77.75Z"/></g></g></svg>