<svg xmlns="http://www.w3.org/2000/svg" viewBox="0 0 156.39 234.64"><defs><style>.cls-1{fill:#bca068;}.cls-2{fill:#76e276;}.cls-3{fill:#faffc0;}.cls-4{fill:#c2cd43;}.cls-5,.cls-7{fill:#fff;}.cls-6{fill:#443f44;}.cls-7{opacity:0.75;}.cls-8{fill:#adeaea;}.cls-9{fill:#c1f4f3;}.cls-10{fill:#f6f2f7;}.cls-11{fill:#de1e0f;opacity:0.9;}.cls-12,.cls-16{fill:#ba170f;}.cls-13,.cls-16{opacity:0.5;}.cls-14{fill:#82c341;}.cls-15{fill:#c2d949;}</style></defs><title>Asset 3</title><g id="Layer_2" data-name="Layer 2"><g id="Objects"><path class="cls-1" d="M132.91,225.09c0,5.27-27.49,9.55-61.4,9.55s-61.4-4.28-61.4-9.55,27.49-9.54,61.4-9.54S132.91,219.82,132.91,225.09Z"/><path class="cls-2" d="M151.56,19.78A38.43,38.43,0,0,1,136.61,72c-12.59,7-24.13,7.24-35.57.18l13-28.77L112.17,43,85.65,59.21q-.68-1-1.29-2.13a38.43,38.43,0,1,1,67.2-37.3Z"/><path class="cls-3" d="M149.6,20.87a36.18,36.18,0,0,1-47.76,49.95L113.3,45l-2-1.53L87.46,57.89c-.39-.62-.78-1.25-1.14-1.9A36.19,36.19,0,1,1,149.6,20.87Z"/><path class="cls-4" d="M133.18,8.45h0a33.49,33.49,0,0,1,13.6,12.68L124.51,33.49a8.18,8.18,0,0,0-2.08-2Z"/><path class="cls-4" d="M84.47,35.48h0l25.28,3.09a8.07,8.07,0,0,0,.55,2.81L88,53.74A33.36,33.36,0,0,1,84.47,35.48Z"/><path class="cls-4" d="M94.15,14.7a33.45,33.45,0,0,1,17.33-9.26l-1.07.23,4.88,25a7.68,7.68,0,0,0-1.32.58,8.2,8.2,0,0,0-1.18.81Z"/><path class="cls-4" d="M151.46,41.38l-25.29-3.09a8.16,8.16,0,0,0-.55-2.81l22.26-12.35A33.41,33.41,0,0,1,151.46,41.38Z"/><path class="cls-4" d="M131.11,7.5,120.36,30.58a8,8,0,0,0-2.84-.34l-4.87-25h0a33.74,33.74,0,0,1,19.45,2.69Z"/><path class="cls-4" d="M111.24,33.72A8.06,8.06,0,0,0,110,36.31L84.75,33.23l-.15,1.05a33.68,33.68,0,0,1,8-17.92Z"/><path class="cls-4" d="M115.56,46.28a8.21,8.21,0,0,0,2.84.35l4.87,25a30.51,30.51,0,0,1-18.5-2.29C105.09,69.5,115.56,46.28,115.56,46.28Z"/><path class="cls-4" d="M151.17,43.64l.15-1C151.28,42.94,151.22,43.29,151.17,43.64Z"/><path class="cls-4" d="M143.33,60.51,124.68,43.14a8,8,0,0,0,1.21-2.59l25.28,3.09a33.77,33.77,0,0,1-7.85,16.88Z"/><path class="cls-4" d="M120.63,46.19a8.48,8.48,0,0,0,1.32-.57,9.1,9.1,0,0,0,1.18-.81l18.64,17.36c.26-.26.51-.52.76-.79a33.49,33.49,0,0,1-17,9.81Z"/><path class="cls-5" d="M47.07,154.82C48.47,167.62,60.48,172.47,66,175v29.37C66,216.16,50.66,221,39.15,221H36.79l-1.58,4.34h73.38L107,221.79h-2.37c-11.5,0-27.58-3.27-27.58-15.08V175c5.47-2.51,18.26-7.36,19.66-20.16,1.49-13.58,13.06-102.45,13.18-103.57l.53-3.3H32.8l.47,2.78C33.39,51.85,45.59,141.24,47.07,154.82Z"/><path class="cls-6" d="M.38,2.33l44.54,3c5.21.34,9.68,2.66,11.16,10.21L73.16,128.7,67,128.3,49.69,18.51C49,12,46.21,11.18,41.34,10.86L0,8.12Z"/><path class="cls-7" d="M47.07,154.82C48.47,167.62,60.48,172.47,66,175v29.37C66,216.16,50.66,221,39.15,221H36.79l-1.58,4.34h73.38L107,221.79h-2.37c-11.5,0-27.58-3.27-27.58-15.08V175c5.47-2.51,18.26-7.36,19.66-20.16,1.49-13.58,13.06-102.45,13.18-103.57l.53-3.3H32.8l.47,2.78C33.39,51.85,45.59,141.24,47.07,154.82Z"/><rect class="cls-8" x="58.03" y="66.67" width="19.63" height="19.19" rx="2.21" ry="2.21" transform="translate(-16.94 133.11) rotate(-82.18)"/><path class="cls-9" d="M90.66,90.85a2.22,2.22,0,0,1-2.5,1.89l-14.63-2a2.2,2.2,0,0,1-1.89-2.49l2.07-15.06a2.2,2.2,0,0,1,2.49-1.89l14.63,2a2.2,2.2,0,0,1,1.89,2.49Z"/><rect class="cls-9" x="73.36" y="112.61" width="19.63" height="19.19" rx="2.21" ry="2.21" transform="matrix(0.14, -0.99, 0.99, 0.14, -49.21, 187.98)"/><rect class="cls-10" x="51.76" y="76.24" width="19.2" height="19.63" rx="2.21" ry="2.21" transform="translate(-34.27 41.05) rotate(-29.3)"/><path class="cls-8" d="M88.18,94.92a2.22,2.22,0,0,1-1.82,2.55L71.79,99.88a2.23,2.23,0,0,1-2.55-1.83l-2.48-15a2.23,2.23,0,0,1,1.83-2.55L83.16,78.1a2.21,2.21,0,0,1,2.54,1.83Z"/><path class="cls-8" d="M73.85,140.68A2.21,2.21,0,0,1,72,143.23l-14.57,2.41a2.21,2.21,0,0,1-2.54-1.83l-2.48-15a2.22,2.22,0,0,1,1.82-2.55l14.57-2.41a2.22,2.22,0,0,1,2.55,1.83Z"/><path class="cls-11" d="M68.44,167.15c1.16.64,5.45.58,6.9,0,.31-.12,16.56-6,17.94-18.63.69-6.32,3.81-35.08,6.74-62.23-8.91-2.66-9.9-1.68-14.24,0s-8,1.22-13.89-3S63.34,86.06,59.72,87s-8-.17-15.2-3.06a8.47,8.47,0,0,0-1.05-.33c3,27.92,6.32,58.43,7,65C51.88,161.14,67.28,166.51,68.44,167.15Z"/><path class="cls-12" d="M93.28,135.41C91.9,148,75.65,153.91,75.34,154c-1.45.58-5.74.63-6.9,0s-16.56-6-17.94-18.63c-.6-5.48-3-27.82-5.56-51.36l-.42-.16a8.47,8.47,0,0,0-1.05-.33c3,27.92,6.32,58.43,7,65,1.38,12.62,16.78,18,17.94,18.63s5.45.58,6.9,0c.31-.12,16.56-6,17.94-18.63.69-6.32,3.81-35.08,6.74-62.23l-1.37-.4C96.18,108.74,93.87,130.08,93.28,135.41Z"/><g class="cls-13"><path class="cls-14" d="M84,94.23l-25.12,12c-.35.83-1.86,5.93-2.35,7.27l2.49,23c10.47.2,18.11-4.53,23.79-14.2A29.92,29.92,0,0,0,84,94.23Z"/><path class="cls-3" d="M82.4,95,58.77,106.31c-.06.21-2.31,7.09-2.31,7.09L59,135.27A28.18,28.18,0,0,0,82.4,95Z"/><path class="cls-15" d="M58.49,113.38a6.74,6.74,0,0,0,2-.89l13.16,14.84a23.77,23.77,0,0,1-13.32,5.79C60.65,133.09,58.49,113.38,58.49,113.38Z"/><path class="cls-15" d="M82.74,111.93l-19.38-4.27a6.3,6.3,0,0,0-.21-2.21l18.17-7.93a26.23,26.23,0,0,1,1.42,14.42Z"/><path class="cls-15" d="M61.85,111.31a6,6,0,0,0,.65-.91,5.49,5.49,0,0,0,.48-1l19.37,4.27c.07-.27.14-.55.2-.83A26.14,26.14,0,0,1,75,126.15Z"/></g><path class="cls-16" d="M85.78,86.29c-4.34,1.68-8,1.22-13.88-2.94v84.26a11.49,11.49,0,0,0,3.44-.46c.31-.12,16.56-6,17.94-18.63.69-6.32,3.81-35.08,6.74-62.23C91.11,83.63,90.12,84.61,85.78,86.29Z"/></g></g></svg>