<svg xmlns="http://www.w3.org/2000/svg" viewBox="0 0 197.61 288.32"><defs><style>.cls-1,.cls-10,.cls-11,.cls-14,.cls-9{fill:none;stroke-linecap:round;stroke-linejoin:round;}.cls-1{stroke:#2cf2ee;stroke-width:7.59px;}.cls-2{fill:#2cf2ee;}.cls-3{fill:#2e0808;}.cls-4{font-size:48.94px;fill:#ffecd9;}.cls-4,.cls-7{font-family:SourceSansPro-Black, Source Sans Pro;}.cls-5{letter-spacing:-0.01em;}.cls-6{letter-spacing:0em;}.cls-7{font-size:42.02px;}.cls-12,.cls-7{fill:#ffc800;}.cls-8{letter-spacing:-0.02em;}.cls-11,.cls-9{stroke:#eb0100;}.cls-9{stroke-width:5.9px;}.cls-10{stroke:#2e0808;stroke-width:13.29px;}.cls-11{stroke-width:4.41px;}.cls-13{fill:#eb0100;}.cls-14{stroke:#ffc800;stroke-width:5.69px;}</style></defs><title>Asset 1</title><g id="Layer_2" data-name="Layer 2"><g id="Objects"><circle class="cls-1" cx="98.29" cy="114.55" r="66.25" transform="translate(-31.38 191.82) rotate(-80.16)"/><path class="cls-2" d="M159.48,89.13A66.49,66.49,0,0,0,134.9,59.34L98.29,114.55Z"/><polygon class="cls-2" points="42.37 150.09 53.05 162.21 98.29 114.55 42.37 150.09"/><circle class="cls-2" cx="98.29" cy="114.55" r="24.68" transform="translate(-49.73 85) rotate(-38.08)"/><path class="cls-3" d="M107.94,114.55a9.65,9.65,0,1,1-9.65-9.65A9.65,9.65,0,0,1,107.94,114.55Z"/><text class="cls-4" transform="translate(27.23 235.08)">M<tspan class="cls-5" x="37.98" y="0">U</tspan><tspan class="cls-6" x="70.38" y="0">SIC</tspan></text><text class="cls-7" transform="translate(26.22 271.27)"><tspan class="cls-8">S</tspan><tspan x="22.86" y="0">TUDIO</tspan></text><path class="cls-9" d="M21,140.34H9.8A6.85,6.85,0,0,0,3,147.19V278.52a6.85,6.85,0,0,0,6.85,6.85h178a6.85,6.85,0,0,0,6.85-6.85V147.19a6.85,6.85,0,0,0-6.85-6.85H174.73"/><path class="cls-10" d="M122.74,151.89l12.19,16.5a19.72,19.72,0,0,0,11.55,7.39"/><circle class="cls-11" cx="165.83" cy="179.85" r="9.93" transform="translate(-78.6 169.93) rotate(-45)"/><path class="cls-2" d="M39.18,186.29a4.37,4.37,0,1,1-4.36-4.36A4.37,4.37,0,0,1,39.18,186.29Z"/><circle class="cls-12" cx="34.82" cy="170.49" r="4.36"/><path class="cls-11" d="M122.74,151.89l12.19,16.5a19.72,19.72,0,0,0,11.55,7.39l19.19,3.84"/><path class="cls-13" d="M132.24,152.53a5.67,5.67,0,0,1-1,8L129,162.23a5.67,5.67,0,0,1-8-1l-7.33-9.41a5.68,5.68,0,0,1,1-8l2.25-1.73a5.67,5.67,0,0,1,8,1Z"/><path class="cls-14" d="M113.76,18.81l-15-16-15,16L67,11.58l10.45,23.2a77.43,77.43,0,0,1,42.69,0l10.45-23.2Z"/><polygon class="cls-13" points="25.39 25.94 29.15 37.52 41.34 37.52 31.48 44.69 35.25 56.27 25.39 49.11 15.53 56.27 19.3 44.69 9.44 37.52 21.62 37.52 25.39 25.94"/><polygon class="cls-13" points="172.22 25.94 175.98 37.52 188.16 37.52 178.31 44.69 182.07 56.27 172.22 49.11 162.36 56.27 166.12 44.69 156.27 37.52 168.45 37.52 172.22 25.94"/></g></g></svg>