<svg xmlns="http://www.w3.org/2000/svg" viewBox="0 0 232.65 242.87"><defs><style>.cls-1{fill:#bca068;}.cls-2{fill:#76e276;}.cls-3{fill:#faffc0;}.cls-4{fill:#c2cd43;}.cls-5{fill:#966046;}.cls-6{fill:#ffc42c;}.cls-7{fill:#ffd74d;}.cls-10,.cls-8{fill:#fff;}.cls-9{fill:#443f44;}.cls-10,.cls-12{opacity:0.75;}.cls-11{fill:#c1f4f3;}.cls-12,.cls-13{fill:#bc094a;}.cls-13{opacity:0.5;}</style></defs><title>Asset 4</title><g id="Layer_2" data-name="Layer 2"><g id="Objects"><ellipse class="cls-1" cx="126.93" cy="233.62" rx="59.52" ry="9.25"/><path class="cls-2" d="M24.23,2.73a38.43,38.43,0,0,1,49.91,21.5c5.32,13.38,4.1,24.85-4.36,35.3L42.91,43l-.74,1.8L54.92,73.13c-.75.36-1.5.7-2.28,1A38.43,38.43,0,1,1,24.23,2.73Z"/><path class="cls-3" d="M25.06,4.81A36.18,36.18,0,0,1,68.5,58.56L44.34,43.89l-1.77,1.85L53.84,71.17c-.67.31-1.34.61-2,.88A36.18,36.18,0,1,1,25.06,4.81Z"/><path class="cls-4" d="M10.64,19.51h0A33.42,33.42,0,0,1,25,7.64L34.37,31.3a8.29,8.29,0,0,0-2.2,1.82Z"/><path class="cls-4" d="M31.23,71.28h0l6.3-24.68a8.35,8.35,0,0,0,2.85-.19l9.41,23.66A33.49,33.49,0,0,1,31.23,71.28Z"/><path class="cls-4" d="M11.85,59a33.63,33.63,0,0,1-7-18.38c0,.37.06.73.1,1.1L30.4,40.09a7.5,7.5,0,0,0,.4,1.38,7.68,7.68,0,0,0,.65,1.28Z"/><path class="cls-4" d="M45.63,5.59,39.34,30.27a8.34,8.34,0,0,0-2.85.19L27.07,6.8A33.4,33.4,0,0,1,45.63,5.59Z"/><path class="cls-4" d="M9.43,21.44,31,35.05a8.25,8.25,0,0,0-.7,2.77L4.82,39.46v0A33.73,33.73,0,0,1,10,20.53C9.79,20.83,9.61,21.14,9.43,21.44Z"/><path class="cls-4" d="M32.91,44.5A8.15,8.15,0,0,0,35.32,46L29,70.71l1,.28A33.77,33.77,0,0,1,13.3,60.78Z"/><path class="cls-4" d="M45.92,41.82a8.25,8.25,0,0,0,.7-2.77L72.05,37.4a30.59,30.59,0,0,1-4.63,18.07C67.6,55.16,45.92,41.82,45.92,41.82Z"/><path class="cls-4" d="M47.84,6.16l-1-.28Z"/><path class="cls-4" d="M63.57,16.09,44,32.37a8.15,8.15,0,0,0-2.41-1.53L47.84,6.16A33.75,33.75,0,0,1,63.58,16.1Z"/><path class="cls-4" d="M46.47,36.77a7.71,7.71,0,0,0-1-2.65L65,17.85c-.23-.29-.45-.58-.69-.86a33.71,33.71,0,0,1,7.56,18.14Z"/><path class="cls-5" d="M196.84,54.67l2.71-.84C198,30.55,178,14.57,155,18.16c-.29,0-.58.11-.87.16l-.23,2.77C175.59,18.44,194.23,33.09,196.84,54.67Z"/><path class="cls-6" d="M156.79,20.18l-.77.11-1.78,44,43.33-11.46A37,37,0,0,0,156.79,20.18Z"/><path class="cls-7" d="M172,23a20.86,20.86,0,0,0-8.91-1.95l-8.51,42.77,1.18-.91Z"/><path class="cls-7" d="M188,33.83a14.32,14.32,0,0,0-6.52-6.21L159.3,56.15,158,58.67Z"/><path class="cls-7" d="M195.67,53.21c.64-2.43-.07-6-1.6-8.69L154.24,64.29Z"/><path class="cls-8" d="M129.65,213.32v-73l77.6-97H43.49l77.61,97v73c0,8.42-5.79,17.71-28.35,17.71l-1.57,2.69h68.39L158,231C135.43,231,129.65,221.74,129.65,213.32Z"/><path class="cls-9" d="M232.65,12.94,188.86,4.32c-5.12-1-10,.08-13.42,7l-45.66,105,6.06,1.19,45-101.62c2.4-6.1,5.25-6.19,10-5.25l40.65,8Z"/><path class="cls-10" d="M129.65,213.32v-73l77.6-97H43.49l77.61,97v73c0,8.42-5.79,17.71-28.35,17.71l-1.57,2.69h68.39L158,231C135.43,231,129.65,221.74,129.65,213.32Z"/><path class="cls-11" d="M121.54,92.48a3.47,3.47,0,0,1-3.9,3L94.77,92.3a3.46,3.46,0,0,1-3-3.9L95,64.86a3.46,3.46,0,0,1,3.9-3L121.81,65a3.45,3.45,0,0,1,3,3.9Z"/><path class="cls-11" d="M141.38,100.12A3.47,3.47,0,0,1,136.61,99L124.48,79.36a3.47,3.47,0,0,1,1.12-4.77L145.81,62.1a3.47,3.47,0,0,1,4.77,1.13l12.13,19.63a3.46,3.46,0,0,1-1.12,4.77Z"/><path class="cls-12" d="M122.45,133.94h6.63v-.66l40.1-50.1c-7.67-.42-16.61,2.91-21.39,1.3-5.49-1.85-22.87-4.56-29.55-4.58s-22.59,6.43-35.77,0a15.4,15.4,0,0,0-3.73-1.23l43.71,54.61Z"/><path class="cls-12" d="M160.31,83.83l-31.23,39v.65h-6.63v-.65L90,82.26a27.22,27.22,0,0,1-7.5-2.36,15.4,15.4,0,0,0-3.73-1.23l43.71,54.61v.66h6.63v-.66l40.1-50.1A45.36,45.36,0,0,0,160.31,83.83Z"/><path class="cls-13" d="M147.79,84.48c-4-1.36-14.5-3.18-22.42-4.06v53.52h3.71v-.66l40.1-50.1C161.51,82.76,152.57,86.09,147.79,84.48Z"/></g></g></svg>